SplineFontDB: 3.0
FontName: Slipstick-Index-Medium
FullName: Slipstick Index Medium
FamilyName: Slipstick Index Medium
Weight: Medium
Copyright: Copyright (c) 2015-2017 Belleve Invis.
Version: 1.13.3; ttfautohint (v1.6)
ItalicAngle: 0
UnderlinePosition: -25
UnderlineWidth: 50
Ascent: 800
Descent: 200
sfntRevision: 0x00000000
LayerCount: 2
Layer: 0 1 "Back"  1
Layer: 1 1 "Fore"  0
XUID: [1021 619 161513758 13469695]
FSType: 0
OS2Version: 4
OS2_WeightWidthSlopeOnly: 0
OS2_UseTypoMetrics: 1
CreationTime: 1479708639
ModificationTime: 1513595862
PfmFamily: 17
TTFWeight: 500
TTFWidth: 5
LineGap: 67
VLineGap: 0
Panose: 2 0 6 9 0 0 0 0 0 0
OS2TypoAscent: 977
OS2TypoAOffset: 0
OS2TypoDescent: -272
OS2TypoDOffset: 0
OS2TypoLinegap: 0
OS2WinAscent: 977
OS2WinAOffset: 0
OS2WinDescent: 272
OS2WinDOffset: 0
HheadAscent: 977
HheadAOffset: 0
HheadDescent: -205
HheadDOffset: 0
OS2SubXSize: 665
OS2SubYSize: 716
OS2SubXOff: 0
OS2SubYOff: 143
OS2SupXSize: 0
OS2SupYSize: 0
OS2SupXOff: 0
OS2SupYOff: 0
OS2StrikeYSize: 51
OS2StrikeYPos: 265
OS2FamilyClass: 2057
OS2Vendor: 'CYEL'
OS2CodePages: 2000011f.c4000000
OS2UnicodeRanges: e00002ff.5041fcfb.00040010.00000000

StartChar: .notdef
Encoding: 65536 -1 0
Width: 500
GlyphClass: 2
Flags: W
LayerCount: 2
Fore
SplineSet
54 0 m 1,0,-1
 54 735 l 1,1,-1
 446 735 l 1,2,-1
 446 0 l 1,3,-1
 54 0 l 1,0,-1
144 90 m 1,4,-1
 356 90 l 1,5,-1
 356 645 l 1,6,-1
 144 645 l 1,7,-1
 144 90 l 1,4,-1
EndSplineSet
EndChar

StartChar: exclam
Encoding: 33 33 4
Width: 500
GlyphClass: 2
Flags: W
FFAnchorPoint: "Anchor-5" 446 0 basechar 0
FFAnchorPoint: "Anchor-4" 446 735 basechar 0
FFAnchorPoint: "Anchor-3" 250 367 basechar 0
FFAnchorPoint: "Anchor-2" 250 382 basechar 0
FFAnchorPoint: "Anchor-1" 250 0 basechar 0
FFAnchorPoint: "Anchor-0" 250 735 basechar 0
LayerCount: 2
Fore
SplineSet
200 260 m 1,0,-1
 200 735 l 1,1,-1
 300 735 l 1,2,-1
 300 260 l 1,3,-1
 200 260 l 1,0,-1
250 -8 m 256,4,5
 225 -8 225 -8 207 2 c 0,6,7
 192 11 192 11 182 27 c 0,8,9
 172 45 172 45 172 70 c 128,-1,10
 172 95 172 95 182 113 c 0,11,12
 192 129 192 129 207 138 c 0,13,14
 225 148 225 148 250 148 c 256,15,16
 275 148 275 148 293 138 c 0,17,18
 308 129 308 129 318 113 c 0,19,20
 328 95 328 95 328 70 c 128,-1,21
 328 45 328 45 318 27 c 0,22,23
 308 11 308 11 293 2 c 0,24,25
 275 -8 275 -8 250 -8 c 256,4,5
EndSplineSet
Substitution2: "Single Substitution lookup 67 subtable" glyph3253
EndChar

StartChar: quotedbl
Encoding: 34 34 5
Width: 500
GlyphClass: 2
Flags: W
LayerCount: 2
Fore
SplineSet
303 451 m 1,0,1
 295 606 295 606 295 772 c 1,2,-1
 405 772 l 1,3,4
 405 606 405 606 397 451 c 1,5,-1
 303 451 l 1,0,1
103 451 m 1,6,7
 95 606 95 606 95 772 c 1,8,-1
 205 772 l 1,9,10
 205 606 205 606 197 451 c 1,11,-1
 103 451 l 1,6,7
EndSplineSet
EndChar

StartChar: numbersign
Encoding: 35 35 6
Width: 500
GlyphClass: 2
Flags: W
LayerCount: 2
Fore
SplineSet
99 -88 m 1,0,-1
 99 139 l 1,1,-1
 12 139 l 1,2,-1
 12 229 l 1,3,-1
 99 229 l 1,4,-1
 99 501 l 1,5,-1
 12 501 l 1,6,-1
 12 591 l 1,7,-1
 99 591 l 1,8,-1
 99 818 l 1,9,-1
 192 818 l 1,10,-1
 192 591 l 1,11,-1
 308 591 l 1,12,-1
 308 818 l 1,13,-1
 401 818 l 1,14,-1
 401 591 l 1,15,-1
 488 591 l 1,16,-1
 488 501 l 1,17,-1
 401 501 l 1,18,-1
 401 229 l 1,19,-1
 488 229 l 1,20,-1
 488 139 l 1,21,-1
 401 139 l 1,22,-1
 401 -88 l 1,23,-1
 308 -88 l 1,24,-1
 308 139 l 1,25,-1
 192 139 l 1,26,-1
 192 -88 l 1,27,-1
 99 -88 l 1,0,-1
192 229 m 1,28,-1
 308 229 l 1,29,-1
 308 501 l 1,30,-1
 192 501 l 1,31,-1
 192 229 l 1,28,-1
EndSplineSet
Substitution2: "'ss09' Style Set 9 lookup 144 subtable" numbersign.ss09
Substitution2: "'ss11' Style Set 11 lookup 143 subtable" numbersign.ss11
EndChar

StartChar: dollar
Encoding: 36 36 7
Width: 500
GlyphClass: 2
Flags: W
FFAnchorPoint: "Anchor-5" 446 0 basechar 0
FFAnchorPoint: "Anchor-4" 446 735 basechar 0
FFAnchorPoint: "Anchor-3" 250 367 basechar 0
FFAnchorPoint: "Anchor-2" 250 382 basechar 0
FFAnchorPoint: "Anchor-1" 250 0 basechar 0
FFAnchorPoint: "Anchor-0" 250 735 basechar 0
LayerCount: 2
Fore
SplineSet
203 -103 m 1,0,-1
 203 32 l 1,1,2
 162 38 162 38 130 56 c 0,3,4
 92 78 92 78 70 116 c 0,5,6
 49 152 49 152 49 192 c 1,7,-1
 142 204 l 1,8,9
 141 202 141 202 142 200 c 1,10,11
 141 178 141 178 153 159 c 1,12,13
 163 140 163 140 184 128 c 0,14,15
 195 121 195 121 209 118 c 1,16,-1
 209 337 l 1,17,18
 182 350 182 350 163 360 c 1,19,20
 107 393 107 393 79 441 c 0,21,22
 54 485 54 485 54 532.5 c 128,-1,23
 54 580 54 580 77 619 c 0,24,25
 98 656 98 656 137 679 c 0,26,27
 166 696 166 696 203 702 c 1,28,-1
 203 838 l 1,29,-1
 297 838 l 1,30,-1
 297 703 l 1,31,32
 338 697 338 697 370 679 c 0,33,34
 408 657 408 657 430 619 c 0,35,36
 451 583 451 583 451 543 c 1,37,-1
 358 531 l 1,38,39
 359 533 359 533 358 535 c 1,40,41
 359 557 359 557 347 576 c 1,42,43
 337 595 337 595 316 607 c 0,44,45
 305 614 305 614 291 617 c 1,46,-1
 291 398 l 1,47,48
 318 385 318 385 337 375 c 1,49,50
 393 342 393 342 421 294 c 0,51,52
 446 250 446 250 446 202.5 c 128,-1,53
 446 155 446 155 423 116 c 0,54,55
 402 79 402 79 363 56 c 0,56,57
 334 39 334 39 297 33 c 1,58,-1
 297 -103 l 1,59,-1
 203 -103 l 1,0,-1
209 438 m 1,60,-1
 209 616 l 1,61,62
 199 612 199 612 190 607 c 0,63,64
 169 595 169 595 158.5 576.5 c 128,-1,65
 148 558 148 558 147 534 c 1,66,67
 148 508 148 508 161 486 c 0,68,69
 176 459 176 459 209 438 c 1,60,-1
291 119 m 1,70,71
 301 123 301 123 310 128 c 0,72,73
 331 140 331 140 341.5 158.5 c 128,-1,74
 352 177 352 177 353 201 c 1,75,76
 352 227 352 227 339 249 c 0,77,78
 324 276 324 276 291 297 c 1,79,-1
 291 119 l 1,70,71
EndSplineSet
Substitution2: "'ss11' Style Set 11 lookup 152 subtable" dollar.ss11
Substitution2: "'ss09' Style Set 9 lookup 151 subtable" dollar.ss09
EndChar

StartChar: percent
Encoding: 37 37 8
Width: 500
GlyphClass: 2
Flags: W
LayerCount: 2
Fore
SplineSet
54 515 m 1,0,-1
 54 735 l 1,1,-1
 177 735 l 1,2,-1
 177 515 l 1,3,-1
 54 515 l 1,0,-1
54 0 m 1,4,-1
 336 735 l 1,5,-1
 446 735 l 1,6,-1
 164 0 l 1,7,-1
 54 0 l 1,4,-1
323 0 m 1,8,-1
 323 221 l 1,9,-1
 446 221 l 1,10,-1
 446 0 l 1,11,-1
 323 0 l 1,8,-1
EndSplineSet
EndChar

StartChar: ampersand
Encoding: 38 38 9
Width: 500
GlyphClass: 2
Flags: W
LayerCount: 2
Fore
SplineSet
250 -8 m 256,0,1
 186 -8 186 -8 140 18 c 1,2,3
 99 43 99 43 74 85 c 0,4,5
 46 134 46 134 46 195 c 0,6,7
 46 251 46 251 76 303 c 0,8,9
 95 336 95 336 141 377 c 1,10,11
 131 392 131 392 123 406 c 0,12,13
 73 493 73 493 74 572 c 1,14,15
 73 627 73 627 97 669 c 0,16,17
 118 704 118 704 151 722 c 1,18,19
 186 743 186 743 235 743 c 256,20,21
 284 743 284 743 320 722 c 0,22,23
 353 703 353 703 373 669 c 0,24,25
 397 628 397 628 397 574 c 128,-1,26
 397 520 397 520 368 469 c 0,27,28
 342 424 342 424 271 368 c 1,29,30
 300 330 300 330 340 284 c 0,31,32
 347 276 347 276 354 268 c 1,33,-1
 354 368 l 1,34,-1
 454 368 l 1,35,-1
 454 203 l 2,36,37
 454 170 454 170 447 141 c 1,38,39
 485 70 485 70 485 0 c 1,40,-1
 385 0 l 1,41,42
 385 17 385 17 383 34 c 1,43,44
 372 25 372 25 360 18 c 0,45,46
 314 -8 314 -8 250 -8 c 256,0,1
219 441 m 1,47,48
 261 478 261 478 277 506 c 0,49,50
 297 540 297 540 297 575 c 0,51,52
 297 603 297 603 285 624 c 0,53,54
 277 638 277 638 264 645.5 c 128,-1,55
 251 653 251 653 235 653 c 256,56,57
 219 653 219 653 206.5 645.5 c 128,-1,58
 194 638 194 638 186 624 c 0,59,60
 173 603 173 603 174 572 c 1,61,62
 173 520 173 520 213 451 c 0,63,64
 216 446 216 446 219 441 c 1,47,48
250 82 m 0,65,66
 280 82 280 82 302 94.5 c 128,-1,67
 324 107 324 107 337 130 c 0,68,69
 339 135 339 135 341 139 c 1,70,71
 314 181 314 181 251 247 c 0,72,73
 221 278 221 278 197 306 c 1,74,75
 176 285 176 285 166 267 c 0,76,77
 146 231 146 231 146 194.5 c 128,-1,78
 146 158 146 158 162 130 c 0,79,80
 175 107 175 107 197 94.5 c 128,-1,81
 219 82 219 82 250 82 c 0,65,66
EndSplineSet
EndChar

StartChar: quotesingle
Encoding: 39 39 10
Width: 500
GlyphClass: 2
Flags: W
LayerCount: 2
Fore
SplineSet
203 451 m 1,0,1
 195 606 195 606 195 772 c 1,2,-1
 305 772 l 1,3,4
 305 606 305 606 297 451 c 1,5,-1
 203 451 l 1,0,1
EndSplineSet
EndChar

StartChar: parenleft
Encoding: 40 40 11
Width: 500
GlyphClass: 2
Flags: W
LayerCount: 2
Fore
SplineSet
407 -188 m 1,0,1
 287 -118 287 -118 218 2 c 0,2,3
 133 150 133 150 132 365 c 1,4,5
 133 580 133 580 218 728 c 0,6,7
 287 848 287 848 407 918 c 1,8,-1
 457 840 l 1,9,10
 363 782 363 782 307 685 c 0,11,12
 233 556 233 556 232 365 c 1,13,14
 233 174 233 174 307 45 c 0,15,16
 363 -52 363 -52 457 -110 c 1,17,-1
 407 -188 l 1,0,1
EndSplineSet
EndChar

StartChar: parenright
Encoding: 41 41 12
Width: 500
GlyphClass: 2
Flags: W
LayerCount: 2
Fore
SplineSet
93 -188 m 1,0,-1
 43 -110 l 1,1,2
 137 -52 137 -52 193 45 c 0,3,4
 267 174 267 174 268 365 c 1,5,6
 267 556 267 556 193 685 c 0,7,8
 137 782 137 782 43 840 c 1,9,-1
 93 918 l 1,10,11
 213 848 213 848 282 728 c 0,12,13
 367 580 367 580 368 365 c 1,14,15
 367 150 367 150 282 2 c 0,16,17
 213 -118 213 -118 93 -188 c 1,0,-1
EndSplineSet
EndChar

StartChar: asterisk
Encoding: 42 42 13
Width: 500
GlyphClass: 2
Flags: W
LayerCount: 2
Fore
SplineSet
167 439 m 1,0,-1
 86 492 l 1,1,-1
 185 616 l 1,2,-1
 35 658 l 1,3,-1
 66 743 l 1,4,-1
 207 690 l 1,5,-1
 200 846 l 1,6,-1
 300 846 l 1,7,-1
 293 690 l 1,8,-1
 434 743 l 1,9,-1
 465 658 l 1,10,-1
 315 616 l 1,11,-1
 414 492 l 1,12,-1
 333 439 l 1,13,-1
 250 566 l 1,14,-1
 167 439 l 1,0,-1
EndSplineSet
Substitution2: "'ss10' Style Set 10 lookup 142 subtable" asterisk.ss10
Substitution2: "'ss11' Style Set 11 lookup 141 subtable" asterisk.ss11
Substitution2: "Single Substitution lookup 85 subtable" asterisk.ss10
Substitution2: "Single Substitution lookup 45 subtable" asterisk.ss10
Substitution2: "Single Substitution lookup 42 subtable" asterisk.ss10
Substitution2: "Single Substitution lookup 40 subtable" asterisk.ss10
EndChar

StartChar: plus
Encoding: 43 43 14
Width: 500
GlyphClass: 2
Flags: W
FFAnchorPoint: "Anchor-5" 446 0 basechar 0
FFAnchorPoint: "Anchor-4" 446 530 basechar 0
FFAnchorPoint: "Anchor-3" 250 365 basechar 0
FFAnchorPoint: "Anchor-2" 250 373 basechar 0
FFAnchorPoint: "Anchor-1" 250 149 basechar 0
FFAnchorPoint: "Anchor-0" 250 580 basechar 0
LayerCount: 2
Fore
SplineSet
200 149 m 1,0,-1
 200 320 l 1,1,-1
 54 320 l 1,2,-1
 54 410 l 1,3,-1
 200 410 l 1,4,-1
 200 581 l 1,5,-1
 300 581 l 1,6,-1
 300 410 l 1,7,-1
 446 410 l 1,8,-1
 446 320 l 1,9,-1
 300 320 l 1,10,-1
 300 149 l 1,11,-1
 200 149 l 1,0,-1
EndSplineSet
Substitution2: "Single Substitution lookup 53 subtable" glyph3158
Substitution2: "Single Substitution lookup 52 subtable" glyph3157
Substitution2: "Single Substitution lookup 51 subtable" glyph3155
Substitution2: "Single Substitution lookup 50 subtable" glyph3160
EndChar

StartChar: comma
Encoding: 44 44 15
Width: 500
GlyphClass: 2
Flags: W
LayerCount: 2
Fore
SplineSet
225 -205 m 1,0,-1
 154 -153 l 1,1,2
 181 -119 181 -119 200 -86 c 0,3,4
 223 -47 223 -47 235 -7 c 1,5,6
 216 -5 216 -5 200 4 c 0,7,8
 182 14 182 14 171 33 c 0,9,10
 159 54 159 54 160 83 c 1,11,12
 159 111 159 111 171 132 c 0,13,14
 182 151 182 151 200 161 c 0,15,16
 221 173 221 173 250 173 c 256,17,18
 279 173 279 173 300 161 c 0,19,20
 318 151 318 151 329 132 c 0,21,22
 340 112 340 112 341 82 c 1,23,24
 340 -21 340 -21 281 -124 c 0,25,26
 257 -166 257 -166 225 -205 c 1,0,-1
EndSplineSet
EndChar

StartChar: hyphen
Encoding: 45 45 16
Width: 500
GlyphClass: 2
Flags: W
LayerCount: 2
Fore
SplineSet
54 320 m 1,0,-1
 54 410 l 1,1,-1
 446 410 l 1,2,-1
 446 320 l 1,3,-1
 54 320 l 1,0,-1
EndSplineSet
Substitution2: "Single Substitution lookup 95 subtable" glyph3217
Substitution2: "Single Substitution lookup 94 subtable" glyph3211
Substitution2: "Single Substitution lookup 92 subtable" glyph3200
Substitution2: "Single Substitution lookup 91 subtable" glyph3210
Substitution2: "Single Substitution lookup 90 subtable" glyph3210
Substitution2: "Single Substitution lookup 89 subtable" glyph3216
Substitution2: "Single Substitution lookup 87 subtable" glyph3201
Substitution2: "Single Substitution lookup 79 subtable" glyph3220
Substitution2: "Single Substitution lookup 72 subtable" glyph3195
Substitution2: "Single Substitution lookup 71 subtable" glyph3209
Substitution2: "Single Substitution lookup 70 subtable" glyph3212
Substitution2: "Single Substitution lookup 69 subtable" glyph3213
Substitution2: "Single Substitution lookup 68 subtable" glyph3199
Substitution2: "Single Substitution lookup 66 subtable" glyph3196
Substitution2: "Single Substitution lookup 65 subtable" glyph3208
Substitution2: "Single Substitution lookup 64 subtable" glyph3214
Substitution2: "Single Substitution lookup 63 subtable" glyph3215
Substitution2: "Single Substitution lookup 62 subtable" glyph3218
Substitution2: "Single Substitution lookup 61 subtable" glyph3197
Substitution2: "Single Substitution lookup 60 subtable" glyph3219
Substitution2: "Single Substitution lookup 59 subtable" glyph3198
EndChar

StartChar: period
Encoding: 46 46 17
Width: 500
GlyphClass: 2
Flags: W
LayerCount: 2
Fore
SplineSet
250 -8 m 256,0,1
 221 -8 221 -8 200 4 c 0,2,3
 182 14 182 14 171 33 c 0,4,5
 159 54 159 54 160 83 c 1,6,7
 159 111 159 111 171 132 c 0,8,9
 182 151 182 151 200 161 c 0,10,11
 221 173 221 173 250 173 c 256,12,13
 279 173 279 173 300 161 c 0,14,15
 318 151 318 151 329 132 c 0,16,17
 340 112 340 112 341 83 c 1,18,19
 340 53 340 53 329 33 c 0,20,21
 318 14 318 14 300 4 c 0,22,23
 279 -8 279 -8 250 -8 c 256,0,1
EndSplineSet
Substitution2: "Single Substitution lookup 85 subtable" glyph3108
Substitution2: "Single Substitution lookup 84 subtable" glyph3108
EndChar

StartChar: slash
Encoding: 47 47 18
Width: 500
GlyphClass: 2
Flags: W
LayerCount: 2
Fore
SplineSet
48 -168 m 1,0,-1
 350 898 l 1,1,-1
 452 898 l 1,2,-1
 150 -168 l 1,3,-1
 48 -168 l 1,0,-1
EndSplineSet
Substitution2: "Single Substitution lookup 83 subtable" glyph3102
Substitution2: "Single Substitution lookup 80 subtable" glyph3101
EndChar

StartChar: zero
Encoding: 48 48 19
Width: 500
GlyphClass: 2
Flags: W
FFAnchorPoint: "Anchor-5" 446 0 basechar 0
FFAnchorPoint: "Anchor-4" 446 735 basechar 0
FFAnchorPoint: "Anchor-3" 250 367 basechar 0
FFAnchorPoint: "Anchor-2" 250 382 basechar 0
FFAnchorPoint: "Anchor-1" 250 0 basechar 0
FFAnchorPoint: "Anchor-0" 250 735 basechar 0
LayerCount: 2
Fore
SplineSet
250 -8 m 256,0,1
 189 -8 189 -8 146 17 c 128,-1,2
 103 42 103 42 78 86 c 0,3,4
 46 141 46 141 46 220 c 2,5,-1
 46 515 l 2,6,7
 46 594 46 594 78 649 c 0,8,9
 103 693 103 693 146 718 c 128,-1,10
 189 743 189 743 250 743 c 256,11,12
 311 743 311 743 354 718 c 128,-1,13
 397 693 397 693 422 649 c 0,14,15
 454 594 454 594 454 515 c 2,16,-1
 454 220 l 2,17,18
 454 141 454 141 422 86 c 0,19,20
 397 42 397 42 354 17 c 128,-1,21
 311 -8 311 -8 250 -8 c 256,0,1
250 82 m 256,22,23
 277 82 277 82 297 94 c 0,24,25
 319 106 319 106 334 131 c 0,26,27
 354 167 354 167 354 220 c 2,28,-1
 354 515 l 2,29,30
 354 568 354 568 334 604 c 0,31,32
 319 629 319 629 297 641 c 0,33,34
 277 653 277 653 250 653 c 256,35,36
 223 653 223 653 203 641 c 0,37,38
 181 629 181 629 166 604 c 0,39,40
 146 568 146 568 146 515 c 2,41,-1
 146 220 l 2,42,43
 146 167 146 167 166 131 c 0,44,45
 181 106 181 106 203 94 c 0,46,47
 223 82 223 82 250 82 c 256,22,23
EndSplineSet
Substitution2: "'ss11' Style Set 11 lookup 131 subtable" zero.ss11
Substitution2: "'ss09' Style Set 9 lookup 130 subtable" zero.ss09
Substitution2: "'ss10' Style Set 10 lookup 129 subtable" zero.ss10
EndChar

StartChar: one
Encoding: 49 49 20
Width: 500
GlyphClass: 2
Flags: W
FFAnchorPoint: "Anchor-5" 446 0 basechar 0
FFAnchorPoint: "Anchor-4" 446 735 basechar 0
FFAnchorPoint: "Anchor-3" 250 367 basechar 0
FFAnchorPoint: "Anchor-2" 250 382 basechar 0
FFAnchorPoint: "Anchor-1" 250 0 basechar 0
FFAnchorPoint: "Anchor-0" 250 735 basechar 0
LayerCount: 2
Fore
SplineSet
230 0 m 1,0,-1
 230 620 l 1,1,-1
 126 546 l 1,2,-1
 68 619 l 1,3,-1
 230 735 l 1,4,-1
 330 735 l 1,5,-1
 330 0 l 1,6,-1
 230 0 l 1,0,-1
EndSplineSet
EndChar

StartChar: two
Encoding: 50 50 21
Width: 500
GlyphClass: 2
Flags: W
FFAnchorPoint: "Anchor-5" 446 0 basechar 0
FFAnchorPoint: "Anchor-4" 446 735 basechar 0
FFAnchorPoint: "Anchor-3" 250 367 basechar 0
FFAnchorPoint: "Anchor-2" 250 382 basechar 0
FFAnchorPoint: "Anchor-1" 250 0 basechar 0
FFAnchorPoint: "Anchor-0" 250 735 basechar 0
LayerCount: 2
Fore
SplineSet
54 0 m 1,0,-1
 54 1 l 2,1,2
 54 141 54 141 98 217 c 0,3,4
 132 277 132 277 229 357 c 0,5,6
 301 417 301 417 325.5 459 c 128,-1,7
 350 501 350 501 350 543 c 0,8,9
 350 579 350 579 334 606 c 0,10,11
 322 628 322 628 300 640.5 c 128,-1,12
 278 653 278 653 248 653 c 256,13,14
 218 653 218 653 196 640.5 c 128,-1,15
 174 628 174 628 162 605 c 1,16,17
 150 585 150 585 147 560 c 1,18,-1
 49 580 l 1,19,20
 55 619 55 619 74 651 c 0,21,22
 98 693 98 693 139 717 c 0,23,24
 184 743 184 743 248 743 c 0,25,26
 311 743 311 743 357 717 c 0,27,28
 398 693 398 693 422 651 c 0,29,30
 450 602 450 602 450 543 c 128,-1,31
 450 484 450 484 417 426 c 0,32,33
 388 377 388 377 305 304 c 0,34,35
 222 232 222 232 191 179 c 0,36,37
 170 142 170 142 161 90 c 1,38,-1
 446 90 l 1,39,-1
 446 0 l 1,40,-1
 54 0 l 1,0,-1
EndSplineSet
EndChar

StartChar: three
Encoding: 51 51 22
Width: 500
GlyphClass: 2
Flags: W
FFAnchorPoint: "Anchor-5" 446 0 basechar 0
FFAnchorPoint: "Anchor-4" 446 735 basechar 0
FFAnchorPoint: "Anchor-3" 250 367 basechar 0
FFAnchorPoint: "Anchor-2" 250 382 basechar 0
FFAnchorPoint: "Anchor-1" 250 0 basechar 0
FFAnchorPoint: "Anchor-0" 250 735 basechar 0
LayerCount: 2
Fore
SplineSet
248 0 m 256,0,1
 185 0 185 0 140 26 c 0,2,3
 98 50 98 50 72 94 c 0,4,5
 56 123 56 123 49 155 c 1,6,-1
 144 182 l 1,7,8
 149 159 149 159 160 140 c 0,9,10
 173 116 173 116 196 103 c 128,-1,11
 219 90 219 90 248 90 c 256,12,13
 277 90 277 90 299 102.5 c 128,-1,14
 321 115 321 115 335 140 c 0,15,16
 354 172 354 172 354 221 c 128,-1,17
 354 270 354 270 335 302 c 0,18,19
 321 326 321 326 299.5 338.5 c 128,-1,20
 278 351 278 351 250 351 c 2,21,-1
 152 351 l 1,22,-1
 152 441 l 1,23,-1
 316 645 l 1,24,-1
 54 645 l 1,25,-1
 54 735 l 1,26,-1
 436 735 l 1,27,-1
 436 645 l 1,28,-1
 272 440 l 1,29,30
 320 436 320 436 357 415 c 0,31,32
 399 391 399 391 424 347 c 0,33,34
 454 295 454 295 454 221 c 0,35,36
 454 146 454 146 424 94 c 0,37,38
 399 51 399 51 356 26 c 0,39,40
 311 0 311 0 248 0 c 256,0,1
EndSplineSet
Substitution2: "'ss10' Style Set 10 lookup 133 subtable" three.ss10
Substitution2: "'ss11' Style Set 11 lookup 132 subtable" three.ss11
EndChar

StartChar: four
Encoding: 52 52 23
Width: 500
GlyphClass: 2
Flags: W
FFAnchorPoint: "Anchor-5" 446 0 basechar 0
FFAnchorPoint: "Anchor-4" 446 735 basechar 0
FFAnchorPoint: "Anchor-3" 250 367 basechar 0
FFAnchorPoint: "Anchor-2" 250 382 basechar 0
FFAnchorPoint: "Anchor-1" 250 0 basechar 0
FFAnchorPoint: "Anchor-0" 250 735 basechar 0
LayerCount: 2
Fore
SplineSet
277 0 m 1,0,-1
 277 204 l 1,1,-1
 46 204 l 1,2,-1
 46 294 l 1,3,-1
 255 735 l 1,4,-1
 377 735 l 1,5,-1
 377 294 l 1,6,-1
 446 294 l 1,7,-1
 446 204 l 1,8,-1
 377 204 l 1,9,-1
 377 0 l 1,10,-1
 277 0 l 1,0,-1
144 294 m 1,11,-1
 277 294 l 1,12,-1
 277 574 l 1,13,-1
 144 294 l 1,11,-1
EndSplineSet
EndChar

StartChar: five
Encoding: 53 53 24
Width: 500
GlyphClass: 2
Flags: W
FFAnchorPoint: "Anchor-5" 446 0 basechar 0
FFAnchorPoint: "Anchor-4" 446 735 basechar 0
FFAnchorPoint: "Anchor-3" 250 367 basechar 0
FFAnchorPoint: "Anchor-2" 250 382 basechar 0
FFAnchorPoint: "Anchor-1" 250 0 basechar 0
FFAnchorPoint: "Anchor-0" 250 735 basechar 0
LayerCount: 2
Fore
SplineSet
247 -8 m 256,0,1
 188 -8 188 -8 145 17 c 128,-1,2
 102 42 102 42 75 88 c 0,3,4
 57 119 57 119 49 155 c 1,5,-1
 142 188 l 1,6,7
 148 157 148 157 162 134 c 1,8,9
 177 107 177 107 200 94 c 0,10,11
 220 82 220 82 247 82 c 256,12,13
 274 82 274 82 293 94 c 1,14,15
 316 106 316 106 331 132 c 0,16,17
 354 173 354 173 354 236 c 128,-1,18
 354 299 354 299 331 340 c 0,19,20
 316 365 316 365 295 378 c 1,21,22
 276 388 276 388 251 388 c 256,23,24
 226 388 226 388 206 377 c 0,25,26
 184 364 184 364 169 338 c 0,27,28
 159 322 159 322 153 300 c 1,29,-1
 64 340 l 1,30,-1
 64 735 l 1,31,-1
 426 735 l 1,32,-1
 426 645 l 1,33,-1
 164 645 l 1,34,-1
 164 460 l 1,35,36
 202 478 202 478 251 478 c 0,37,38
 308 478 308 478 350 454 c 0,39,40
 393 429 393 429 419 384 c 0,41,42
 454 324 454 324 454 235 c 0,43,44
 454 148 454 148 420 88 c 0,45,46
 393 42 393 42 350 17 c 0,47,48
 306 -8 306 -8 247 -8 c 256,0,1
EndSplineSet
EndChar

StartChar: six
Encoding: 54 54 25
Width: 500
GlyphClass: 2
Flags: W
FFAnchorPoint: "Anchor-5" 446 0 basechar 0
FFAnchorPoint: "Anchor-4" 446 735 basechar 0
FFAnchorPoint: "Anchor-3" 250 367 basechar 0
FFAnchorPoint: "Anchor-2" 250 382 basechar 0
FFAnchorPoint: "Anchor-1" 250 0 basechar 0
FFAnchorPoint: "Anchor-0" 250 735 basechar 0
LayerCount: 2
Fore
SplineSet
250 -8 m 256,0,1
 190 -8 190 -8 146.5 17 c 128,-1,2
 103 42 103 42 78 86 c 0,3,4
 46 141 46 141 46 220 c 0,5,6
 46 429 46 429 119 556 c 0,7,8
 173 649 173 649 264 702 c 0,9,10
 300 723 300 723 337 735 c 1,11,-1
 369 650 l 1,12,13
 345 641 345 641 324 628 c 0,14,15
 250 586 250 586 208 511 c 1,16,17
 185 473 185 473 171 423 c 1,18,19
 178 429 178 429 185 433 c 0,20,21
 213 449 213 449 254 449 c 0,22,23
 310 449 310 449 354 424 c 0,24,25
 397 399 397 399 422 355 c 0,26,27
 454 300 454 300 454 220.5 c 128,-1,28
 454 141 454 141 422 86 c 0,29,30
 397 42 397 42 353.5 17 c 128,-1,31
 310 -8 310 -8 250 -8 c 256,0,1
250 82 m 256,32,33
 277 82 277 82 297 94 c 0,34,35
 319 106 319 106 334 131 c 0,36,37
 354 167 354 167 354 220 c 0,38,39
 354 276 354 276 333 311 c 1,40,41
 320 335 320 335 298 348 c 0,42,43
 278 359 278 359 251 359 c 256,44,45
 224 359 224 359 203 347 c 0,46,47
 181 334 181 334 166 309 c 0,48,49
 146 274 146 274 146 220.5 c 128,-1,50
 146 167 146 167 166 131 c 0,51,52
 181 106 181 106 203 94 c 0,53,54
 223 82 223 82 250 82 c 256,32,33
EndSplineSet
EndChar

StartChar: seven
Encoding: 55 55 26
Width: 500
GlyphClass: 2
Flags: W
FFAnchorPoint: "Anchor-5" 446 0 basechar 0
FFAnchorPoint: "Anchor-4" 446 735 basechar 0
FFAnchorPoint: "Anchor-3" 250 367 basechar 0
FFAnchorPoint: "Anchor-2" 250 382 basechar 0
FFAnchorPoint: "Anchor-1" 250 0 basechar 0
FFAnchorPoint: "Anchor-0" 250 735 basechar 0
LayerCount: 2
Fore
SplineSet
110 0 m 1,0,-1
 339 645 l 1,1,-1
 54 645 l 1,2,-1
 54 735 l 1,3,-1
 446 735 l 1,4,-1
 446 645 l 1,5,-1
 217 0 l 1,6,-1
 110 0 l 1,0,-1
EndSplineSet
EndChar

StartChar: eight
Encoding: 56 56 27
Width: 500
GlyphClass: 2
Flags: W
FFAnchorPoint: "Anchor-5" 446 0 basechar 0
FFAnchorPoint: "Anchor-4" 446 735 basechar 0
FFAnchorPoint: "Anchor-3" 250 367 basechar 0
FFAnchorPoint: "Anchor-2" 250 382 basechar 0
FFAnchorPoint: "Anchor-1" 250 0 basechar 0
FFAnchorPoint: "Anchor-0" 250 735 basechar 0
LayerCount: 2
Fore
SplineSet
250 -8 m 256,0,1
 183 -8 183 -8 136 19 c 0,2,3
 95 43 95 43 72 83 c 0,4,5
 46 128 46 128 46 184 c 0,6,7
 46 237 46 237 74 286 c 0,8,9
 100 330 100 330 168 377 c 1,10,11
 113 418 113 418 90 457 c 0,12,13
 62 506 62 506 62 559 c 0,14,15
 62 614 62 614 88 658 c 0,16,17
 110 696 110 696 148 719 c 1,18,19
 191 743 191 743 250 743 c 256,20,21
 309 743 309 743 352 719 c 1,22,23
 390 696 390 696 412 658 c 0,24,25
 438 614 438 614 438 559 c 0,26,27
 438 506 438 506 410 457 c 0,28,29
 387 418 387 418 332 377 c 1,30,31
 400 330 400 330 426 286 c 0,32,33
 454 237 454 237 454 184 c 0,34,35
 454 128 454 128 428 83 c 0,36,37
 405 43 405 43 364 19 c 0,38,39
 317 -8 317 -8 250 -8 c 256,0,1
250 82 m 256,40,41
 283 82 283 82 307 96 c 0,42,43
 328 108 328 108 340 129 c 0,44,45
 354 153 354 153 354 183 c 0,46,47
 354 215 354 215 336 246 c 0,48,49
 316 282 316 282 250 324 c 1,50,51
 184 282 184 282 164 246 c 0,52,53
 146 215 146 215 146 183 c 0,54,55
 146 153 146 153 160 129 c 0,56,57
 172 108 172 108 193 96 c 0,58,59
 217 82 217 82 250 82 c 256,40,41
250 429 m 1,60,61
 302 465 302 465 320 496 c 256,62,63
 338 527 338 527 338 559 c 0,64,65
 338 590 338 590 324 613 c 0,66,67
 314 631 314 631 295 642 c 128,-1,68
 276 653 276 653 250 653 c 256,69,70
 224 653 224 653 205 642 c 128,-1,71
 186 631 186 631 176 613 c 0,72,73
 162 590 162 590 162 559 c 0,74,75
 162 527 162 527 180 496 c 256,76,77
 198 465 198 465 250 429 c 1,60,61
EndSplineSet
EndChar

StartChar: nine
Encoding: 57 57 28
Width: 500
GlyphClass: 2
Flags: W
FFAnchorPoint: "Anchor-5" 446 0 basechar 0
FFAnchorPoint: "Anchor-4" 446 735 basechar 0
FFAnchorPoint: "Anchor-3" 250 367 basechar 0
FFAnchorPoint: "Anchor-2" 250 382 basechar 0
FFAnchorPoint: "Anchor-1" 250 0 basechar 0
FFAnchorPoint: "Anchor-0" 250 735 basechar 0
LayerCount: 2
Fore
SplineSet
245 -8 m 0,0,1
 190 -8 190 -8 147 16 c 1,2,3
 103 42 103 42 76 90 c 1,4,5
 58 119 58 119 49 155 c 1,6,-1
 139 195 l 1,7,8
 146 161 146 161 161 135 c 0,9,10
 177 107 177 107 200 93 c 1,11,12
 220 82 220 82 245 82 c 256,13,14
 270 82 270 82 289 93 c 0,15,16
 311 106 311 106 327 133 c 0,17,18
 354 180 354 180 354 257 c 2,19,-1
 354 309 l 1,20,21
 337 288 337 288 315 276 c 1,22,23
 287 259 287 259 246 259 c 0,24,25
 190 259 190 259 145 285 c 0,26,27
 103 310 103 310 78 354 c 0,28,29
 46 408 46 408 46 487 c 2,30,-1
 46 515 l 2,31,32
 46 594 46 594 78 649 c 0,33,34
 103 693 103 693 146 718 c 128,-1,35
 189 743 189 743 249 743 c 0,36,37
 308 743 308 743 350 718 c 1,38,39
 393 694 393 694 420 648 c 0,40,41
 454 588 454 588 454 501 c 2,42,-1
 454 257 l 2,43,44
 454 156 454 156 415 90 c 1,45,46
 388 42 388 42 344 16 c 1,47,48
 301 -8 301 -8 245 -8 c 0,0,1
249 349 m 256,49,50
 276 349 276 349 297 361 c 0,51,52
 319 374 319 374 334 399 c 0,53,54
 354 434 354 434 354 487 c 2,55,-1
 354 501 l 2,56,57
 354 564 354 564 331 604 c 0,58,59
 316 629 316 629 294 642 c 0,60,61
 275 653 275 653 249 653 c 256,62,63
 223 653 223 653 202 641 c 128,-1,64
 181 629 181 629 166 604 c 0,65,66
 146 569 146 569 146 515 c 2,67,-1
 146 487 l 2,68,69
 146 433 146 433 166 398 c 0,70,71
 181 373 181 373 202 361 c 0,72,73
 222 349 222 349 249 349 c 256,49,50
EndSplineSet
EndChar

StartChar: colon
Encoding: 58 58 29
Width: 500
GlyphClass: 2
Flags: W
LayerCount: 2
Fore
SplineSet
250 357 m 256,0,1
 221 357 221 357 200 369 c 0,2,3
 182 379 182 379 171 398 c 0,4,5
 159 419 159 419 160 448 c 1,6,7
 159 476 159 476 171 497 c 0,8,9
 182 516 182 516 200 526 c 0,10,11
 221 538 221 538 250 538 c 256,12,13
 279 538 279 538 300 526 c 0,14,15
 318 516 318 516 329 497 c 0,16,17
 340 477 340 477 341 448 c 1,18,19
 340 418 340 418 329 398 c 0,20,21
 318 379 318 379 300 369 c 0,22,23
 279 357 279 357 250 357 c 256,0,1
250 -8 m 256,24,25
 221 -8 221 -8 200 4 c 0,26,27
 182 14 182 14 171 33 c 0,28,29
 159 54 159 54 160 83 c 1,30,31
 159 111 159 111 171 132 c 0,32,33
 182 151 182 151 200 161 c 0,34,35
 221 173 221 173 250 173 c 256,36,37
 279 173 279 173 300 161 c 0,38,39
 318 151 318 151 329 132 c 0,40,41
 340 112 340 112 341 83 c 1,42,43
 340 53 340 53 329 33 c 0,44,45
 318 14 318 14 300 4 c 0,46,47
 279 -8 279 -8 250 -8 c 256,24,25
EndSplineSet
Substitution2: "Single Substitution lookup 85 subtable" glyph3085
Substitution2: "Single Substitution lookup 49 subtable" glyph3086
Substitution2: "Single Substitution lookup 48 subtable" glyph3087
Substitution2: "Single Substitution lookup 47 subtable" glyph3084
Substitution2: "Single Substitution lookup 45 subtable" glyph3085
Substitution2: "Single Substitution lookup 41 subtable" glyph3085
EndChar

StartChar: semicolon
Encoding: 59 59 30
Width: 500
GlyphClass: 2
Flags: W
LayerCount: 2
Fore
SplineSet
250 357 m 256,0,1
 221 357 221 357 200 369 c 0,2,3
 182 379 182 379 171 398 c 0,4,5
 159 419 159 419 160 448 c 1,6,7
 159 476 159 476 171 497 c 0,8,9
 182 516 182 516 200 526 c 0,10,11
 221 538 221 538 250 538 c 256,12,13
 279 538 279 538 300 526 c 0,14,15
 318 516 318 516 329 497 c 0,16,17
 340 477 340 477 341 448 c 1,18,19
 340 418 340 418 329 398 c 0,20,21
 318 379 318 379 300 369 c 0,22,23
 279 357 279 357 250 357 c 256,0,1
225 -205 m 1,24,-1
 154 -153 l 1,25,26
 181 -119 181 -119 200 -86 c 0,27,28
 223 -47 223 -47 235 -7 c 1,29,30
 216 -5 216 -5 200 4 c 0,31,32
 182 14 182 14 171 33 c 0,33,34
 159 54 159 54 160 83 c 1,35,36
 159 111 159 111 171 132 c 0,37,38
 182 151 182 151 200 161 c 0,39,40
 221 173 221 173 250 173 c 256,41,42
 279 173 279 173 300 161 c 0,43,44
 318 151 318 151 329 132 c 0,45,46
 340 112 340 112 341 82 c 1,47,48
 340 -21 340 -21 281 -124 c 0,49,50
 257 -166 257 -166 225 -205 c 1,24,-1
EndSplineSet
EndChar

StartChar: less
Encoding: 60 60 31
Width: 500
GlyphClass: 2
Flags: W
FFAnchorPoint: "Anchor-5" 446 0 basechar 0
FFAnchorPoint: "Anchor-4" 446 530 basechar 0
FFAnchorPoint: "Anchor-3" 250 365 basechar 0
FFAnchorPoint: "Anchor-2" 250 373 basechar 0
FFAnchorPoint: "Anchor-1" 250 149 basechar 0
FFAnchorPoint: "Anchor-0" 250 580 basechar 0
LayerCount: 2
Fore
SplineSet
422 112 m 1,0,-1
 54 314 l 1,1,-1
 54 416 l 1,2,-1
 422 618 l 1,3,-1
 470 539 l 1,4,-1
 149 365 l 1,5,-1
 470 191 l 1,6,-1
 422 112 l 1,0,-1
EndSplineSet
Substitution2: "Single Substitution lookup 98 subtable" glyph3185
Substitution2: "Single Substitution lookup 97 subtable" glyph3190
Substitution2: "Single Substitution lookup 96 subtable" glyph3192
Substitution2: "Single Substitution lookup 86 subtable" glyph3187
Substitution2: "Single Substitution lookup 56 subtable" glyph3164
EndChar

StartChar: equal
Encoding: 61 61 32
Width: 500
GlyphClass: 2
Flags: W
FFAnchorPoint: "Anchor-5" 446 0 basechar 0
FFAnchorPoint: "Anchor-4" 446 530 basechar 0
FFAnchorPoint: "Anchor-3" 250 365 basechar 0
FFAnchorPoint: "Anchor-2" 250 373 basechar 0
FFAnchorPoint: "Anchor-1" 250 149 basechar 0
FFAnchorPoint: "Anchor-0" 250 580 basechar 0
LayerCount: 2
Fore
SplineSet
54 427 m 1,0,-1
 54 517 l 1,1,-1
 446 517 l 1,2,-1
 446 427 l 1,3,-1
 54 427 l 1,0,-1
54 213 m 1,4,-1
 54 303 l 1,5,-1
 446 303 l 1,6,-1
 446 213 l 1,7,-1
 54 213 l 1,4,-1
EndSplineSet
Substitution2: "Single Substitution lookup 95 subtable" glyph3246
Substitution2: "Single Substitution lookup 94 subtable" glyph3240
Substitution2: "Single Substitution lookup 92 subtable" glyph3229
Substitution2: "Single Substitution lookup 91 subtable" glyph3239
Substitution2: "Single Substitution lookup 89 subtable" glyph3245
Substitution2: "Single Substitution lookup 87 subtable" glyph3230
Substitution2: "Single Substitution lookup 79 subtable" glyph3249
Substitution2: "Single Substitution lookup 72 subtable" glyph3224
Substitution2: "Single Substitution lookup 71 subtable" glyph3238
Substitution2: "Single Substitution lookup 70 subtable" glyph3241
Substitution2: "Single Substitution lookup 69 subtable" glyph3242
Substitution2: "Single Substitution lookup 66 subtable" glyph3225
Substitution2: "Single Substitution lookup 65 subtable" glyph3237
Substitution2: "Single Substitution lookup 64 subtable" glyph3243
Substitution2: "Single Substitution lookup 63 subtable" glyph3244
Substitution2: "Single Substitution lookup 62 subtable" glyph3247
Substitution2: "Single Substitution lookup 61 subtable" glyph3226
Substitution2: "Single Substitution lookup 60 subtable" glyph3248
Substitution2: "Single Substitution lookup 59 subtable" glyph3227
EndChar

StartChar: greater
Encoding: 62 62 33
Width: 500
GlyphClass: 2
Flags: W
FFAnchorPoint: "Anchor-5" 446 0 basechar 0
FFAnchorPoint: "Anchor-4" 446 530 basechar 0
FFAnchorPoint: "Anchor-3" 250 365 basechar 0
FFAnchorPoint: "Anchor-2" 250 373 basechar 0
FFAnchorPoint: "Anchor-1" 250 149 basechar 0
FFAnchorPoint: "Anchor-0" 250 580 basechar 0
LayerCount: 2
Fore
SplineSet
78 112 m 1,0,-1
 30 191 l 1,1,-1
 351 365 l 1,2,-1
 30 539 l 1,3,-1
 78 618 l 1,4,-1
 446 416 l 1,5,-1
 446 314 l 1,6,-1
 78 112 l 1,0,-1
EndSplineSet
Substitution2: "Single Substitution lookup 100 subtable" glyph3180
Substitution2: "Single Substitution lookup 99 subtable" glyph3175
Substitution2: "Single Substitution lookup 93 subtable" glyph3177
Substitution2: "Single Substitution lookup 88 subtable" glyph3182
Substitution2: "Single Substitution lookup 58 subtable" glyph3166
EndChar

StartChar: question
Encoding: 63 63 34
Width: 500
GlyphClass: 2
Flags: W
LayerCount: 2
Fore
SplineSet
200 221 m 1,0,1
 200 306 200 306 230 359 c 0,2,3
 245 384 245 384 279 425 c 0,4,5
 311 465 311 465 324 486 c 1,6,7
 346 525 346 525 346 561 c 0,8,9
 346 588 346 588 334 609 c 0,10,11
 323 628 323 628 303 640 c 0,12,13
 280 653 280 653 247 653 c 0,14,15
 212 653 212 653 188 639 c 0,16,17
 169 628 169 628 158 609 c 0,18,19
 148 592 148 592 147 569 c 1,20,-1
 147 568 l 1,21,-1
 148 565 l 1,22,-1
 49 580 l 1,23,24
 50 619 50 619 70 656 c 1,25,26
 93 694 93 694 131 716 c 0,27,28
 178 743 178 743 247 743 c 0,29,30
 313 743 313 743 359 716 c 0,31,32
 399 693 399 693 421 654 c 1,33,34
 446 612 446 612 446 559 c 0,35,36
 446 501 446 501 414 446 c 0,37,38
 400 420 400 420 364 377 c 0,39,40
 334 340 334 340 323 321 c 0,41,42
 300 282 300 282 300 221 c 1,43,-1
 200 221 l 1,0,1
250 -8 m 256,44,45
 225 -8 225 -8 207 2 c 0,46,47
 192 11 192 11 182 27 c 0,48,49
 172 45 172 45 172 70 c 128,-1,50
 172 95 172 95 182 113 c 0,51,52
 192 129 192 129 207 138 c 0,53,54
 225 148 225 148 250 148 c 256,55,56
 275 148 275 148 293 138 c 0,57,58
 308 129 308 129 318 113 c 0,59,60
 328 95 328 95 328 70 c 128,-1,61
 328 45 328 45 318 27 c 0,62,63
 308 11 308 11 293 2 c 0,64,65
 275 -8 275 -8 250 -8 c 256,44,45
EndSplineSet
EndChar

StartChar: at
Encoding: 64 64 35
Width: 500
GlyphClass: 2
Flags: W
LayerCount: 2
Fore
SplineSet
250 -176 m 2,0,1
 190 -176 190 -176 147 -151 c 0,2,3
 107 -128 107 -128 83 -86 c 0,4,5
 54 -36 54 -36 54 35 c 2,6,-1
 54 695 l 2,7,8
 54 766 54 766 83 816 c 0,9,10
 107 858 107 858 147 881 c 0,11,12
 191 906 191 906 250 906 c 256,13,14
 309 906 309 906 353 881 c 0,15,16
 393 858 393 858 417 816 c 0,17,18
 446 766 446 766 446 695 c 2,19,-1
 446 185 l 2,20,21
 446 130 446 130 425 92 c 0,22,23
 409 65 409 65 384 51 c 0,24,25
 360 37 360 37 328 37 c 0,26,27
 292 37 292 37 265 52.5 c 128,-1,28
 238 68 238 68 222 96 c 0,29,30
 201 132 201 132 201 185 c 2,31,-1
 201 492 l 2,32,33
 201 545 201 545 222 580 c 0,34,35
 238 608 238 608 264 624 c 0,36,37
 292 640 292 640 328 640 c 2,38,-1
 352 640 l 1,39,-1
 352 695 l 2,40,41
 352 739 352 739 335 768 c 0,42,43
 322 791 322 791 300 804 c 0,44,45
 279 816 279 816 250 816 c 256,46,47
 221 816 221 816 200 804 c 0,48,49
 178 791 178 791 165 768 c 0,50,51
 148 739 148 739 148 695 c 2,52,-1
 148 35 l 2,53,54
 148 -9 148 -9 165 -38 c 0,55,56
 178 -61 178 -61 199.5 -73.5 c 128,-1,57
 221 -86 221 -86 250 -86 c 2,58,-1
 401 -86 l 1,59,-1
 401 -176 l 1,60,-1
 250 -176 l 2,0,1
327 121 m 0,61,62
 334 121 334 121 338 126 c 0,63,64
 352 140 352 140 352 185 c 2,65,-1
 352 555 l 1,66,-1
 328 555 l 2,67,68
 318 555 318 555 311 548 c 0,69,70
 295 532 295 532 295 492 c 2,71,-1
 295 185 l 2,72,73
 295 145 295 145 311 129 c 0,74,75
 318 121 318 121 327 121 c 0,61,62
EndSplineSet
Substitution2: "'ss05' Style Set 5 lookup 138 subtable" at.ss05
Substitution2: "'ss07' Style Set 7 lookup 137 subtable" at.ss07
Substitution2: "'ss11' Style Set 11 lookup 136 subtable" at.ss11
EndChar

StartChar: A
Encoding: 65 65 36
Width: 500
GlyphClass: 2
Flags: W
FFAnchorPoint: "Anchor-6" 402 0 basechar 0
FFAnchorPoint: "Anchor-5" 446 0 basechar 0
FFAnchorPoint: "Anchor-4" 446 735 basechar 0
FFAnchorPoint: "Anchor-3" 250 367 basechar 0
FFAnchorPoint: "Anchor-2" 250 382 basechar 0
FFAnchorPoint: "Anchor-1" 250 0 basechar 0
FFAnchorPoint: "Anchor-0" 250 735 basechar 0
LayerCount: 2
Fore
SplineSet
54 0 m 1,0,-1
 54 74 l 2,1,2
 54 273 54 273 200 735 c 1,3,-1
 300 735 l 1,4,5
 446 273 446 273 446 74 c 2,6,-1
 446 0 l 1,7,-1
 346 0 l 1,8,-1
 346 74 l 2,9,10
 346 118 346 118 340 175 c 1,11,-1
 160 175 l 1,12,13
 154 118 154 118 154 74 c 2,14,-1
 154 0 l 1,15,-1
 54 0 l 1,0,-1
173 265 m 1,16,-1
 327 265 l 1,17,18
 303 409 303 409 250 616 c 1,19,20
 197 409 197 409 173 265 c 1,16,-1
EndSplineSet
EndChar

StartChar: B
Encoding: 66 66 37
Width: 500
GlyphClass: 2
Flags: W
FFAnchorPoint: "Anchor-5" 446 0 basechar 0
FFAnchorPoint: "Anchor-4" 446 735 basechar 0
FFAnchorPoint: "Anchor-3" 250 367 basechar 0
FFAnchorPoint: "Anchor-2" 250 382 basechar 0
FFAnchorPoint: "Anchor-1" 250 0 basechar 0
FFAnchorPoint: "Anchor-0" 250 735 basechar 0
LayerCount: 2
Fore
SplineSet
54 0 m 1,0,-1
 54 735 l 1,1,-1
 240 735 l 2,2,3
 297 735 297 735 339 711 c 0,4,5
 377 689 377 689 400 649 c 0,6,7
 427 603 427 603 427 538 c 0,8,9
 427 481 427 481 404 443 c 1,10,11
 384 407 384 407 346 385 c 1,12,13
 357 380 357 380 366 375 c 0,14,15
 407 351 407 351 430 311 c 0,16,17
 454 270 454 270 454 212 c 0,18,19
 454 145 454 145 426 97 c 0,20,21
 401 53 401 53 358 28 c 0,22,23
 309 0 309 0 240 0 c 2,24,-1
 54 0 l 1,0,-1
240 427 m 2,25,26
 263 427 263 427 281.5 437.5 c 128,-1,27
 300 448 300 448 311 468 c 0,28,29
 327 495 327 495 327 536 c 128,-1,30
 327 577 327 577 311 604 c 0,31,32
 300 624 300 624 282 634.5 c 128,-1,33
 264 645 264 645 240 645 c 2,34,-1
 154 645 l 1,35,-1
 154 427 l 1,36,-1
 240 427 l 2,25,26
154 90 m 1,37,-1
 240 90 l 2,38,39
 275 90 275 90 300 105 c 0,40,41
 323 118 323 118 337 142 c 0,42,43
 354 171 354 171 354 213 c 128,-1,44
 354 255 354 255 337 285 c 0,45,46
 323 309 323 309 300 323 c 1,47,48
 274 337 274 337 240 337 c 2,49,-1
 154 337 l 1,50,-1
 154 90 l 1,37,-1
EndSplineSet
EndChar

StartChar: C
Encoding: 67 67 38
Width: 500
GlyphClass: 2
Flags: W
FFAnchorPoint: "Anchor-5" 446 0 basechar 0
FFAnchorPoint: "Anchor-4" 446 735 basechar 0
FFAnchorPoint: "Anchor-3" 250 367 basechar 0
FFAnchorPoint: "Anchor-2" 250 382 basechar 0
FFAnchorPoint: "Anchor-1" 250 0 basechar 0
FFAnchorPoint: "Anchor-0" 250 735 basechar 0
LayerCount: 2
Fore
SplineSet
250 -8 m 256,0,1
 186 -8 186 -8 140 19 c 0,2,3
 98 43 98 43 75 84 c 1,4,5
 46 133 46 133 46 203 c 2,6,-1
 46 532 l 2,7,8
 46 602 46 602 75 651 c 1,9,10
 98 692 98 692 140 716 c 0,11,12
 186 743 186 743 250 743 c 256,13,14
 314 743 314 743 360 716 c 0,15,16
 402 692 402 692 426 650 c 0,17,18
 445 618 445 618 451 580 c 1,19,-1
 354 559 l 1,20,21
 350 584 350 584 339 604 c 0,22,23
 325 628 325 628 303 640.5 c 128,-1,24
 281 653 281 653 250 653 c 0,25,26
 220 653 220 653 198 640.5 c 128,-1,27
 176 628 176 628 163 605 c 0,28,29
 146 575 146 575 146 532 c 2,30,-1
 146 203 l 2,31,32
 146 143 146 143 179 109 c 0,33,34
 188 101 188 101 198 95 c 0,35,36
 220 82 220 82 250 82 c 0,37,38
 281 82 281 82 303 94.5 c 128,-1,39
 325 107 325 107 339 131 c 0,40,41
 350 151 350 151 354 176 c 1,42,-1
 451 155 l 1,43,44
 445 117 445 117 426 85 c 0,45,46
 402 43 402 43 360 19 c 0,47,48
 314 -8 314 -8 250 -8 c 256,0,1
EndSplineSet
EndChar

StartChar: D
Encoding: 68 68 39
Width: 500
GlyphClass: 2
Flags: W
FFAnchorPoint: "Anchor-5" 446 0 basechar 0
FFAnchorPoint: "Anchor-4" 446 735 basechar 0
FFAnchorPoint: "Anchor-3" 250 367 basechar 0
FFAnchorPoint: "Anchor-2" 250 382 basechar 0
FFAnchorPoint: "Anchor-1" 250 0 basechar 0
FFAnchorPoint: "Anchor-0" 250 735 basechar 0
LayerCount: 2
Fore
SplineSet
54 0 m 1,0,-1
 54 735 l 1,1,-1
 223 735 l 2,2,3
 288 735 288 735 338 706 c 0,4,5
 385 679 385 679 415 627 c 0,6,7
 454 560 454 560 454 461 c 2,8,-1
 454 274 l 2,9,10
 454 175 454 175 415 108 c 0,11,12
 385 56 385 56 338 29 c 0,13,14
 288 0 288 0 223 0 c 2,15,-1
 54 0 l 1,0,-1
154 90 m 1,16,-1
 223 90 l 2,17,18
 255 90 255 90 281 105 c 0,19,20
 308 120 308 120 327 152 c 0,21,22
 354 200 354 200 354 274 c 2,23,-1
 354 461 l 2,24,25
 354 535 354 535 327 583 c 0,26,27
 308 615 308 615 281 630 c 0,28,29
 255 645 255 645 223 645 c 2,30,-1
 154 645 l 1,31,-1
 154 90 l 1,16,-1
EndSplineSet
EndChar

StartChar: E
Encoding: 69 69 40
Width: 500
GlyphClass: 2
Flags: W
FFAnchorPoint: "Anchor-5" 446 0 basechar 0
FFAnchorPoint: "Anchor-4" 446 735 basechar 0
FFAnchorPoint: "Anchor-3" 250 367 basechar 0
FFAnchorPoint: "Anchor-2" 250 382 basechar 0
FFAnchorPoint: "Anchor-1" 250 0 basechar 0
FFAnchorPoint: "Anchor-0" 250 735 basechar 0
LayerCount: 2
Fore
SplineSet
81 0 m 1,0,-1
 81 735 l 1,1,-1
 446 735 l 1,2,-1
 446 645 l 1,3,-1
 181 645 l 1,4,-1
 181 442 l 1,5,-1
 387 442 l 1,6,-1
 387 352 l 1,7,-1
 181 352 l 1,8,-1
 181 90 l 1,9,-1
 446 90 l 1,10,-1
 446 0 l 1,11,-1
 81 0 l 1,0,-1
EndSplineSet
EndChar

StartChar: F
Encoding: 70 70 41
Width: 500
GlyphClass: 2
Flags: W
FFAnchorPoint: "Anchor-5" 446 0 basechar 0
FFAnchorPoint: "Anchor-4" 446 735 basechar 0
FFAnchorPoint: "Anchor-3" 250 367 basechar 0
FFAnchorPoint: "Anchor-2" 250 382 basechar 0
FFAnchorPoint: "Anchor-1" 250 0 basechar 0
FFAnchorPoint: "Anchor-0" 250 735 basechar 0
LayerCount: 2
Fore
SplineSet
81 0 m 1,0,-1
 81 735 l 1,1,-1
 446 735 l 1,2,-1
 446 645 l 1,3,-1
 181 645 l 1,4,-1
 181 442 l 1,5,-1
 387 442 l 1,6,-1
 387 352 l 1,7,-1
 181 352 l 1,8,-1
 181 0 l 1,9,-1
 81 0 l 1,0,-1
EndSplineSet
EndChar

StartChar: G
Encoding: 71 71 42
Width: 500
GlyphClass: 2
Flags: W
FFAnchorPoint: "Anchor-5" 446 0 basechar 0
FFAnchorPoint: "Anchor-4" 446 735 basechar 0
FFAnchorPoint: "Anchor-3" 250 367 basechar 0
FFAnchorPoint: "Anchor-2" 250 382 basechar 0
FFAnchorPoint: "Anchor-1" 250 0 basechar 0
FFAnchorPoint: "Anchor-0" 250 735 basechar 0
LayerCount: 2
Fore
SplineSet
249 -8 m 0,0,1
 186 -8 186 -8 140 18 c 1,2,3
 99 43 99 43 74 85 c 0,4,5
 46 134 46 134 46 203 c 2,6,-1
 46 532 l 2,7,8
 46 602 46 602 75 651 c 1,9,10
 98 692 98 692 140 716 c 0,11,12
 186 743 186 743 250 743 c 256,13,14
 314 743 314 743 360 716 c 0,15,16
 402 692 402 692 426 650 c 0,17,18
 445 618 445 618 451 580 c 1,19,-1
 354 559 l 1,20,21
 350 584 350 584 339 604 c 0,22,23
 325 628 325 628 303 640.5 c 128,-1,24
 281 653 281 653 250 653 c 0,25,26
 220 653 220 653 198 640.5 c 128,-1,27
 176 628 176 628 163 605 c 0,28,29
 146 575 146 575 146 532 c 2,30,-1
 146 203 l 2,31,32
 146 160 146 160 163 130 c 0,33,34
 176 107 176 107 198 94.5 c 128,-1,35
 220 82 220 82 249 82 c 0,36,37
 276 82 276 82 295 93 c 0,38,39
 316 105 316 105 328 127 c 1,40,41
 346 157 346 157 346 203 c 2,42,-1
 346 315 l 1,43,-1
 250 315 l 1,44,-1
 250 405 l 1,45,-1
 446 405 l 1,46,-1
 446 203 l 2,47,48
 446 132 446 132 417 82 c 0,49,50
 393 40 393 40 353 17 c 0,51,52
 309 -8 309 -8 249 -8 c 0,0,1
EndSplineSet
EndChar

StartChar: H
Encoding: 72 72 43
Width: 500
GlyphClass: 2
Flags: W
FFAnchorPoint: "Anchor-5" 446 0 basechar 0
FFAnchorPoint: "Anchor-4" 446 735 basechar 0
FFAnchorPoint: "Anchor-3" 250 367 basechar 0
FFAnchorPoint: "Anchor-2" 250 382 basechar 0
FFAnchorPoint: "Anchor-1" 250 0 basechar 0
FFAnchorPoint: "Anchor-0" 250 735 basechar 0
LayerCount: 2
Fore
SplineSet
54 0 m 1,0,-1
 54 735 l 1,1,-1
 154 735 l 1,2,-1
 154 431 l 1,3,-1
 346 431 l 1,4,-1
 346 735 l 1,5,-1
 446 735 l 1,6,-1
 446 0 l 1,7,-1
 346 0 l 1,8,-1
 346 341 l 1,9,-1
 154 341 l 1,10,-1
 154 0 l 1,11,-1
 54 0 l 1,0,-1
EndSplineSet
EndChar

StartChar: I
Encoding: 73 73 44
Width: 500
GlyphClass: 2
Flags: W
FFAnchorPoint: "Anchor-5" 446 0 basechar 0
FFAnchorPoint: "Anchor-4" 446 735 basechar 0
FFAnchorPoint: "Anchor-3" 250 367 basechar 0
FFAnchorPoint: "Anchor-2" 250 382 basechar 0
FFAnchorPoint: "Anchor-1" 250 0 basechar 0
FFAnchorPoint: "Anchor-0" 250 735 basechar 0
LayerCount: 2
Fore
SplineSet
110 0 m 1,0,-1
 110 90 l 1,1,-1
 200 90 l 1,2,-1
 200 645 l 1,3,-1
 110 645 l 1,4,-1
 110 735 l 1,5,-1
 390 735 l 1,6,-1
 390 645 l 1,7,-1
 300 645 l 1,8,-1
 300 90 l 1,9,-1
 390 90 l 1,10,-1
 390 0 l 1,11,-1
 110 0 l 1,0,-1
EndSplineSet
EndChar

StartChar: J
Encoding: 74 74 45
Width: 500
GlyphClass: 2
Flags: W
FFAnchorPoint: "Anchor-5" 446 0 basechar 0
FFAnchorPoint: "Anchor-4" 446 735 basechar 0
FFAnchorPoint: "Anchor-3" 250 367 basechar 0
FFAnchorPoint: "Anchor-2" 341 382 basechar 0
FFAnchorPoint: "Anchor-1" 250 0 basechar 0
FFAnchorPoint: "Anchor-0" 341 735 basechar 0
LayerCount: 2
Fore
SplineSet
224 -8 m 0,0,1
 167 -8 167 -8 125 16 c 0,2,3
 85 39 85 39 61 80 c 0,4,5
 41 115 41 115 36 155 c 1,6,-1
 133 177 l 1,7,8
 136 149 136 149 148.5 126.5 c 128,-1,9
 161 104 161 104 180.5 93 c 128,-1,10
 200 82 200 82 224 82 c 256,11,12
 248 82 248 82 267 93 c 128,-1,13
 286 104 286 104 299 125 c 1,14,15
 316 156 316 156 317 203 c 1,16,-1
 317 645 l 1,17,-1
 192 645 l 1,18,-1
 192 735 l 1,19,-1
 417 735 l 1,20,-1
 417 203 l 1,21,22
 416 130 416 130 387 80 c 0,23,24
 364 39 364 39 324 16 c 0,25,26
 282 -8 282 -8 224 -8 c 0,0,1
EndSplineSet
EndChar

StartChar: K
Encoding: 75 75 46
Width: 500
GlyphClass: 2
Flags: W
FFAnchorPoint: "Anchor-5" 446 0 basechar 0
FFAnchorPoint: "Anchor-4" 446 735 basechar 0
FFAnchorPoint: "Anchor-3" 250 367 basechar 0
FFAnchorPoint: "Anchor-2" 250 382 basechar 0
FFAnchorPoint: "Anchor-1" 250 0 basechar 0
FFAnchorPoint: "Anchor-0" 250 735 basechar 0
LayerCount: 2
Fore
SplineSet
54 0 m 1,0,-1
 54 735 l 1,1,-1
 154 735 l 1,2,-1
 154 420 l 1,3,4
 244 527 244 527 297 619 c 0,5,6
 341 694 341 694 341 735 c 1,7,-1
 446 735 l 1,8,9
 446 688 446 688 396 601 c 0,10,11
 355 531 355 531 298 456 c 1,12,13
 454 115 454 115 454 0 c 1,14,-1
 354 0 l 1,15,16
 354 99 354 99 232 374 c 1,17,18
 196 331 196 331 154 286 c 1,19,-1
 154 0 l 1,20,-1
 54 0 l 1,0,-1
EndSplineSet
EndChar

StartChar: L
Encoding: 76 76 47
Width: 500
GlyphClass: 2
Flags: W
FFAnchorPoint: "Anchor-5" 446 0 basechar 0
FFAnchorPoint: "Anchor-4" 446 735 basechar 0
FFAnchorPoint: "Anchor-3" 250 367 basechar 0
FFAnchorPoint: "Anchor-2" 250 382 basechar 0
FFAnchorPoint: "Anchor-1" 250 0 basechar 0
FFAnchorPoint: "Anchor-0" 250 735 basechar 0
LayerCount: 2
Fore
SplineSet
81 0 m 1,0,-1
 81 735 l 1,1,-1
 181 735 l 1,2,-1
 181 90 l 1,3,-1
 454 90 l 1,4,-1
 454 0 l 1,5,-1
 81 0 l 1,0,-1
EndSplineSet
EndChar

StartChar: M
Encoding: 77 77 48
Width: 500
GlyphClass: 2
Flags: W
FFAnchorPoint: "Anchor-5" 446 0 basechar 0
FFAnchorPoint: "Anchor-4" 446 735 basechar 0
FFAnchorPoint: "Anchor-3" 250 367 basechar 0
FFAnchorPoint: "Anchor-2" 250 382 basechar 0
FFAnchorPoint: "Anchor-1" 250 0 basechar 0
FFAnchorPoint: "Anchor-0" 250 735 basechar 0
LayerCount: 2
Fore
SplineSet
54 0 m 1,0,-1
 54 735 l 1,1,-1
 149 735 l 1,2,-1
 250 347 l 1,3,-1
 351 735 l 1,4,-1
 446 735 l 1,5,-1
 446 0 l 1,6,-1
 346 0 l 1,7,-1
 346 147 l 2,8,9
 346 283 346 283 363 441 c 0,10,11
 371 511 371 511 375 577 c 1,12,-1
 283 221 l 1,13,-1
 217 221 l 1,14,-1
 125 577 l 1,15,16
 129 511 129 511 137 441 c 0,17,18
 154 283 154 283 154 147 c 2,19,-1
 154 0 l 1,20,-1
 54 0 l 1,0,-1
EndSplineSet
EndChar

StartChar: N
Encoding: 78 78 49
Width: 500
GlyphClass: 2
Flags: W
FFAnchorPoint: "Anchor-5" 446 0 basechar 0
FFAnchorPoint: "Anchor-4" 446 735 basechar 0
FFAnchorPoint: "Anchor-3" 250 367 basechar 0
FFAnchorPoint: "Anchor-2" 250 382 basechar 0
FFAnchorPoint: "Anchor-1" 250 0 basechar 0
FFAnchorPoint: "Anchor-0" 250 735 basechar 0
LayerCount: 2
Fore
SplineSet
54 0 m 1,0,-1
 54 735 l 1,1,-1
 173 735 l 1,2,-1
 359 154 l 1,3,4
 358 187 358 187 355 221 c 0,5,6
 346 338 346 338 346 441 c 2,7,-1
 346 735 l 1,8,-1
 446 735 l 1,9,-1
 446 0 l 1,10,-1
 327 0 l 1,11,-1
 141 581 l 1,12,13
 142 548 142 548 145 514 c 0,14,15
 154 397 154 397 154 294 c 2,16,-1
 154 0 l 1,17,-1
 54 0 l 1,0,-1
EndSplineSet
EndChar

StartChar: O
Encoding: 79 79 50
Width: 500
GlyphClass: 2
Flags: W
FFAnchorPoint: "Anchor-5" 446 0 basechar 0
FFAnchorPoint: "Anchor-4" 446 735 basechar 0
FFAnchorPoint: "Anchor-3" 250 367 basechar 0
FFAnchorPoint: "Anchor-2" 250 382 basechar 0
FFAnchorPoint: "Anchor-1" 250 0 basechar 0
FFAnchorPoint: "Anchor-0" 250 735 basechar 0
LayerCount: 2
Fore
SplineSet
250 -8 m 256,0,1
 186 -8 186 -8 140 18 c 1,2,3
 99 43 99 43 74 85 c 0,4,5
 46 134 46 134 46 203 c 2,6,-1
 46 532 l 2,7,8
 46 601 46 601 74 650 c 0,9,10
 99 692 99 692 140 717 c 1,11,12
 186 743 186 743 250 743 c 256,13,14
 314 743 314 743 360 717 c 1,15,16
 401 692 401 692 426 650 c 0,17,18
 454 601 454 601 454 532 c 2,19,-1
 454 203 l 2,20,21
 454 134 454 134 426 85 c 0,22,23
 401 43 401 43 360 18 c 1,24,25
 314 -8 314 -8 250 -8 c 256,0,1
250 82 m 256,26,27
 280 82 280 82 302 94.5 c 128,-1,28
 324 107 324 107 337 130 c 0,29,30
 354 160 354 160 354 203 c 2,31,-1
 354 532 l 2,32,33
 354 575 354 575 337 605 c 0,34,35
 324 628 324 628 302 640.5 c 128,-1,36
 280 653 280 653 250 653 c 256,37,38
 220 653 220 653 198 640.5 c 128,-1,39
 176 628 176 628 163 605 c 0,40,41
 146 575 146 575 146 532 c 2,42,-1
 146 203 l 2,43,44
 146 160 146 160 163 130 c 0,45,46
 176 107 176 107 198 94.5 c 128,-1,47
 220 82 220 82 250 82 c 256,26,27
EndSplineSet
EndChar

StartChar: P
Encoding: 80 80 51
Width: 500
GlyphClass: 2
Flags: W
FFAnchorPoint: "Anchor-5" 446 0 basechar 0
FFAnchorPoint: "Anchor-4" 446 735 basechar 0
FFAnchorPoint: "Anchor-3" 250 367 basechar 0
FFAnchorPoint: "Anchor-2" 250 382 basechar 0
FFAnchorPoint: "Anchor-1" 250 0 basechar 0
FFAnchorPoint: "Anchor-0" 250 735 basechar 0
LayerCount: 2
Fore
SplineSet
68 0 m 1,0,-1
 68 735 l 1,1,-1
 249 735 l 2,2,3
 311 735 311 735 358 708 c 0,4,5
 400 684 400 684 424 641 c 1,6,7
 454 590 454 590 454 516 c 128,-1,8
 454 442 454 442 424 391 c 1,9,10
 400 348 400 348 358 323 c 1,11,12
 311 297 311 297 249 297 c 2,13,-1
 167 297 l 1,14,-1
 167 0 l 1,15,-1
 68 0 l 1,0,-1
249 387 m 2,16,17
 278 387 278 387 300 399.5 c 128,-1,18
 322 412 322 412 335 436 c 1,19,20
 354 468 354 468 354 516 c 128,-1,21
 354 564 354 564 335 596 c 0,22,23
 322 619 322 619 300 632 c 128,-1,24
 278 645 278 645 249 645 c 2,25,-1
 167 645 l 1,26,-1
 167 387 l 1,27,-1
 249 387 l 2,16,17
EndSplineSet
EndChar

StartChar: Q
Encoding: 81 81 52
Width: 500
GlyphClass: 2
Flags: W
FFAnchorPoint: "Anchor-5" 446 0 basechar 0
FFAnchorPoint: "Anchor-4" 446 735 basechar 0
FFAnchorPoint: "Anchor-3" 250 367 basechar 0
FFAnchorPoint: "Anchor-2" 250 382 basechar 0
FFAnchorPoint: "Anchor-1" 250 0 basechar 0
FFAnchorPoint: "Anchor-0" 250 735 basechar 0
LayerCount: 2
Fore
SplineSet
372 -155 m 2,0,1
 316 -155 316 -155 278 -133 c 0,2,3
 245 -114 245 -114 227 -82 c 0,4,5
 208 -49 208 -49 207 -5 c 1,6,7
 170 1 170 1 140 18 c 1,8,9
 99 43 99 43 74 85 c 0,10,11
 46 134 46 134 46 203 c 2,12,-1
 46 532 l 2,13,14
 46 601 46 601 74 650 c 0,15,16
 99 692 99 692 140 717 c 1,17,18
 186 743 186 743 250 743 c 256,19,20
 314 743 314 743 360 717 c 1,21,22
 401 692 401 692 426 650 c 0,23,24
 454 601 454 601 454 532 c 2,25,-1
 454 203 l 2,26,27
 454 134 454 134 426 85 c 0,28,29
 401 43 401 43 360 18 c 1,30,31
 336 5 336 5 307 -2 c 1,32,33
 307 -21 307 -21 315 -36 c 0,34,35
 323 -49 323 -49 336 -56 c 0,36,37
 351 -65 351 -65 372 -65 c 2,38,-1
 420 -65 l 1,39,-1
 420 -155 l 1,40,-1
 372 -155 l 2,0,1
250 82 m 256,41,42
 280 82 280 82 302 94.5 c 128,-1,43
 324 107 324 107 337 130 c 0,44,45
 354 160 354 160 354 203 c 2,46,-1
 354 532 l 2,47,48
 354 575 354 575 337 605 c 0,49,50
 324 628 324 628 302 640.5 c 128,-1,51
 280 653 280 653 250 653 c 256,52,53
 220 653 220 653 198 640.5 c 128,-1,54
 176 628 176 628 163 605 c 0,55,56
 146 575 146 575 146 532 c 2,57,-1
 146 203 l 2,58,59
 146 160 146 160 163 130 c 0,60,61
 176 107 176 107 198 94.5 c 128,-1,62
 220 82 220 82 250 82 c 256,41,42
EndSplineSet
Substitution2: "Single Substitution lookup 122 subtable" Q.cv43
Substitution2: "'ss11' Style Set 11 lookup 121 subtable" Q.ss11
EndChar

StartChar: R
Encoding: 82 82 53
Width: 500
GlyphClass: 2
Flags: W
FFAnchorPoint: "Anchor-5" 446 0 basechar 0
FFAnchorPoint: "Anchor-4" 446 735 basechar 0
FFAnchorPoint: "Anchor-3" 250 367 basechar 0
FFAnchorPoint: "Anchor-2" 153 344 basechar 0
FFAnchorPoint: "Anchor-1" 250 0 basechar 0
FFAnchorPoint: "Anchor-0" 250 735 basechar 0
LayerCount: 2
Fore
SplineSet
54 0 m 1,0,-1
 54 735 l 1,1,-1
 249 735 l 2,2,3
 311 735 311 735 358 708 c 0,4,5
 400 684 400 684 424 641 c 1,6,7
 454 590 454 590 454 516 c 128,-1,8
 454 442 454 442 424 391 c 1,9,10
 400 348 400 348 358 323 c 0,11,12
 345 316 345 316 331 311 c 1,13,14
 354 276 354 276 373 243 c 0,15,16
 454 104 454 104 454 0 c 1,17,-1
 354 0 l 1,18,19
 354 85 354 85 288 199 c 0,20,21
 261 246 261 246 223 297 c 1,22,-1
 154 297 l 1,23,-1
 154 0 l 1,24,-1
 54 0 l 1,0,-1
249 387 m 2,25,26
 278 387 278 387 300 399.5 c 128,-1,27
 322 412 322 412 335 436 c 1,28,29
 354 468 354 468 354 516 c 128,-1,30
 354 564 354 564 335 596 c 0,31,32
 322 619 322 619 300 632 c 128,-1,33
 278 645 278 645 249 645 c 2,34,-1
 154 645 l 1,35,-1
 154 387 l 1,36,-1
 249 387 l 2,25,26
EndSplineSet
EndChar

StartChar: S
Encoding: 83 83 54
Width: 500
GlyphClass: 2
Flags: W
FFAnchorPoint: "Anchor-5" 446 0 basechar 0
FFAnchorPoint: "Anchor-4" 446 735 basechar 0
FFAnchorPoint: "Anchor-3" 250 367 basechar 0
FFAnchorPoint: "Anchor-2" 250 382 basechar 0
FFAnchorPoint: "Anchor-1" 250 0 basechar 0
FFAnchorPoint: "Anchor-0" 250 735 basechar 0
LayerCount: 2
Fore
SplineSet
247 -8 m 0,0,1
 178 -8 178 -8 130 20 c 0,2,3
 93 41 93 41 70 79 c 1,4,5
 50 116 50 116 49 155 c 1,6,-1
 147 171 l 1,7,8
 147 168 147 168 147 165 c 0,9,10
 147 144 147 144 158 125.5 c 128,-1,11
 169 107 169 107 188 96 c 0,12,13
 213 82 213 82 247 82 c 0,14,15
 278 82 278 82 301 95 c 0,16,17
 321 107 321 107 333 127 c 1,18,19
 346 151 346 151 346 179 c 0,20,21
 346 210 346 210 329 239 c 0,22,23
 306 280 306 280 227 326 c 0,24,25
 117 390 117 390 83 449 c 0,26,27
 54 500 54 500 54 554.5 c 128,-1,28
 54 609 54 609 80 654 c 0,29,30
 102 693 102 693 143 716 c 1,31,32
 188 743 188 743 253 743 c 0,33,34
 322 743 322 743 370 715 c 0,35,36
 407 694 407 694 430 656 c 1,37,38
 450 619 450 619 451 580 c 1,39,-1
 353 564 l 1,40,41
 353 567 353 567 353 570 c 0,42,43
 353 591 353 591 342 609.5 c 128,-1,44
 331 628 331 628 312 639 c 0,45,46
 287 653 287 653 253 653 c 0,47,48
 222 653 222 653 199 640 c 0,49,50
 179 628 179 628 167 608 c 1,51,52
 154 584 154 584 154 556 c 0,53,54
 154 525 154 525 171 496 c 0,55,56
 194 455 194 455 273 409 c 0,57,58
 383 345 383 345 417 286 c 0,59,60
 446 235 446 235 446 180.5 c 128,-1,61
 446 126 446 126 420 81 c 0,62,63
 398 42 398 42 357 19 c 1,64,65
 312 -8 312 -8 247 -8 c 0,0,1
EndSplineSet
EndChar

StartChar: T
Encoding: 84 84 55
Width: 500
GlyphClass: 2
Flags: W
FFAnchorPoint: "Anchor-5" 299 0 basechar 0
FFAnchorPoint: "Anchor-4" 446 735 basechar 0
FFAnchorPoint: "Anchor-3" 250 367 basechar 0
FFAnchorPoint: "Anchor-2" 250 382 basechar 0
FFAnchorPoint: "Anchor-1" 250 0 basechar 0
FFAnchorPoint: "Anchor-0" 250 735 basechar 0
LayerCount: 2
Fore
SplineSet
200 0 m 1,0,-1
 200 645 l 1,1,-1
 54 645 l 1,2,-1
 54 735 l 1,3,-1
 446 735 l 1,4,-1
 446 645 l 1,5,-1
 300 645 l 1,6,-1
 300 0 l 1,7,-1
 200 0 l 1,0,-1
EndSplineSet
EndChar

StartChar: U
Encoding: 85 85 56
Width: 500
GlyphClass: 2
Flags: W
FFAnchorPoint: "Anchor-5" 446 0 basechar 0
FFAnchorPoint: "Anchor-4" 446 735 basechar 0
FFAnchorPoint: "Anchor-3" 250 367 basechar 0
FFAnchorPoint: "Anchor-2" 250 382 basechar 0
FFAnchorPoint: "Anchor-1" 250 0 basechar 0
FFAnchorPoint: "Anchor-0" 250 735 basechar 0
LayerCount: 2
Fore
SplineSet
250 -8 m 256,0,1
 191 -8 191 -8 147 17 c 0,2,3
 107 40 107 40 83 82 c 0,4,5
 54 132 54 132 54 203 c 2,6,-1
 54 735 l 1,7,-1
 154 735 l 1,8,-1
 154 203 l 2,9,10
 154 157 154 157 172 127 c 1,11,12
 184 105 184 105 205 93 c 0,13,14
 224 82 224 82 250 82 c 256,15,16
 276 82 276 82 295 93 c 0,17,18
 316 105 316 105 328 127 c 1,19,20
 346 157 346 157 346 203 c 2,21,-1
 346 735 l 1,22,-1
 446 735 l 1,23,-1
 446 203 l 2,24,25
 446 132 446 132 417 82 c 0,26,27
 393 40 393 40 353 17 c 0,28,29
 309 -8 309 -8 250 -8 c 256,0,1
EndSplineSet
EndChar

StartChar: V
Encoding: 86 86 57
Width: 500
GlyphClass: 2
Flags: W
FFAnchorPoint: "Anchor-5" 446 0 basechar 0
FFAnchorPoint: "Anchor-4" 446 735 basechar 0
FFAnchorPoint: "Anchor-3" 250 367 basechar 0
FFAnchorPoint: "Anchor-2" 250 382 basechar 0
FFAnchorPoint: "Anchor-1" 250 0 basechar 0
FFAnchorPoint: "Anchor-0" 250 735 basechar 0
LayerCount: 2
Fore
SplineSet
200 0 m 1,0,1
 54 462 54 462 54 662 c 2,2,-1
 54 735 l 1,3,-1
 154 735 l 1,4,-1
 154 662 l 2,5,6
 154 491 154 491 250 119 c 1,7,8
 346 491 346 491 346 662 c 2,9,-1
 346 735 l 1,10,-1
 446 735 l 1,11,-1
 446 662 l 2,12,13
 446 462 446 462 300 0 c 1,14,-1
 200 0 l 1,0,1
EndSplineSet
EndChar

StartChar: W
Encoding: 87 87 58
Width: 500
GlyphClass: 2
Flags: W
FFAnchorPoint: "Anchor-5" 446 0 basechar 0
FFAnchorPoint: "Anchor-4" 446 735 basechar 0
FFAnchorPoint: "Anchor-3" 250 367 basechar 0
FFAnchorPoint: "Anchor-2" 250 382 basechar 0
FFAnchorPoint: "Anchor-1" 250 0 basechar 0
FFAnchorPoint: "Anchor-0" 250 735 basechar 0
LayerCount: 2
Fore
SplineSet
135 0 m 1,0,1
 54 384 54 384 54 551 c 2,2,-1
 54 735 l 1,3,-1
 154 735 l 1,4,-1
 154 551 l 2,5,6
 154 424 154 424 168 170 c 1,7,-1
 223 441 l 1,8,-1
 277 441 l 1,9,-1
 332 170 l 1,10,11
 346 424 346 424 346 551 c 2,12,-1
 346 735 l 1,13,-1
 446 735 l 1,14,-1
 446 551 l 2,15,16
 446 384 446 384 365 0 c 1,17,-1
 310 0 l 1,18,-1
 250 304 l 1,19,-1
 190 0 l 1,20,-1
 135 0 l 1,0,1
EndSplineSet
EndChar

StartChar: X
Encoding: 88 88 59
Width: 500
GlyphClass: 2
Flags: W
FFAnchorPoint: "Anchor-5" 446 0 basechar 0
FFAnchorPoint: "Anchor-4" 446 735 basechar 0
FFAnchorPoint: "Anchor-3" 250 367 basechar 0
FFAnchorPoint: "Anchor-2" 250 382 basechar 0
FFAnchorPoint: "Anchor-1" 250 0 basechar 0
FFAnchorPoint: "Anchor-0" 250 735 basechar 0
LayerCount: 2
Fore
SplineSet
54 0 m 1,0,-1
 54 37 l 2,1,2
 54 141 54 141 120 248 c 2,3,-1
 193 368 l 1,4,-1
 120 487 l 2,5,6
 54 594 54 594 54 698 c 2,7,-1
 54 735 l 1,8,-1
 154 735 l 1,9,-1
 154 698 l 2,10,11
 154 617 154 617 205 534 c 2,12,-1
 250 461 l 1,13,-1
 295 534 l 2,14,15
 346 617 346 617 346 698 c 2,16,-1
 346 735 l 1,17,-1
 446 735 l 1,18,-1
 446 698 l 2,19,20
 446 594 446 594 380 487 c 2,21,-1
 307 368 l 1,22,-1
 380 248 l 2,23,24
 446 141 446 141 446 37 c 2,25,-1
 446 0 l 1,26,-1
 346 0 l 1,27,-1
 346 37 l 2,28,29
 346 118 346 118 295 201 c 2,30,-1
 250 274 l 1,31,-1
 205 201 l 2,32,33
 154 118 154 118 154 37 c 2,34,-1
 154 0 l 1,35,-1
 54 0 l 1,0,-1
EndSplineSet
EndChar

StartChar: Y
Encoding: 89 89 60
Width: 500
GlyphClass: 2
Flags: W
FFAnchorPoint: "Anchor-5" 446 0 basechar 0
FFAnchorPoint: "Anchor-4" 446 735 basechar 0
FFAnchorPoint: "Anchor-3" 250 367 basechar 0
FFAnchorPoint: "Anchor-2" 250 294 basechar 0
FFAnchorPoint: "Anchor-1" 250 0 basechar 0
FFAnchorPoint: "Anchor-0" 250 735 basechar 0
LayerCount: 2
Fore
SplineSet
200 0 m 1,0,-1
 200 283 l 1,1,-1
 118 445 l 2,2,3
 54 570 54 570 54 691 c 2,4,-1
 54 735 l 1,5,-1
 154 735 l 1,6,-1
 154 691 l 2,7,8
 154 589 154 589 207 486 c 2,9,-1
 250 402 l 1,10,-1
 293 486 l 2,11,12
 346 589 346 589 346 691 c 2,13,-1
 346 735 l 1,14,-1
 446 735 l 1,15,-1
 446 691 l 2,16,17
 446 570 446 570 382 445 c 2,18,-1
 300 283 l 1,19,-1
 300 0 l 1,20,-1
 200 0 l 1,0,-1
EndSplineSet
EndChar

StartChar: Z
Encoding: 90 90 61
Width: 500
GlyphClass: 2
Flags: W
FFAnchorPoint: "Anchor-5" 446 0 basechar 0
FFAnchorPoint: "Anchor-4" 446 735 basechar 0
FFAnchorPoint: "Anchor-3" 250 367 basechar 0
FFAnchorPoint: "Anchor-2" 250 382 basechar 0
FFAnchorPoint: "Anchor-1" 250 0 basechar 0
FFAnchorPoint: "Anchor-0" 250 735 basechar 0
LayerCount: 2
Fore
SplineSet
54 0 m 1,0,-1
 54 90 l 1,1,-1
 331 645 l 1,2,-1
 54 645 l 1,3,-1
 54 735 l 1,4,-1
 446 735 l 1,5,-1
 446 645 l 1,6,-1
 169 90 l 1,7,-1
 446 90 l 1,8,-1
 446 0 l 1,9,-1
 54 0 l 1,0,-1
EndSplineSet
EndChar

StartChar: bracketleft
Encoding: 91 91 62
Width: 500
GlyphClass: 2
Flags: W
LayerCount: 2
Fore
SplineSet
93 -168 m 1,0,-1
 93 898 l 1,1,-1
 426 898 l 1,2,-1
 426 808 l 1,3,-1
 193 808 l 1,4,-1
 193 -78 l 1,5,-1
 426 -78 l 1,6,-1
 426 -168 l 1,7,-1
 93 -168 l 1,0,-1
EndSplineSet
EndChar

StartChar: backslash
Encoding: 92 92 63
Width: 500
GlyphClass: 2
Flags: W
LayerCount: 2
Fore
SplineSet
350 -168 m 1,0,-1
 48 898 l 1,1,-1
 150 898 l 1,2,-1
 452 -168 l 1,3,-1
 350 -168 l 1,0,-1
EndSplineSet
Substitution2: "Single Substitution lookup 82 subtable" glyph3103
Substitution2: "Single Substitution lookup 81 subtable" glyph3104
EndChar

StartChar: bracketright
Encoding: 93 93 64
Width: 500
GlyphClass: 2
Flags: W
LayerCount: 2
Fore
SplineSet
74 -168 m 1,0,-1
 74 -78 l 1,1,-1
 307 -78 l 1,2,-1
 307 808 l 1,3,-1
 74 808 l 1,4,-1
 74 898 l 1,5,-1
 407 898 l 1,6,-1
 407 -168 l 1,7,-1
 74 -168 l 1,0,-1
EndSplineSet
EndChar

StartChar: asciicircum
Encoding: 94 94 65
Width: 500
GlyphClass: 2
Flags: W
LayerCount: 2
Fore
SplineSet
116 529 m 1,0,-1
 33 587 l 1,1,-1
 198 784 l 1,2,-1
 302 784 l 1,3,-1
 467 587 l 1,4,-1
 384 529 l 1,5,-1
 250 713 l 1,6,-1
 116 529 l 1,0,-1
EndSplineSet
Substitution2: "Single Substitution lookup 150 subtable" asciicircum.cv30
Substitution2: "'ss11' Style Set 11 lookup 149 subtable" asciicircum.ss11
Substitution2: "Single Substitution lookup 85 subtable" asciicircum.cv30
Substitution2: "Single Substitution lookup 45 subtable" asciicircum.cv30
Substitution2: "Single Substitution lookup 43 subtable" asciicircum.cv30
EndChar

StartChar: underscore
Encoding: 95 95 66
Width: 500
GlyphClass: 2
Flags: W
LayerCount: 2
Fore
SplineSet
54 0 m 1,0,-1
 54 90 l 1,1,-1
 446 90 l 1,2,-1
 446 0 l 1,3,-1
 54 0 l 1,0,-1
EndSplineSet
Substitution2: "'ss10' Style Set 10 lookup 146 subtable" underscore.ss10
Substitution2: "'ss11' Style Set 11 lookup 145 subtable" underscore.ss11
EndChar

StartChar: grave
Encoding: 96 96 67
Width: 500
GlyphClass: 2
Flags: W
LayerCount: 2
Fore
SplineSet
282 526 m 1,0,-1
 79 728 l 1,1,-1
 159 796 l 1,2,-1
 348 581 l 1,3,-1
 282 526 l 1,0,-1
EndSplineSet
EndChar

StartChar: a
Encoding: 97 97 68
Width: 500
GlyphClass: 2
Flags: W
FFAnchorPoint: "Anchor-6" 402 0 basechar 0
FFAnchorPoint: "Anchor-5" 446 0 basechar 0
FFAnchorPoint: "Anchor-4" 446 530 basechar 0
FFAnchorPoint: "Anchor-3" 250 265 basechar 0
FFAnchorPoint: "Anchor-2" 250 275 basechar 0
FFAnchorPoint: "Anchor-1" 250 0 basechar 0
FFAnchorPoint: "Anchor-0" 250 530 basechar 0
LayerCount: 2
Fore
SplineSet
200 -8 m 0,0,1
 152 -8 152 -8 118 12 c 0,2,3
 87 30 87 30 68 62 c 0,4,5
 46 100 46 100 46 153 c 0,6,7
 46 200 46 200 66 234 c 0,8,9
 86 270 86 270 127 293 c 1,10,11
 183 326 183 326 270 326 c 2,12,-1
 346 326 l 1,13,-1
 346 359 l 2,14,15
 346 386 346 386 335 404.5 c 128,-1,16
 324 423 324 423 305 434 c 0,17,18
 281 448 281 448 247 448 c 0,19,20
 212 448 212 448 188 434 c 0,21,22
 169 423 169 423 158 404 c 0,23,24
 150 390 150 390 148 375 c 1,25,-1
 52 400 l 1,26,27
 56 426 56 426 70 450 c 0,28,29
 92 489 92 489 130 511 c 0,30,31
 178 538 178 538 247 538 c 256,32,33
 316 538 316 538 364 510 c 0,34,35
 402 488 402 488 424 451 c 0,36,37
 446 412 446 412 446 359 c 2,38,-1
 446 0 l 1,39,-1
 346 0 l 1,40,-1
 346 69 l 1,41,42
 324 34 324 34 290 14 c 0,43,44
 251 -8 251 -8 200 -8 c 0,0,1
233 82 m 0,45,46
 268 82 268 82 294 97 c 0,47,48
 317 110 317 110 331 133 c 1,49,50
 346 161 346 161 346 198 c 2,51,-1
 346 236 l 1,52,-1
 270 236 l 2,53,54
 217 236 217 236 185 217 c 0,55,56
 164 205 164 205 155 188 c 1,57,58
 146 174 146 174 146 154 c 128,-1,59
 146 134 146 134 154.5 119 c 128,-1,60
 163 104 163 104 180 94 c 0,61,62
 201 82 201 82 233 82 c 0,45,46
EndSplineSet
Substitution2: "'ss11' Style Set 11 lookup 117 subtable" a.ss11
Substitution2: "'ss07' Style Set 7 lookup 116 subtable" a.ss07
EndChar

StartChar: b
Encoding: 98 98 69
Width: 500
GlyphClass: 2
Flags: W
FFAnchorPoint: "Anchor-5" 446 0 basechar 0
FFAnchorPoint: "Anchor-4" 446 735 basechar 0
FFAnchorPoint: "Anchor-3" 250 367 basechar 0
FFAnchorPoint: "Anchor-2" 250 382 basechar 0
FFAnchorPoint: "Anchor-1" 250 0 basechar 0
FFAnchorPoint: "Anchor-0" 250 735 basechar 0
LayerCount: 2
Fore
SplineSet
284 -8 m 0,0,1
 243 -8 243 -8 212 10 c 0,2,3
 178 30 178 30 155 69 c 1,4,-1
 154 71 l 1,5,-1
 154 0 l 1,6,-1
 54 0 l 1,7,-1
 54 735 l 1,8,-1
 154 735 l 1,9,-1
 154 459 l 1,10,-1
 155 461 l 1,11,12
 178 500 178 500 212 520 c 0,13,14
 243 538 243 538 284 538 c 0,15,16
 328 538 328 538 361 519 c 0,17,18
 397 498 397 498 420 457 c 1,19,20
 454 400 454 400 454 310 c 2,21,-1
 454 220 l 2,22,23
 454 130 454 130 420 73 c 1,24,25
 397 32 397 32 361 11 c 0,26,27
 328 -8 328 -8 284 -8 c 0,0,1
251 82 m 0,28,29
 277 82 277 82 298 94.5 c 128,-1,30
 319 107 319 107 334 131 c 1,31,32
 354 167 354 167 354 220 c 2,33,-1
 354 310 l 2,34,35
 354 363 354 363 334 399 c 1,36,37
 319 423 319 423 298 435.5 c 128,-1,38
 277 448 277 448 251 448 c 0,39,40
 226 448 226 448 209 438 c 0,41,42
 188 426 188 426 175 402 c 1,43,44
 154 367 154 367 154 310 c 2,45,-1
 154 220 l 2,46,47
 154 163 154 163 175 128 c 1,48,49
 188 104 188 104 209 92 c 0,50,51
 226 82 226 82 251 82 c 0,28,29
EndSplineSet
EndChar

StartChar: c
Encoding: 99 99 70
Width: 500
GlyphClass: 2
Flags: W
FFAnchorPoint: "Anchor-5" 446 0 basechar 0
FFAnchorPoint: "Anchor-4" 446 530 basechar 0
FFAnchorPoint: "Anchor-3" 250 265 basechar 0
FFAnchorPoint: "Anchor-2" 250 275 basechar 0
FFAnchorPoint: "Anchor-1" 250 0 basechar 0
FFAnchorPoint: "Anchor-0" 250 530 basechar 0
LayerCount: 2
Fore
SplineSet
252 -8 m 0,0,1
 190 -8 190 -8 146 18 c 1,2,3
 103 42 103 42 78 86 c 0,4,5
 46 141 46 141 46 220 c 2,6,-1
 46 310 l 2,7,8
 46 389 46 389 78 444 c 0,9,10
 103 488 103 488 146 512 c 1,11,12
 190 538 190 538 252 538 c 0,13,14
 313 538 313 538 357 512 c 1,15,16
 400 488 400 488 425 443 c 0,17,18
 443 412 443 412 451 375 c 1,19,-1
 356 348 l 1,20,21
 351 376 351 376 338 397 c 1,22,23
 324 423 324 423 301 436 c 0,24,25
 280 448 280 448 252 448 c 256,26,27
 224 448 224 448 203 436 c 0,28,29
 181 423 181 423 166 398 c 0,30,31
 146 363 146 363 146 310 c 2,32,-1
 146 220 l 2,33,34
 146 167 146 167 166 132 c 0,35,36
 181 107 181 107 203 94 c 0,37,38
 224 82 224 82 252 82 c 256,39,40
 280 82 280 82 301 94 c 0,41,42
 324 107 324 107 338 133 c 1,43,44
 351 154 351 154 356 182 c 1,45,-1
 451 155 l 1,46,47
 443 118 443 118 425 87 c 0,48,49
 400 42 400 42 357 18 c 1,50,51
 313 -8 313 -8 252 -8 c 0,0,1
EndSplineSet
EndChar

StartChar: d
Encoding: 100 100 71
Width: 500
GlyphClass: 2
Flags: W
FFAnchorPoint: "Anchor-5" 446 0 basechar 0
FFAnchorPoint: "Anchor-4" 446 735 basechar 0
FFAnchorPoint: "Anchor-3" 250 367 basechar 0
FFAnchorPoint: "Anchor-2" 250 382 basechar 0
FFAnchorPoint: "Anchor-1" 250 0 basechar 0
FFAnchorPoint: "Anchor-0" 250 735 basechar 0
LayerCount: 2
Fore
SplineSet
216 -8 m 0,0,1
 172 -8 172 -8 139 11 c 0,2,3
 103 32 103 32 80 73 c 1,4,5
 46 130 46 130 46 220 c 2,6,-1
 46 310 l 2,7,8
 46 400 46 400 80 457 c 1,9,10
 103 498 103 498 139 519 c 0,11,12
 172 538 172 538 216 538 c 0,13,14
 257 538 257 538 288 520 c 0,15,16
 322 500 322 500 345 461 c 1,17,-1
 346 459 l 1,18,-1
 346 735 l 1,19,-1
 446 735 l 1,20,-1
 446 0 l 1,21,-1
 346 0 l 1,22,-1
 346 71 l 1,23,-1
 345 69 l 1,24,25
 322 30 322 30 288 10 c 0,26,27
 257 -8 257 -8 216 -8 c 0,0,1
249 82 m 0,28,29
 274 82 274 82 291 92 c 0,30,31
 312 104 312 104 325 128 c 1,32,33
 346 163 346 163 346 220 c 2,34,-1
 346 310 l 2,35,36
 346 367 346 367 325 402 c 1,37,38
 312 426 312 426 291 438 c 0,39,40
 274 448 274 448 249 448 c 0,41,42
 223 448 223 448 202 435.5 c 128,-1,43
 181 423 181 423 166 399 c 1,44,45
 146 363 146 363 146 310 c 2,46,-1
 146 220 l 2,47,48
 146 167 146 167 166 131 c 1,49,50
 181 107 181 107 202 94.5 c 128,-1,51
 223 82 223 82 249 82 c 0,28,29
EndSplineSet
EndChar

StartChar: e
Encoding: 101 101 72
Width: 500
GlyphClass: 2
Flags: W
FFAnchorPoint: "Anchor-5" 446 0 basechar 0
FFAnchorPoint: "Anchor-4" 446 530 basechar 0
FFAnchorPoint: "Anchor-3" 250 265 basechar 0
FFAnchorPoint: "Anchor-2" 250 275 basechar 0
FFAnchorPoint: "Anchor-1" 250 0 basechar 0
FFAnchorPoint: "Anchor-0" 250 530 basechar 0
LayerCount: 2
Fore
SplineSet
257 -8 m 256,0,1
 193 -8 193 -8 147 19 c 0,2,3
 104 44 104 44 77 88 c 1,4,5
 46 143 46 143 46 220 c 2,6,-1
 46 310 l 2,7,8
 46 389 46 389 78 444 c 0,9,10
 103 488 103 488 146 513 c 128,-1,11
 189 538 189 538 250 538 c 256,12,13
 311 538 311 538 354 513 c 128,-1,14
 397 488 397 488 422 444 c 0,15,16
 454 389 454 389 454 310 c 2,17,-1
 454 220 l 1,18,-1
 146 220 l 1,19,20
 146 168 146 168 166 134 c 0,21,22
 181 109 181 109 204 95.5 c 128,-1,23
 227 82 227 82 257 82 c 0,24,25
 288 82 288 82 312 95.5 c 128,-1,26
 336 109 336 109 350 135 c 0,27,28
 358 149 358 149 363 165 c 1,29,-1
 455 130 l 1,30,31
 448 109 448 109 437 89 c 0,32,33
 411 44 411 44 367 19 c 0,34,35
 321 -8 321 -8 257 -8 c 256,0,1
146 310 m 1,36,-1
 354 310 l 1,37,38
 354 363 354 363 334 399 c 0,39,40
 319 424 319 424 297 436 c 0,41,42
 277 448 277 448 250 448 c 256,43,44
 223 448 223 448 203 436 c 0,45,46
 181 424 181 424 166 399 c 0,47,48
 146 363 146 363 146 310 c 1,36,-1
EndSplineSet
EndChar

StartChar: f
Encoding: 102 102 73
Width: 500
GlyphClass: 2
Flags: W
FFAnchorPoint: "Anchor-5" 446 0 basechar 0
FFAnchorPoint: "Anchor-4" 446 735 basechar 0
FFAnchorPoint: "Anchor-3" 250 367 basechar 0
FFAnchorPoint: "Anchor-2" 250 382 basechar 0
FFAnchorPoint: "Anchor-1" 250 0 basechar 0
FFAnchorPoint: "Anchor-0" 250 735 basechar 0
LayerCount: 2
Fore
SplineSet
166 0 m 1,0,-1
 166 415 l 1,1,-1
 54 415 l 1,2,-1
 54 505 l 1,3,-1
 166 505 l 1,4,-1
 166 589 l 2,5,6
 166 647 166 647 190 688 c 0,7,8
 209 721 209 721 241 740 c 0,9,10
 274 759 274 759 321 759 c 0,11,12
 367 759 367 759 400 740 c 0,13,14
 432 721 432 721 452 688 c 0,15,16
 466 663 466 663 471 635 c 1,17,-1
 375 609 l 1,18,19
 371 639 371 639 354 655 c 1,20,21
 341 669 341 669 321 669 c 256,22,23
 301 669 301 669 288 656 c 0,24,25
 266 634 266 634 266 589 c 2,26,-1
 266 505 l 1,27,-1
 426 505 l 1,28,-1
 426 415 l 1,29,-1
 266 415 l 1,30,-1
 266 0 l 1,31,-1
 166 0 l 1,0,-1
EndSplineSet
EndChar

StartChar: g
Encoding: 103 103 74
Width: 500
GlyphClass: 2
Flags: W
FFAnchorPoint: "Anchor-5" 446 -205 basechar 0
FFAnchorPoint: "Anchor-4" 446 530 basechar 0
FFAnchorPoint: "Anchor-3" 250 162 basechar 0
FFAnchorPoint: "Anchor-2" 250 177 basechar 0
FFAnchorPoint: "Anchor-1" 250 -205 basechar 0
FFAnchorPoint: "Anchor-0" 250 530 basechar 0
LayerCount: 2
Fore
SplineSet
237 -213 m 0,0,1
 175 -213 175 -213 129 -187 c 0,2,3
 86 -162 86 -162 60 -117 c 0,4,5
 54 -106 54 -106 49 -95 c 1,6,-1
 138 -55 l 1,7,8
 143 -66 143 -66 147 -72 c 0,9,10
 161 -96 161 -96 184 -109.5 c 128,-1,11
 207 -123 207 -123 237 -123 c 0,12,13
 266 -123 266 -123 288.5 -110 c 128,-1,14
 311 -97 311 -97 326 -72 c 0,15,16
 346 -37 346 -37 346 15 c 2,17,-1
 346 71 l 1,18,-1
 345 69 l 1,19,20
 322 30 322 30 288 10 c 0,21,22
 257 -8 257 -8 216 -8 c 0,23,24
 172 -8 172 -8 139 11 c 0,25,26
 103 32 103 32 80 73 c 1,27,28
 46 130 46 130 46 220 c 2,29,-1
 46 310 l 2,30,31
 46 400 46 400 80 457 c 1,32,33
 103 498 103 498 139 519 c 0,34,35
 172 538 172 538 216 538 c 0,36,37
 257 538 257 538 288 520 c 0,38,39
 322 500 322 500 345 461 c 1,40,-1
 346 459 l 1,41,-1
 346 530 l 1,42,-1
 446 530 l 1,43,-1
 446 15 l 2,44,45
 446 -63 446 -63 414 -117 c 0,46,47
 389 -161 389 -161 346 -187 c 1,48,49
 300 -213 300 -213 237 -213 c 0,0,1
249 82 m 0,50,51
 274 82 274 82 291 92 c 0,52,53
 312 104 312 104 325 128 c 1,54,55
 346 163 346 163 346 220 c 2,56,-1
 346 310 l 2,57,58
 346 367 346 367 325 402 c 1,59,60
 312 426 312 426 291 438 c 0,61,62
 274 448 274 448 249 448 c 0,63,64
 223 448 223 448 202 435.5 c 128,-1,65
 181 423 181 423 166 399 c 1,66,67
 146 363 146 363 146 310 c 2,68,-1
 146 220 l 2,69,70
 146 167 146 167 166 131 c 1,71,72
 181 107 181 107 202 94.5 c 128,-1,73
 223 82 223 82 249 82 c 0,50,51
EndSplineSet
Substitution2: "'ss05' Style Set 5 lookup 120 subtable" g.ss05
Substitution2: "'ss09' Style Set 9 lookup 119 subtable" g.ss09
Substitution2: "'ss11' Style Set 11 lookup 118 subtable" g.ss11
EndChar

StartChar: h
Encoding: 104 104 75
Width: 500
GlyphClass: 2
Flags: W
FFAnchorPoint: "Anchor-5" 446 0 basechar 0
FFAnchorPoint: "Anchor-4" 446 735 basechar 0
FFAnchorPoint: "Anchor-3" 250 367 basechar 0
FFAnchorPoint: "Anchor-2" 250 382 basechar 0
FFAnchorPoint: "Anchor-1" 250 0 basechar 0
FFAnchorPoint: "Anchor-0" 250 735 basechar 0
LayerCount: 2
Fore
SplineSet
54 0 m 1,0,-1
 54 735 l 1,1,-1
 154 735 l 1,2,-1
 154 459 l 1,3,-1
 155 461 l 1,4,5
 178 500 178 500 212 520 c 0,6,7
 243 538 243 538 284 538 c 0,8,9
 324 538 324 538 355 520 c 0,10,11
 389 500 389 500 412 461 c 0,12,13
 446 402 446 402 446 310 c 2,14,-1
 446 0 l 1,15,-1
 346 0 l 1,16,-1
 346 310 l 2,17,18
 346 367 346 367 325 402 c 1,19,20
 312 426 312 426 291 438 c 0,21,22
 274 448 274 448 250 448 c 256,23,24
 226 448 226 448 209 438 c 0,25,26
 188 426 188 426 175 402 c 1,27,28
 154 367 154 367 154 310 c 2,29,-1
 154 0 l 1,30,-1
 54 0 l 1,0,-1
EndSplineSet
EndChar

StartChar: i
Encoding: 105 105 76
Width: 500
GlyphClass: 2
Flags: W
FFAnchorPoint: "Anchor-5" 446 0 basechar 0
FFAnchorPoint: "Anchor-4" 446 530 basechar 0
FFAnchorPoint: "Anchor-3" 250 265 basechar 0
FFAnchorPoint: "Anchor-2" 250 275 basechar 0
FFAnchorPoint: "Anchor-1" 250 0 basechar 0
FFAnchorPoint: "Anchor-0" 250 743 basechar 0
LayerCount: 2
Fore
SplineSet
250 615 m 256,0,1
 227 615 227 615 212 624 c 0,2,3
 198 632 198 632 189 647 c 0,4,5
 180 663 180 663 180 685 c 128,-1,6
 180 707 180 707 189 723 c 0,7,8
 198 738 198 738 212 746 c 0,9,10
 227 755 227 755 250 755 c 256,11,12
 273 755 273 755 288 746 c 0,13,14
 302 738 302 738 311 723 c 0,15,16
 320 707 320 707 320 685 c 128,-1,17
 320 663 320 663 311 647 c 0,18,19
 302 632 302 632 288 624 c 0,20,21
 273 615 273 615 250 615 c 256,0,1
75 0 m 1,22,-1
 75 90 l 1,23,-1
 207 90 l 1,24,-1
 207 440 l 1,25,-1
 89 440 l 1,26,-1
 89 530 l 1,27,-1
 307 530 l 1,28,-1
 307 90 l 1,29,-1
 425 90 l 1,30,-1
 425 0 l 1,31,-1
 75 0 l 1,22,-1
EndSplineSet
Substitution2: "'cv04' Character Variants 04 lookup 109 subtable" i.cv04
Substitution2: "'ss11' Style Set 11 lookup 108 subtable" i.ss11
Substitution2: "'ss07' Style Set 7 lookup 107 subtable" i.ss07
Substitution2: "'ss10' Style Set 10 lookup 106 subtable" i.ss10
Substitution2: "Single Substitution lookup 35 subtable" dotlessi
EndChar

StartChar: j
Encoding: 106 106 77
Width: 500
GlyphClass: 2
Flags: W
FFAnchorPoint: "Anchor-5" 446 -205 basechar 0
FFAnchorPoint: "Anchor-4" 446 530 basechar 0
FFAnchorPoint: "Anchor-3" 250 162 basechar 0
FFAnchorPoint: "Anchor-2" 296 265 basechar 0
FFAnchorPoint: "Anchor-1" 250 -205 basechar 0
FFAnchorPoint: "Anchor-0" 296 743 basechar 0
LayerCount: 2
Fore
SplineSet
296 615 m 0,0,1
 274 615 274 615 258 624 c 0,2,3
 244 633 244 633 236 647 c 0,4,5
 227 662 227 662 226 685 c 1,6,7
 227 708 227 708 236 723 c 0,8,9
 244 737 244 737 258 746 c 0,10,11
 274 755 274 755 296 755 c 0,12,13
 319 755 319 755 335 746 c 0,14,15
 349 737 349 737 357 723 c 0,16,17
 367 707 367 707 366 685 c 1,18,19
 367 663 367 663 357 647 c 0,20,21
 349 633 349 633 335 624 c 0,22,23
 319 615 319 615 296 615 c 0,0,1
179 -213 m 0,24,25
 126 -213 126 -213 87.5 -190.5 c 128,-1,26
 49 -168 49 -168 26 -128 c 0,27,28
 10 -102 10 -102 3 -70 c 1,29,-1
 97 -39 l 1,30,31
 101 -63 101 -63 112 -82 c 0,32,33
 124 -103 124 -103 142 -114 c 1,34,35
 159 -123 159 -123 179 -123 c 0,36,37
 200 -123 200 -123 215 -114 c 0,38,39
 233 -104 233 -104 245 -83 c 0,40,41
 263 -52 263 -52 263 -2 c 2,42,-1
 263 440 l 1,43,-1
 138 440 l 1,44,-1
 138 530 l 1,45,-1
 363 530 l 1,46,-1
 363 -2 l 2,47,48
 363 -77 363 -77 333 -128 c 0,49,50
 310 -168 310 -168 272 -190 c 0,51,52
 233 -213 233 -213 179 -213 c 0,24,25
EndSplineSet
Substitution2: "Single Substitution lookup 35 subtable" uni0237
EndChar

StartChar: k
Encoding: 107 107 78
Width: 500
GlyphClass: 2
Flags: W
FFAnchorPoint: "Anchor-5" 446 0 basechar 0
FFAnchorPoint: "Anchor-4" 446 735 basechar 0
FFAnchorPoint: "Anchor-3" 250 367 basechar 0
FFAnchorPoint: "Anchor-2" 250 382 basechar 0
FFAnchorPoint: "Anchor-1" 250 0 basechar 0
FFAnchorPoint: "Anchor-0" 250 735 basechar 0
LayerCount: 2
Fore
SplineSet
54 0 m 1,0,-1
 54 735 l 1,1,-1
 154 735 l 1,2,-1
 154 316 l 1,3,4
 286 421 286 421 328 494 c 0,5,6
 341 515 341 515 341 530 c 1,7,-1
 446 530 l 1,8,9
 446 511 446 511 429 480 c 1,10,11
 390 414 390 414 300 330 c 1,12,13
 332 278 332 278 356 237 c 0,14,15
 454 67 454 67 454 0 c 1,16,-1
 354 0 l 1,17,18
 354 58 354 58 270 203 c 0,19,20
 251 236 251 236 231 268 c 1,21,22
 195 238 195 238 154 206 c 1,23,-1
 154 0 l 1,24,-1
 54 0 l 1,0,-1
EndSplineSet
EndChar

StartChar: l
Encoding: 108 108 79
Width: 500
GlyphClass: 2
Flags: W
FFAnchorPoint: "Anchor-5" 446 0 basechar 0
FFAnchorPoint: "Anchor-4" 446 735 basechar 0
FFAnchorPoint: "Anchor-3" 250 367 basechar 0
FFAnchorPoint: "Anchor-2" 253 382 basechar 0
FFAnchorPoint: "Anchor-1" 250 0 basechar 0
FFAnchorPoint: "Anchor-0" 250 735 basechar 0
LayerCount: 2
Fore
SplineSet
75 0 m 1,0,-1
 75 90 l 1,1,-1
 207 90 l 1,2,-1
 207 645 l 1,3,-1
 89 645 l 1,4,-1
 89 735 l 1,5,-1
 307 735 l 1,6,-1
 307 90 l 1,7,-1
 425 90 l 1,8,-1
 425 0 l 1,9,-1
 75 0 l 1,0,-1
EndSplineSet
Substitution2: "Single Substitution lookup 115 subtable" l.cv28
Substitution2: "Single Substitution lookup 114 subtable" l.cv27
Substitution2: "'ss09' Style Set 9 lookup 113 subtable" l.ss09
Substitution2: "'ss11' Style Set 11 lookup 112 subtable" l.ss11
Substitution2: "'ss07' Style Set 7 lookup 111 subtable" l.ss07
Substitution2: "'ss10' Style Set 10 lookup 110 subtable" l.ss10
EndChar

StartChar: m
Encoding: 109 109 80
Width: 500
GlyphClass: 2
Flags: W
FFAnchorPoint: "Anchor-5" 446 0 basechar 0
FFAnchorPoint: "Anchor-4" 446 530 basechar 0
FFAnchorPoint: "Anchor-3" 250 265 basechar 0
FFAnchorPoint: "Anchor-2" 250 275 basechar 0
FFAnchorPoint: "Anchor-1" 250 0 basechar 0
FFAnchorPoint: "Anchor-0" 250 530 basechar 0
LayerCount: 2
Fore
SplineSet
46 0 m 1,0,-1
 46 530 l 1,1,-1
 144 530 l 1,2,-1
 144 501 l 1,3,4
 156 520 156 520 172 530 c 1,5,6
 187 538 187 538 206 538 c 0,7,8
 236 538 236 538 257 517 c 0,9,10
 266 507 266 507 274 494 c 0,11,12
 280 484 280 484 285 472 c 1,13,14
 289 485 289 485 296 496 c 1,15,16
 308 519 308 519 327 530 c 0,17,18
 342 538 342 538 361 538 c 0,19,20
 390 538 390 538 412 517 c 1,21,22
 421 507 421 507 429 494 c 0,23,24
 454 450 454 450 454 376 c 2,25,-1
 454 0 l 1,26,-1
 356 0 l 1,27,-1
 356 376 l 1,28,29
 355 428 355 428 339 444 c 0,30,31
 334 449 334 449 327 449 c 0,32,33
 321 449 321 449 316 444 c 0,34,35
 299 428 299 428 299 376 c 2,36,-1
 299 0 l 1,37,-1
 201 0 l 1,38,-1
 201 376 l 2,39,40
 201 428 201 428 184 444 c 0,41,42
 179 449 179 449 173 449 c 0,43,44
 166 449 166 449 161 444 c 0,45,46
 145 428 145 428 144 376 c 1,47,-1
 144 0 l 1,48,-1
 46 0 l 1,0,-1
EndSplineSet
Substitution2: "Single Substitution lookup 124 subtable" m.cv26
Substitution2: "'ss11' Style Set 11 lookup 123 subtable" m.ss11
EndChar

StartChar: n
Encoding: 110 110 81
Width: 500
GlyphClass: 2
Flags: W
FFAnchorPoint: "Anchor-5" 446 0 basechar 0
FFAnchorPoint: "Anchor-4" 446 530 basechar 0
FFAnchorPoint: "Anchor-3" 250 265 basechar 0
FFAnchorPoint: "Anchor-2" 250 275 basechar 0
FFAnchorPoint: "Anchor-1" 250 0 basechar 0
FFAnchorPoint: "Anchor-0" 250 530 basechar 0
LayerCount: 2
Fore
SplineSet
54 0 m 1,0,-1
 54 530 l 1,1,-1
 154 530 l 1,2,-1
 154 459 l 1,3,-1
 155 461 l 1,4,5
 178 500 178 500 212 520 c 0,6,7
 243 538 243 538 284 538 c 0,8,9
 324 538 324 538 355 520 c 0,10,11
 389 500 389 500 412 461 c 0,12,13
 446 402 446 402 446 310 c 2,14,-1
 446 0 l 1,15,-1
 346 0 l 1,16,-1
 346 310 l 2,17,18
 346 367 346 367 325 402 c 1,19,20
 312 426 312 426 291 438 c 0,21,22
 274 448 274 448 250 448 c 256,23,24
 226 448 226 448 209 438 c 0,25,26
 188 426 188 426 175 402 c 1,27,28
 154 367 154 367 154 310 c 2,29,-1
 154 0 l 1,30,-1
 54 0 l 1,0,-1
EndSplineSet
EndChar

StartChar: o
Encoding: 111 111 82
Width: 500
GlyphClass: 2
Flags: W
FFAnchorPoint: "Anchor-5" 446 0 basechar 0
FFAnchorPoint: "Anchor-4" 446 530 basechar 0
FFAnchorPoint: "Anchor-3" 250 265 basechar 0
FFAnchorPoint: "Anchor-2" 250 275 basechar 0
FFAnchorPoint: "Anchor-1" 250 0 basechar 0
FFAnchorPoint: "Anchor-0" 250 530 basechar 0
LayerCount: 2
Fore
SplineSet
250 -8 m 256,0,1
 189 -8 189 -8 146 17 c 128,-1,2
 103 42 103 42 78 86 c 0,3,4
 46 141 46 141 46 220 c 2,5,-1
 46 310 l 2,6,7
 46 389 46 389 78 444 c 0,8,9
 103 488 103 488 146 513 c 128,-1,10
 189 538 189 538 250 538 c 256,11,12
 311 538 311 538 354 513 c 128,-1,13
 397 488 397 488 422 444 c 0,14,15
 454 389 454 389 454 310 c 2,16,-1
 454 220 l 2,17,18
 454 141 454 141 422 86 c 0,19,20
 397 42 397 42 354 17 c 128,-1,21
 311 -8 311 -8 250 -8 c 256,0,1
250 82 m 256,22,23
 277 82 277 82 297 94 c 0,24,25
 319 106 319 106 334 131 c 0,26,27
 354 167 354 167 354 220 c 2,28,-1
 354 310 l 2,29,30
 354 363 354 363 334 399 c 0,31,32
 319 424 319 424 297 436 c 0,33,34
 277 448 277 448 250 448 c 256,35,36
 223 448 223 448 203 436 c 0,37,38
 181 424 181 424 166 399 c 0,39,40
 146 363 146 363 146 310 c 2,41,-1
 146 220 l 2,42,43
 146 167 146 167 166 131 c 0,44,45
 181 106 181 106 203 94 c 0,46,47
 223 82 223 82 250 82 c 256,22,23
EndSplineSet
EndChar

StartChar: p
Encoding: 112 112 83
Width: 500
GlyphClass: 2
Flags: W
FFAnchorPoint: "Anchor-5" 446 -205 basechar 0
FFAnchorPoint: "Anchor-4" 446 530 basechar 0
FFAnchorPoint: "Anchor-3" 250 162 basechar 0
FFAnchorPoint: "Anchor-2" 250 177 basechar 0
FFAnchorPoint: "Anchor-1" 250 -205 basechar 0
FFAnchorPoint: "Anchor-0" 250 530 basechar 0
LayerCount: 2
Fore
SplineSet
54 -205 m 1,0,-1
 54 530 l 1,1,-1
 154 530 l 1,2,-1
 154 459 l 1,3,-1
 155 461 l 1,4,5
 178 500 178 500 212 520 c 0,6,7
 243 538 243 538 284 538 c 0,8,9
 328 538 328 538 361 519 c 0,10,11
 397 498 397 498 420 457 c 1,12,13
 454 400 454 400 454 310 c 2,14,-1
 454 220 l 2,15,16
 454 130 454 130 420 73 c 1,17,18
 397 32 397 32 361 11 c 0,19,20
 328 -8 328 -8 284 -8 c 0,21,22
 243 -8 243 -8 212 10 c 0,23,24
 178 30 178 30 155 69 c 1,25,-1
 154 71 l 1,26,-1
 154 -205 l 1,27,-1
 54 -205 l 1,0,-1
251 82 m 0,28,29
 277 82 277 82 298 94.5 c 128,-1,30
 319 107 319 107 334 131 c 1,31,32
 354 167 354 167 354 220 c 2,33,-1
 354 310 l 2,34,35
 354 363 354 363 334 399 c 1,36,37
 319 423 319 423 298 435.5 c 128,-1,38
 277 448 277 448 251 448 c 0,39,40
 226 448 226 448 209 438 c 0,41,42
 188 426 188 426 175 402 c 1,43,44
 154 367 154 367 154 310 c 2,45,-1
 154 220 l 2,46,47
 154 163 154 163 175 128 c 1,48,49
 188 104 188 104 209 92 c 0,50,51
 226 82 226 82 251 82 c 0,28,29
EndSplineSet
EndChar

StartChar: q
Encoding: 113 113 84
Width: 500
GlyphClass: 2
Flags: W
FFAnchorPoint: "Anchor-5" 446 -205 basechar 0
FFAnchorPoint: "Anchor-4" 446 530 basechar 0
FFAnchorPoint: "Anchor-3" 250 162 basechar 0
FFAnchorPoint: "Anchor-2" 250 177 basechar 0
FFAnchorPoint: "Anchor-1" 250 -205 basechar 0
FFAnchorPoint: "Anchor-0" 250 530 basechar 0
LayerCount: 2
Fore
SplineSet
346 -205 m 1,0,-1
 346 71 l 1,1,-1
 345 69 l 1,2,3
 322 30 322 30 288 10 c 0,4,5
 257 -8 257 -8 216 -8 c 0,6,7
 172 -8 172 -8 139 11 c 0,8,9
 103 32 103 32 80 73 c 1,10,11
 46 130 46 130 46 220 c 2,12,-1
 46 310 l 2,13,14
 46 400 46 400 80 457 c 1,15,16
 103 498 103 498 139 519 c 0,17,18
 172 538 172 538 216 538 c 0,19,20
 257 538 257 538 288 520 c 0,21,22
 322 500 322 500 345 461 c 1,23,-1
 346 459 l 1,24,-1
 346 530 l 1,25,-1
 446 530 l 1,26,-1
 446 -205 l 1,27,-1
 346 -205 l 1,0,-1
249 82 m 0,28,29
 274 82 274 82 291 92 c 0,30,31
 312 104 312 104 325 128 c 1,32,33
 346 163 346 163 346 220 c 2,34,-1
 346 310 l 2,35,36
 346 367 346 367 325 402 c 1,37,38
 312 426 312 426 291 438 c 0,39,40
 274 448 274 448 249 448 c 0,41,42
 223 448 223 448 202 435.5 c 128,-1,43
 181 423 181 423 166 399 c 1,44,45
 146 363 146 363 146 310 c 2,46,-1
 146 220 l 2,47,48
 146 167 146 167 166 131 c 1,49,50
 181 107 181 107 202 94.5 c 128,-1,51
 223 82 223 82 249 82 c 0,28,29
EndSplineSet
EndChar

StartChar: r
Encoding: 114 114 85
Width: 500
GlyphClass: 2
Flags: W
FFAnchorPoint: "Anchor-5" 446 0 basechar 0
FFAnchorPoint: "Anchor-4" 446 530 basechar 0
FFAnchorPoint: "Anchor-3" 250 265 basechar 0
FFAnchorPoint: "Anchor-2" 186 265 basechar 0
FFAnchorPoint: "Anchor-1" 250 0 basechar 0
FFAnchorPoint: "Anchor-0" 250 530 basechar 0
LayerCount: 2
Fore
SplineSet
109 0 m 1,0,-1
 109 530 l 1,1,-1
 209 530 l 1,2,-1
 209 434 l 1,3,4
 216 451 216 451 224 466 c 0,5,6
 247 505 247 505 278 523 c 0,7,8
 304 538 304 538 338 538 c 0,9,10
 373 538 373 538 404 520.5 c 128,-1,11
 435 503 435 503 453 471 c 0,12,13
 462 456 462 456 466 440 c 1,14,-1
 372 397 l 1,15,16
 368 415 368 415 354 429 c 0,17,18
 334 448 334 448 308 448 c 0,19,20
 286 448 286 448 270 438 c 1,21,22
 249 427 249 427 235 401 c 1,23,24
 209 357 209 357 209 281 c 2,25,-1
 209 0 l 1,26,-1
 109 0 l 1,0,-1
EndSplineSet
EndChar

StartChar: s
Encoding: 115 115 86
Width: 500
GlyphClass: 2
Flags: W
FFAnchorPoint: "Anchor-5" 446 0 basechar 0
FFAnchorPoint: "Anchor-4" 446 530 basechar 0
FFAnchorPoint: "Anchor-3" 250 265 basechar 0
FFAnchorPoint: "Anchor-2" 250 275 basechar 0
FFAnchorPoint: "Anchor-1" 250 0 basechar 0
FFAnchorPoint: "Anchor-0" 250 530 basechar 0
LayerCount: 2
Fore
SplineSet
247 -8 m 0,0,1
 174 -8 174 -8 127 20 c 1,2,3
 86 43 86 43 64 82 c 0,4,5
 56 95 56 95 51 110 c 1,6,-1
 144 142 l 1,7,8
 148 133 148 133 151 129 c 0,9,10
 162 109 162 109 183 96 c 1,11,12
 208 82 208 82 247 82 c 0,13,14
 291 82 291 82 317 97 c 0,15,16
 333 106 333 106 340 119 c 0,17,18
 347 130 347 130 347 145 c 256,19,20
 347 160 347 160 339 174 c 0,21,22
 330 190 330 190 312 201 c 0,23,24
 289 214 289 214 233 220 c 0,25,26
 165 227 165 227 131 247 c 0,27,28
 95 268 95 268 75 303 c 0,29,30
 53 340 53 340 53 385 c 0,31,32
 53 426 53 426 71 456 c 0,33,34
 89 488 89 488 125 509 c 0,35,36
 176 538 176 538 253 538 c 0,37,38
 326 538 326 538 373 510 c 1,39,40
 414 487 414 487 436 448 c 0,41,42
 444 435 444 435 449 420 c 1,43,-1
 356 388 l 1,44,45
 352 397 352 397 349 401 c 0,46,47
 338 421 338 421 317 434 c 1,48,49
 292 448 292 448 253 448 c 0,50,51
 209 448 209 448 183 433 c 0,52,53
 167 424 167 424 160 411 c 0,54,55
 153 400 153 400 153 385 c 256,56,57
 153 370 153 370 161 356 c 0,58,59
 170 340 170 340 188 329 c 0,60,61
 211 316 211 316 267 310 c 0,62,63
 335 303 335 303 369 283 c 0,64,65
 405 262 405 262 425 227 c 0,66,67
 447 190 447 190 447 145 c 0,68,69
 447 104 447 104 429 74 c 0,70,71
 411 42 411 42 375 21 c 0,72,73
 324 -8 324 -8 247 -8 c 0,0,1
EndSplineSet
EndChar

StartChar: t
Encoding: 116 116 87
Width: 500
GlyphClass: 2
Flags: W
FFAnchorPoint: "Anchor-5" 493 155 basechar 0
FFAnchorPoint: "Anchor-4" 446 735 basechar 0
FFAnchorPoint: "Anchor-3" 250 367 basechar 0
FFAnchorPoint: "Anchor-2" 250 382 basechar 0
FFAnchorPoint: "Anchor-1" 307 0 basechar 0
FFAnchorPoint: "Anchor-0" 250 735 basechar 0
LayerCount: 2
Fore
SplineSet
323 -8 m 0,0,1
 275 -8 275 -8 239 13 c 128,-1,2
 203 34 203 34 180 73 c 0,3,4
 150 126 150 126 150 203 c 2,5,-1
 150 440 l 1,6,-1
 50 440 l 1,7,-1
 50 530 l 1,8,-1
 150 530 l 1,9,-1
 150 735 l 1,10,-1
 250 735 l 1,11,-1
 250 530 l 1,12,-1
 400 530 l 1,13,-1
 400 440 l 1,14,-1
 250 440 l 1,15,-1
 250 203 l 2,16,17
 250 149 250 149 269 117 c 1,18,19
 279 98 279 98 295 89 c 0,20,21
 307 82 307 82 323 82 c 0,22,23
 340 82 340 82 353 89 c 1,24,25
 368 99 368 99 379 117 c 0,26,27
 394 143 394 143 397 179 c 1,28,-1
 494 155 l 1,29,30
 487 109 487 109 466 73 c 0,31,32
 444 34 444 34 407 13 c 0,33,34
 372 -8 372 -8 323 -8 c 0,0,1
EndSplineSet
Substitution2: "Single Substitution lookup 126 subtable" t.cv41
Substitution2: "'ss11' Style Set 11 lookup 125 subtable" t.ss11
EndChar

StartChar: u
Encoding: 117 117 88
Width: 500
GlyphClass: 2
Flags: W
FFAnchorPoint: "Anchor-6" 402 0 basechar 0
FFAnchorPoint: "Anchor-5" 446 0 basechar 0
FFAnchorPoint: "Anchor-4" 446 530 basechar 0
FFAnchorPoint: "Anchor-3" 250 265 basechar 0
FFAnchorPoint: "Anchor-2" 250 275 basechar 0
FFAnchorPoint: "Anchor-1" 250 0 basechar 0
FFAnchorPoint: "Anchor-0" 250 530 basechar 0
LayerCount: 2
Fore
SplineSet
216 -8 m 0,0,1
 176 -8 176 -8 145 10 c 0,2,3
 111 30 111 30 88 69 c 0,4,5
 54 128 54 128 54 220 c 2,6,-1
 54 530 l 1,7,-1
 154 530 l 1,8,-1
 154 220 l 2,9,10
 154 163 154 163 175 128 c 1,11,12
 188 104 188 104 209 92 c 0,13,14
 226 82 226 82 250 82 c 256,15,16
 274 82 274 82 291 92 c 0,17,18
 312 104 312 104 325 128 c 1,19,20
 346 163 346 163 346 220 c 2,21,-1
 346 530 l 1,22,-1
 446 530 l 1,23,-1
 446 0 l 1,24,-1
 346 0 l 1,25,-1
 346 71 l 1,26,-1
 345 69 l 1,27,28
 322 30 322 30 288 10 c 0,29,30
 257 -8 257 -8 216 -8 c 0,0,1
EndSplineSet
EndChar

StartChar: v
Encoding: 118 118 89
Width: 500
GlyphClass: 2
Flags: W
FFAnchorPoint: "Anchor-5" 446 0 basechar 0
FFAnchorPoint: "Anchor-4" 446 530 basechar 0
FFAnchorPoint: "Anchor-3" 250 265 basechar 0
FFAnchorPoint: "Anchor-2" 250 275 basechar 0
FFAnchorPoint: "Anchor-1" 250 0 basechar 0
FFAnchorPoint: "Anchor-0" 250 530 basechar 0
LayerCount: 2
Fore
SplineSet
200 0 m 1,0,1
 54 333 54 333 54 477 c 2,2,-1
 54 530 l 1,3,-1
 154 530 l 1,4,-1
 154 477 l 2,5,6
 154 356 154 356 250 91 c 1,7,8
 346 356 346 356 346 477 c 2,9,-1
 346 530 l 1,10,-1
 446 530 l 1,11,-1
 446 477 l 2,12,13
 446 333 446 333 300 0 c 1,14,-1
 200 0 l 1,0,1
EndSplineSet
EndChar

StartChar: w
Encoding: 119 119 90
Width: 500
GlyphClass: 2
Flags: W
FFAnchorPoint: "Anchor-5" 446 0 basechar 0
FFAnchorPoint: "Anchor-4" 446 530 basechar 0
FFAnchorPoint: "Anchor-3" 250 265 basechar 0
FFAnchorPoint: "Anchor-2" 250 275 basechar 0
FFAnchorPoint: "Anchor-1" 250 0 basechar 0
FFAnchorPoint: "Anchor-0" 250 530 basechar 0
LayerCount: 2
Fore
SplineSet
135 0 m 1,0,1
 54 277 54 277 54 398 c 2,2,-1
 54 530 l 1,3,-1
 154 530 l 1,4,-1
 154 398 l 2,5,6
 154 307 154 307 168 123 c 1,7,-1
 223 318 l 1,8,-1
 277 318 l 1,9,-1
 332 123 l 1,10,11
 346 307 346 307 346 398 c 2,12,-1
 346 530 l 1,13,-1
 446 530 l 1,14,-1
 446 398 l 2,15,16
 446 277 446 277 365 0 c 1,17,-1
 310 0 l 1,18,-1
 250 219 l 1,19,-1
 190 0 l 1,20,-1
 135 0 l 1,0,1
EndSplineSet
EndChar

StartChar: x
Encoding: 120 120 91
Width: 500
GlyphClass: 2
Flags: W
FFAnchorPoint: "Anchor-5" 446 0 basechar 0
FFAnchorPoint: "Anchor-4" 446 530 basechar 0
FFAnchorPoint: "Anchor-3" 250 265 basechar 0
FFAnchorPoint: "Anchor-2" 250 275 basechar 0
FFAnchorPoint: "Anchor-1" 250 0 basechar 0
FFAnchorPoint: "Anchor-0" 250 530 basechar 0
LayerCount: 2
Fore
SplineSet
54 0 m 1,0,-1
 54 5 l 2,1,2
 54 42 54 42 101 122 c 0,3,4
 114 145 114 145 121 156 c 2,5,-1
 192 265 l 1,6,-1
 121 374 l 2,7,8
 114 385 114 385 101 408 c 0,9,10
 54 488 54 488 54 525 c 2,11,-1
 54 530 l 1,12,-1
 154 530 l 1,13,-1
 154 525 l 2,14,15
 154 501 154 501 204 424 c 2,16,-1
 250 354 l 1,17,-1
 296 424 l 2,18,19
 346 501 346 501 346 525 c 2,20,-1
 346 530 l 1,21,-1
 446 530 l 1,22,-1
 446 525 l 2,23,24
 446 488 446 488 399 408 c 0,25,26
 386 385 386 385 379 374 c 2,27,-1
 308 265 l 1,28,-1
 379 156 l 2,29,30
 386 145 386 145 399 122 c 0,31,32
 446 42 446 42 446 5 c 2,33,-1
 446 0 l 1,34,-1
 346 0 l 1,35,-1
 346 5 l 2,36,37
 346 29 346 29 296 106 c 2,38,-1
 250 176 l 1,39,-1
 204 106 l 2,40,41
 154 29 154 29 154 5 c 2,42,-1
 154 0 l 1,43,-1
 54 0 l 1,0,-1
EndSplineSet
EndChar

StartChar: y
Encoding: 121 121 92
Width: 500
GlyphClass: 2
Flags: W
FFAnchorPoint: "Anchor-5" 446 -205 basechar 0
FFAnchorPoint: "Anchor-4" 446 530 basechar 0
FFAnchorPoint: "Anchor-3" 250 162 basechar 0
FFAnchorPoint: "Anchor-2" 250 177 basechar 0
FFAnchorPoint: "Anchor-1" 250 -205 basechar 0
FFAnchorPoint: "Anchor-0" 250 530 basechar 0
LayerCount: 2
Fore
SplineSet
150 -205 m 1,0,-1
 150 -198 l 2,1,2
 150 -136 150 -136 163 -100 c 2,3,-1
 200 9 l 1,4,-1
 88 322 l 2,5,6
 54 417 54 417 54 493 c 2,7,-1
 54 530 l 1,8,-1
 154 530 l 1,9,-1
 154 493 l 2,10,11
 154 438 154 438 183 351 c 2,12,-1
 249 151 l 1,13,-1
 317 351 l 2,14,15
 346 434 346 434 346 493 c 2,16,-1
 346 530 l 1,17,-1
 446 530 l 1,18,-1
 446 493 l 2,19,20
 446 421 446 421 412 322 c 2,21,-1
 257 -129 l 2,22,23
 250 -150 250 -150 250 -198 c 2,24,-1
 250 -205 l 1,25,-1
 150 -205 l 1,0,-1
EndSplineSet
EndChar

StartChar: z
Encoding: 122 122 93
Width: 500
GlyphClass: 2
Flags: W
FFAnchorPoint: "Anchor-5" 446 0 basechar 0
FFAnchorPoint: "Anchor-4" 446 530 basechar 0
FFAnchorPoint: "Anchor-3" 250 265 basechar 0
FFAnchorPoint: "Anchor-2" 250 275 basechar 0
FFAnchorPoint: "Anchor-1" 250 0 basechar 0
FFAnchorPoint: "Anchor-0" 250 530 basechar 0
LayerCount: 2
Fore
SplineSet
54 0 m 1,0,-1
 54 90 l 1,1,-1
 326 440 l 1,2,-1
 54 440 l 1,3,-1
 54 530 l 1,4,-1
 446 530 l 1,5,-1
 446 440 l 1,6,-1
 174 90 l 1,7,-1
 446 90 l 1,8,-1
 446 0 l 1,9,-1
 54 0 l 1,0,-1
EndSplineSet
EndChar

StartChar: braceleft
Encoding: 123 123 94
Width: 500
GlyphClass: 2
Flags: W
LayerCount: 2
Fore
SplineSet
426 -179 m 1,0,1
 340 -179 340 -179 283 -146 c 0,2,3
 242 -122 242 -122 221 -85.5 c 128,-1,4
 200 -49 200 -49 200 -2 c 2,5,-1
 200 189 l 2,6,7
 200 232 200 232 182 263 c 0,8,9
 168 288 168 288 142 303 c 0,10,11
 127 312 127 312 110 316 c 128,-1,12
 93 320 93 320 74 320 c 1,13,-1
 74 410 l 1,14,15
 93 410 93 410 110 414 c 128,-1,16
 127 418 127 418 142 427 c 0,17,18
 168 442 168 442 182 467 c 0,19,20
 200 498 200 498 200 541 c 2,21,-1
 200 732 l 2,22,23
 200 779 200 779 221 815.5 c 128,-1,24
 242 852 242 852 283 876 c 0,25,26
 340 909 340 909 426 909 c 1,27,-1
 426 819 l 1,28,29
 374 819 374 819 341 800 c 0,30,31
 320 788 320 788 309 769 c 0,32,33
 300 753 300 753 300 732 c 2,34,-1
 300 541 l 2,35,36
 300 472 300 472 271 421 c 0,37,38
 252 388 252 388 222 365 c 1,39,40
 252 342 252 342 271 309 c 0,41,42
 300 258 300 258 300 189 c 2,43,-1
 300 -2 l 2,44,45
 300 -23 300 -23 309 -39 c 0,46,47
 320 -58 320 -58 341 -70 c 0,48,49
 374 -89 374 -89 426 -89 c 1,50,-1
 426 -179 l 1,0,1
EndSplineSet
Substitution2: "'ss10' Style Set 10 lookup 135 subtable" braceleft.ss10
Substitution2: "'ss11' Style Set 11 lookup 134 subtable" braceleft.ss11
EndChar

StartChar: bar
Encoding: 124 124 95
Width: 500
GlyphClass: 2
Flags: W
FFAnchorPoint: "Anchor-1" 250 -168 basechar 0
FFAnchorPoint: "Anchor-0" 250 898 basechar 0
LayerCount: 2
Fore
SplineSet
200 -168 m 1,0,-1
 200 898 l 1,1,-1
 300 898 l 1,2,-1
 300 -168 l 1,3,-1
 200 -168 l 1,0,-1
EndSplineSet
Substitution2: "Single Substitution lookup 57 subtable" glyph3165
EndChar

StartChar: braceright
Encoding: 125 125 96
Width: 500
GlyphClass: 2
Flags: W
LayerCount: 2
Fore
SplineSet
74 -179 m 1,0,-1
 74 -89 l 1,1,2
 126 -89 126 -89 159 -70 c 0,3,4
 180 -58 180 -58 191 -39 c 0,5,6
 200 -23 200 -23 200 -2 c 2,7,-1
 200 189 l 2,8,9
 200 258 200 258 229 309 c 0,10,11
 248 342 248 342 278 365 c 1,12,13
 248 388 248 388 229 421 c 0,14,15
 200 472 200 472 200 541 c 2,16,-1
 200 732 l 2,17,18
 200 753 200 753 191 769 c 0,19,20
 180 788 180 788 159 800 c 0,21,22
 126 819 126 819 74 819 c 1,23,-1
 74 909 l 1,24,25
 160 909 160 909 217 876 c 0,26,27
 258 852 258 852 279 815.5 c 128,-1,28
 300 779 300 779 300 732 c 2,29,-1
 300 541 l 2,30,31
 300 498 300 498 318 467 c 0,32,33
 332 442 332 442 358 427 c 0,34,35
 373 418 373 418 390 414 c 128,-1,36
 407 410 407 410 426 410 c 1,37,-1
 426 320 l 1,38,39
 407 320 407 320 390 316 c 128,-1,40
 373 312 373 312 358 303 c 0,41,42
 332 288 332 288 318 263 c 0,43,44
 300 232 300 232 300 189 c 2,45,-1
 300 -2 l 2,46,47
 300 -49 300 -49 279 -85.5 c 128,-1,48
 258 -122 258 -122 217 -146 c 0,49,50
 160 -179 160 -179 74 -179 c 1,0,-1
EndSplineSet
Substitution2: "'ss10' Style Set 10 lookup 135 subtable" braceright.ss10
Substitution2: "'ss11' Style Set 11 lookup 134 subtable" braceright.ss11
EndChar

StartChar: asciitilde
Encoding: 126 126 97
Width: 500
GlyphClass: 2
Flags: W
LayerCount: 2
Fore
SplineSet
326 560 m 0,0,1
 302 560 302 560 281 572 c 0,2,3
 252 588 252 588 211 650 c 0,4,5
 189 684 189 684 177 696 c 2,6,-1
 176 697 l 1,7,-1
 174 699 l 1,8,9
 171 697 171 697 168 694 c 0,10,11
 154 679 154 679 138 651 c 0,12,13
 119 619 119 619 95 563 c 1,14,-1
 13 595 l 1,15,16
 36 650 36 650 58 688 c 0,17,18
 92 748 92 748 128 769 c 1,19,20
 151 781 151 781 174 781 c 0,21,22
 198 781 198 781 219 769 c 0,23,24
 248 753 248 753 289 691 c 0,25,26
 311 657 311 657 323 645 c 2,27,-1
 324 644 l 1,28,-1
 326 642 l 1,29,30
 343 656 343 656 362 690 c 0,31,32
 381 722 381 722 405 778 c 1,33,-1
 487 746 l 1,34,35
 464 691 464 691 442 653 c 0,36,37
 408 593 408 593 372 572 c 1,38,39
 349 560 349 560 326 560 c 0,0,1
EndSplineSet
Substitution2: "'ss10' Style Set 10 lookup 148 subtable" asciitilde.ss10
Substitution2: "'ss11' Style Set 11 lookup 147 subtable" asciitilde.ss11
Substitution2: "Single Substitution lookup 85 subtable" asciitilde.ss10
Substitution2: "Single Substitution lookup 45 subtable" asciitilde.ss10
Substitution2: "Single Substitution lookup 44 subtable" asciitilde.ss10
EndChar

StartChar: exclamdown
Encoding: 161 161 99
Width: 500
GlyphClass: 2
Flags: W
LayerCount: 2
Fore
SplineSet
250 382 m 256,0,1
 225 382 225 382 207 392 c 0,2,3
 192 401 192 401 182 417 c 0,4,5
 172 435 172 435 172 460 c 128,-1,6
 172 485 172 485 182 503 c 0,7,8
 192 519 192 519 207 528 c 0,9,10
 225 538 225 538 250 538 c 256,11,12
 275 538 275 538 293 528 c 0,13,14
 308 519 308 519 318 503 c 0,15,16
 328 485 328 485 328 460 c 128,-1,17
 328 435 328 435 318 417 c 0,18,19
 308 401 308 401 293 392 c 0,20,21
 275 382 275 382 250 382 c 256,0,1
200 -205 m 1,22,-1
 200 270 l 1,23,-1
 300 270 l 1,24,-1
 300 -205 l 1,25,-1
 200 -205 l 1,22,-1
EndSplineSet
EndChar

StartChar: cent
Encoding: 162 162 100
Width: 500
GlyphClass: 2
Flags: W
FFAnchorPoint: "Anchor-5" 446 0 basechar 0
FFAnchorPoint: "Anchor-4" 446 530 basechar 0
FFAnchorPoint: "Anchor-3" 250 265 basechar 0
FFAnchorPoint: "Anchor-2" 250 275 basechar 0
FFAnchorPoint: "Anchor-1" 250 0 basechar 0
FFAnchorPoint: "Anchor-0" 250 530 basechar 0
LayerCount: 2
Fore
SplineSet
200 -103 m 1,0,-1
 200 -3 l 1,1,2
 170 4 170 4 146 18 c 0,3,4
 103 42 103 42 78 86 c 0,5,6
 46 141 46 141 46 220 c 2,7,-1
 46 310 l 2,8,9
 46 389 46 389 78 444 c 0,10,11
 103 488 103 488 146 512 c 0,12,13
 170 526 170 526 200 533 c 1,14,-1
 200 633 l 1,15,-1
 300 633 l 1,16,-1
 300 533 l 1,17,18
 331 527 331 527 357 512 c 0,19,20
 400 488 400 488 425 443 c 0,21,22
 443 412 443 412 451 375 c 1,23,-1
 356 348 l 1,24,25
 351 376 351 376 338 397 c 1,26,27
 324 423 324 423 301 436 c 0,28,29
 280 448 280 448 252 448 c 256,30,31
 224 448 224 448 203 436 c 0,32,33
 181 423 181 423 166 398 c 0,34,35
 146 363 146 363 146 310 c 2,36,-1
 146 220 l 2,37,38
 146 167 146 167 166 132 c 0,39,40
 181 107 181 107 203 94 c 0,41,42
 224 82 224 82 252 82 c 256,43,44
 280 82 280 82 301 94 c 0,45,46
 324 107 324 107 338 133 c 1,47,48
 351 154 351 154 356 182 c 1,49,-1
 451 155 l 1,50,51
 443 118 443 118 425 87 c 0,52,53
 400 42 400 42 357 18 c 0,54,55
 331 3 331 3 300 -3 c 1,56,-1
 300 -103 l 1,57,-1
 200 -103 l 1,0,-1
EndSplineSet
EndChar

StartChar: sterling
Encoding: 163 163 101
Width: 500
GlyphClass: 2
Flags: W
LayerCount: 2
Fore
SplineSet
54 0 m 1,0,-1
 54 90 l 1,1,2
 85 112 85 112 105 146 c 0,3,4
 133 193 133 193 132 284 c 1,5,-1
 132 350 l 1,6,-1
 74 350 l 1,7,-1
 74 429 l 1,8,-1
 132 429 l 1,9,-1
 132 532 l 1,10,11
 133 617 133 617 164 671 c 0,12,13
 185 707 185 707 217 726 c 0,14,15
 247 743 247 743 285 743 c 0,16,17
 324 743 324 743 353 726 c 0,18,19
 386 707 386 707 406 671 c 1,20,21
 424 641 424 641 431 603 c 1,22,-1
 341 565 l 1,23,24
 334 619 334 619 312 642 c 1,25,26
 300 653 300 653 285 653 c 0,27,28
 271 653 271 653 261 643 c 0,29,30
 233 614 233 614 232 532 c 1,31,-1
 232 429 l 1,32,-1
 328 429 l 1,33,-1
 328 350 l 1,34,-1
 232 350 l 1,35,-1
 232 284 l 1,36,37
 233 163 233 163 197 101 c 0,38,39
 194 95 194 95 190 90 c 1,40,-1
 446 90 l 1,41,-1
 446 0 l 1,42,-1
 54 0 l 1,0,-1
EndSplineSet
EndChar

StartChar: currency
Encoding: 164 164 102
Width: 500
GlyphClass: 2
Flags: W
LayerCount: 2
Fore
SplineSet
87 139 m 1,0,-1
 21 199 l 1,1,-1
 88 267 l 1,2,3
 65 308 65 308 66 365 c 1,4,5
 65 422 65 422 88 463 c 1,6,-1
 21 531 l 1,7,-1
 87 591 l 1,8,-1
 152 527 l 1,9,10
 193 549 193 549 250 549 c 256,11,12
 307 549 307 549 348 527 c 1,13,-1
 413 591 l 1,14,-1
 479 531 l 1,15,-1
 412 463 l 1,16,17
 435 422 435 422 434 365 c 1,18,19
 435 308 435 308 412 267 c 1,20,-1
 479 199 l 1,21,-1
 413 139 l 1,22,-1
 348 203 l 1,23,24
 307 181 307 181 250 181 c 256,25,26
 193 181 193 181 152 203 c 1,27,-1
 87 139 l 1,0,-1
250 265 m 256,28,29
 277 265 277 265 297 276 c 0,30,31
 316 287 316 287 327 307 c 1,32,33
 341 330 341 330 341 365 c 128,-1,34
 341 400 341 400 327 423 c 1,35,36
 316 443 316 443 297 454 c 0,37,38
 277 465 277 465 250 465 c 256,39,40
 223 465 223 465 203 454 c 0,41,42
 184 443 184 443 173 423 c 1,43,44
 159 400 159 400 159 365 c 128,-1,45
 159 330 159 330 173 307 c 1,46,47
 184 287 184 287 203 276 c 0,48,49
 223 265 223 265 250 265 c 256,28,29
EndSplineSet
EndChar

StartChar: yen
Encoding: 165 165 103
Width: 500
GlyphClass: 2
Flags: W
FFAnchorPoint: "Anchor-5" 446 0 basechar 0
FFAnchorPoint: "Anchor-4" 446 735 basechar 0
FFAnchorPoint: "Anchor-3" 250 367 basechar 0
FFAnchorPoint: "Anchor-2" 250 294 basechar 0
FFAnchorPoint: "Anchor-1" 250 0 basechar 0
FFAnchorPoint: "Anchor-0" 250 735 basechar 0
LayerCount: 2
Fore
SplineSet
200 0 m 1,0,-1
 200 144 l 1,1,-1
 54 144 l 1,2,-1
 54 223 l 1,3,-1
 200 223 l 1,4,-1
 200 283 l 1,5,-1
 196 291 l 1,6,-1
 54 291 l 1,7,-1
 54 370 l 1,8,-1
 156 370 l 1,9,-1
 118 445 l 2,10,11
 54 570 54 570 54 691 c 2,12,-1
 54 735 l 1,13,-1
 154 735 l 1,14,-1
 154 691 l 2,15,16
 154 589 154 589 207 486 c 2,17,-1
 250 402 l 1,18,-1
 293 486 l 2,19,20
 346 589 346 589 346 691 c 2,21,-1
 346 735 l 1,22,-1
 446 735 l 1,23,-1
 446 691 l 2,24,25
 446 570 446 570 382 445 c 2,26,-1
 344 370 l 1,27,-1
 446 370 l 1,28,-1
 446 291 l 1,29,-1
 304 291 l 1,30,-1
 300 283 l 1,31,-1
 300 223 l 1,32,-1
 446 223 l 1,33,-1
 446 144 l 1,34,-1
 300 144 l 1,35,-1
 300 0 l 1,36,-1
 200 0 l 1,0,-1
EndSplineSet
EndChar

StartChar: brokenbar
Encoding: 166 166 104
Width: 500
GlyphClass: 2
Flags: W
LayerCount: 2
Fore
SplineSet
200 411 m 1,0,-1
 200 898 l 1,1,-1
 300 898 l 1,2,-1
 300 411 l 1,3,-1
 200 411 l 1,0,-1
200 -168 m 1,4,-1
 200 319 l 1,5,-1
 300 319 l 1,6,-1
 300 -168 l 1,7,-1
 200 -168 l 1,4,-1
EndSplineSet
EndChar

StartChar: section
Encoding: 167 167 105
Width: 500
GlyphClass: 2
Flags: W
LayerCount: 2
Fore
SplineSet
246 -168 m 0,0,1
 182 -168 182 -168 136 -142 c 1,2,3
 96 -118 96 -118 72 -77 c 0,4,5
 55 -48 55 -48 49 -13 c 1,6,-1
 146 8 l 1,7,8
 150 -14 150 -14 160 -31 c 0,9,10
 173 -53 173 -53 194 -65.5 c 128,-1,11
 215 -78 215 -78 246 -78 c 0,12,13
 276 -78 276 -78 299 -65 c 0,14,15
 319 -53 319 -53 332 -32 c 1,16,17
 346 -6 346 -6 346 24 c 128,-1,18
 346 54 346 54 330 82 c 0,19,20
 311 116 311 116 266 142 c 0,21,22
 251 151 251 151 219 166 c 0,23,24
 218 166 218 166 216 167 c 0,25,26
 180 184 180 184 163 194 c 0,27,28
 106 227 106 227 79 274 c 0,29,30
 54 317 54 317 54 364 c 0,31,32
 54 419 54 419 83 468 c 0,33,34
 106 508 106 508 142 536 c 1,35,36
 103 564 103 564 81 602 c 0,37,38
 54 649 54 649 54 703 c 0,39,40
 54 760 54 760 81 807 c 0,41,42
 105 848 105 848 146 871 c 0,43,44
 192 898 192 898 257 898 c 256,45,46
 322 898 322 898 368 871 c 0,47,48
 409 848 409 848 433 807 c 0,49,50
 450 777 450 777 456 743 c 1,51,-1
 359 722 l 1,52,53
 355 744 355 744 345 760 c 1,54,55
 333 782 333 782 310.5 795 c 128,-1,56
 288 808 288 808 257 808 c 0,57,58
 225 808 225 808 201 795 c 1,59,60
 180 782 180 782 168 761 c 0,61,62
 154 736 154 736 154 706 c 128,-1,63
 154 676 154 676 170 648 c 0,64,65
 189 614 189 614 235 588 c 0,66,67
 247 581 247 581 281 564 c 0,68,69
 319 546 319 546 337 536 c 0,70,71
 394 503 394 503 421 456 c 0,72,73
 446 413 446 413 446 366 c 0,74,75
 446 311 446 311 417 262 c 0,76,77
 394 222 394 222 358 194 c 1,78,79
 397 166 397 166 419 128 c 0,80,81
 446 81 446 81 446 27 c 0,82,83
 446 -30 446 -30 419 -77 c 0,84,85
 395 -118 395 -118 355 -142 c 1,86,87
 309 -168 309 -168 246 -168 c 0,0,1
260 244 m 1,88,89
 268 247 268 247 276 252 c 0,90,91
 310 271 310 271 329 304 c 0,92,93
 346 334 346 334 346 366 c 0,94,95
 346 393 346 393 332 417 c 0,96,97
 315 446 315 446 279 468 c 0,98,99
 266 475 266 475 240 486 c 1,100,101
 232 483 232 483 224 478 c 0,102,103
 190 459 190 459 171 426 c 0,104,105
 154 396 154 396 154 364 c 0,106,107
 154 337 154 337 168 313 c 0,108,109
 185 284 185 284 221 262 c 0,110,111
 234 255 234 255 260 244 c 1,88,89
EndSplineSet
EndChar

StartChar: copyright
Encoding: 169 169 107
Width: 500
GlyphClass: 2
Flags: W
LayerCount: 2
Fore
SplineSet
250 -22 m 256,0,1
 177 -22 177 -22 125 8 c 0,2,3
 79 34 79 34 52 80 c 0,4,5
 22 133 22 133 22 206 c 2,6,-1
 22 524 l 2,7,8
 22 597 22 597 52 650 c 0,9,10
 79 696 79 696 125 722 c 0,11,12
 177 752 177 752 250 752 c 256,13,14
 323 752 323 752 375 722 c 0,15,16
 421 696 421 696 448 650 c 0,17,18
 478 597 478 597 478 524 c 2,19,-1
 478 206 l 2,20,21
 478 133 478 133 448 80 c 0,22,23
 421 34 421 34 375 8 c 0,24,25
 323 -22 323 -22 250 -22 c 256,0,1
250 158 m 0,26,27
 207 158 207 158 176 176 c 0,28,29
 151 191 151 191 138 214 c 0,30,31
 123 240 123 240 123 275 c 2,32,-1
 123 455 l 2,33,34
 123 490 123 490 138 516 c 0,35,36
 151 539 151 539 176 554 c 0,37,38
 207 572 207 572 250 572 c 0,39,40
 294 572 294 572 325 554 c 0,41,42
 349 540 349 540 363 516 c 0,43,44
 373 499 373 499 375 482 c 1,45,-1
 304 464 l 1,46,47
 302 479 302 479 291 490 c 0,48,49
 277 505 277 505 250 505 c 0,50,51
 225 505 225 505 210 490 c 0,52,53
 197 477 197 477 197 455 c 2,54,-1
 197 275 l 2,55,56
 197 253 197 253 210 240 c 0,57,58
 225 225 225 225 250 225 c 0,59,60
 277 225 277 225 291 240 c 0,61,62
 302 251 302 251 304 266 c 1,63,-1
 375 248 l 1,64,65
 373 231 373 231 363 214 c 0,66,67
 349 190 349 190 325 176 c 0,68,69
 294 158 294 158 250 158 c 0,26,27
250 37 m 256,70,71
 301 37 301 37 337 58 c 0,72,73
 370 77 370 77 390 111 c 0,74,75
 413 151 413 151 412 206 c 1,76,-1
 412 524 l 1,77,78
 413 579 413 579 390 619 c 0,79,80
 370 653 370 653 337 672 c 0,81,82
 301 693 301 693 250 693 c 256,83,84
 199 693 199 693 163 672 c 0,85,86
 130 653 130 653 110 619 c 0,87,88
 87 579 87 579 88 524 c 1,89,-1
 88 206 l 1,90,91
 87 151 87 151 110 111 c 0,92,93
 130 77 130 77 163 58 c 0,94,95
 199 37 199 37 250 37 c 256,70,71
EndSplineSet
EndChar

StartChar: ordfeminine
Encoding: 170 170 108
Width: 500
GlyphClass: 2
Flags: W
LayerCount: 2
Fore
SplineSet
211 358 m 0,0,1
 171 358 171 358 142 375 c 0,2,3
 118 389 118 389 104 413 c 0,4,5
 88 440 88 440 88 476 c 0,6,7
 88 509 88 509 102 532 c 1,8,9
 117 559 117 559 148 576 c 1,10,11
 194 603 194 603 266 603 c 2,12,-1
 312 603 l 1,13,-1
 312 619 l 1,14,15
 313 631 313 631 304 640 c 0,16,17
 287 656 287 656 248 656 c 0,18,19
 213 656 213 656 194 638 c 1,20,21
 185 628 185 628 180 616 c 1,22,-1
 92 644 l 1,23,24
 96 657 96 657 103 669 c 0,25,26
 122 701 122 701 153 719 c 0,27,28
 190 741 190 741 248 741 c 0,29,30
 309 741 309 741 349 717 c 0,31,32
 377 701 377 701 393 675 c 1,33,34
 406 651 406 651 406 619 c 2,35,-1
 406 364 l 1,36,-1
 312 364 l 1,37,-1
 312 406 l 1,38,39
 298 387 298 387 277 375 c 0,40,41
 249 358 249 358 211 358 c 0,0,1
244 443 m 0,42,43
 268 443 268 443 285 452 c 0,44,45
 298 460 298 460 305 472 c 0,46,47
 311 484 311 484 312 498 c 1,48,-1
 312 519 l 1,49,-1
 266 519 l 2,50,51
 212 519 212 519 191 498 c 0,52,53
 182 489 182 489 182 477 c 0,54,55
 182 466 182 466 190 459 c 1,56,57
 205 443 205 443 244 443 c 0,42,43
113 221 m 1,58,-1
 113 284 l 1,59,-1
 387 284 l 1,60,-1
 387 221 l 1,61,-1
 113 221 l 1,58,-1
EndSplineSet
EndChar

StartChar: logicalnot
Encoding: 172 172 110
Width: 500
GlyphClass: 2
Flags: W
LayerCount: 2
Fore
SplineSet
346 149 m 1,0,-1
 346 320 l 1,1,-1
 54 320 l 1,2,-1
 54 410 l 1,3,-1
 446 410 l 1,4,-1
 446 149 l 1,5,-1
 346 149 l 1,0,-1
EndSplineSet
EndChar

StartChar: registered
Encoding: 174 174 112
Width: 500
GlyphClass: 2
Flags: W
LayerCount: 2
Fore
SplineSet
250 -22 m 256,0,1
 177 -22 177 -22 125 8 c 0,2,3
 79 34 79 34 52 80 c 0,4,5
 22 133 22 133 22 206 c 2,6,-1
 22 524 l 2,7,8
 22 597 22 597 52 650 c 0,9,10
 79 696 79 696 125 722 c 0,11,12
 177 752 177 752 250 752 c 256,13,14
 323 752 323 752 375 722 c 0,15,16
 421 696 421 696 448 650 c 0,17,18
 478 597 478 597 478 524 c 2,19,-1
 478 206 l 2,20,21
 478 133 478 133 448 80 c 0,22,23
 421 34 421 34 375 8 c 0,24,25
 323 -22 323 -22 250 -22 c 256,0,1
127 163 m 1,26,-1
 127 567 l 1,27,-1
 256 567 l 2,28,29
 293 567 293 567 320 552 c 0,30,31
 344 538 344 538 360 512 c 1,32,33
 377 481 377 481 377 438 c 128,-1,34
 377 395 377 395 360 364 c 1,35,36
 344 338 344 338 320 324 c 0,37,38
 316 322 316 322 312 320 c 1,39,40
 328 297 328 297 340 276 c 0,41,42
 377 212 377 212 377 163 c 1,43,-1
 303 163 l 1,44,45
 303 199 303 199 276 246 c 0,46,47
 259 275 259 275 232 309 c 1,48,-1
 201 309 l 1,49,-1
 201 163 l 1,50,-1
 127 163 l 1,26,-1
256 375 m 2,51,52
 274 375 274 375 286 387 c 0,53,54
 303 404 303 404 303 438 c 128,-1,55
 303 472 303 472 286 489 c 0,56,57
 274 501 274 501 256 501 c 2,58,-1
 201 501 l 1,59,-1
 201 375 l 1,60,-1
 256 375 l 2,51,52
250 37 m 256,61,62
 301 37 301 37 337 58 c 0,63,64
 370 77 370 77 390 111 c 0,65,66
 413 151 413 151 412 206 c 1,67,-1
 412 524 l 1,68,69
 413 579 413 579 390 619 c 0,70,71
 370 653 370 653 337 672 c 0,72,73
 301 693 301 693 250 693 c 256,74,75
 199 693 199 693 163 672 c 0,76,77
 130 653 130 653 110 619 c 0,78,79
 87 579 87 579 88 524 c 1,80,-1
 88 206 l 1,81,82
 87 151 87 151 110 111 c 0,83,84
 130 77 130 77 163 58 c 0,85,86
 199 37 199 37 250 37 c 256,61,62
EndSplineSet
EndChar

StartChar: macron
Encoding: 175 175 113
Width: 500
GlyphClass: 2
Flags: W
FFAnchorPoint: "Anchor-5" 446 0 basechar 0
FFAnchorPoint: "Anchor-4" 446 530 basechar 0
FFAnchorPoint: "Anchor-3" 250 265 basechar 0
FFAnchorPoint: "Anchor-2" 250 275 basechar 0
FFAnchorPoint: "Anchor-1" 250 0 basechar 0
FFAnchorPoint: "Anchor-0" 250 743 basechar 0
LayerCount: 2
Fore
SplineSet
100 641 m 1,0,-1
 100 729 l 1,1,-1
 400 729 l 1,2,-1
 400 641 l 1,3,-1
 100 641 l 1,0,-1
EndSplineSet
EndChar

StartChar: degree
Encoding: 176 176 114
Width: 500
GlyphClass: 2
Flags: W
FFAnchorPoint: "Anchor-5" 446 0 basechar 0
FFAnchorPoint: "Anchor-4" 446 530 basechar 0
FFAnchorPoint: "Anchor-3" 250 265 basechar 0
FFAnchorPoint: "Anchor-2" 250 275 basechar 0
FFAnchorPoint: "Anchor-1" 250 0 basechar 0
FFAnchorPoint: "Anchor-0" 250 743 basechar 0
LayerCount: 2
Fore
SplineSet
250 507 m 256,0,1
 205 507 205 507 174 526 c 0,2,3
 146 542 146 542 129 570 c 1,4,5
 111 602 111 602 111 646.5 c 128,-1,6
 111 691 111 691 129 723 c 1,7,8
 146 751 146 751 174 767 c 0,9,10
 205 785 205 785 250 785 c 256,11,12
 295 785 295 785 326 767 c 0,13,14
 354 751 354 751 371 723 c 1,15,16
 389 691 389 691 389 646.5 c 128,-1,17
 389 602 389 602 371 570 c 1,18,19
 354 542 354 542 326 526 c 0,20,21
 295 507 295 507 250 507 c 256,0,1
250 598 m 256,22,23
 273 598 273 598 285.5 611 c 128,-1,24
 298 624 298 624 299 646 c 1,25,26
 298 669 298 669 285.5 682 c 128,-1,27
 273 695 273 695 250 695 c 256,28,29
 227 695 227 695 214.5 682 c 128,-1,30
 202 669 202 669 201 646 c 1,31,32
 202 624 202 624 214.5 611 c 128,-1,33
 227 598 227 598 250 598 c 256,22,23
EndSplineSet
EndChar

StartChar: uni00B2
Encoding: 178 178 116
Width: 500
GlyphClass: 2
Flags: W
FFAnchorPoint: "Anchor-5" 406 298 basechar 0
FFAnchorPoint: "Anchor-4" 406 812 basechar 0
FFAnchorPoint: "Anchor-3" 250 555 basechar 0
FFAnchorPoint: "Anchor-2" 250 565 basechar 0
FFAnchorPoint: "Anchor-1" 250 298 basechar 0
FFAnchorPoint: "Anchor-0" 250 812 basechar 0
LayerCount: 2
Fore
SplineSet
406 298 m 1,0,-1
 94 299 l 1,1,2
 94 397 94 397 125 450 c 1,3,4
 150 495 150 495 223 549 c 0,5,6
 284 593 284 593 302 624 c 0,7,8
 316 649 316 649 315 671 c 1,9,10
 316 698 316 698 298 715 c 1,11,12
 287 727 287 727 270 731 c 0,13,14
 260 734 260 734 248 734 c 0,15,16
 215 734 215 734 197 716 c 0,17,18
 182 701 182 701 181 681 c 1,19,-1
 90 704 l 1,20,21
 94 727 94 727 106 747 c 0,22,23
 124 779 124 779 155 796 c 1,24,25
 192 818 192 818 248 818 c 0,26,27
 301 818 301 818 339 796 c 0,28,29
 371 778 371 778 389 746 c 0,30,31
 409 712 409 712 409 671.5 c 128,-1,32
 409 631 409 631 388 593 c 0,33,34
 366 555 366 555 300 504.5 c 128,-1,35
 234 454 234 454 212 415 c 0,36,37
 204 401 204 401 198 382 c 1,38,-1
 406 382 l 1,39,-1
 406 298 l 1,0,-1
EndSplineSet
EndChar

StartChar: uni00B3
Encoding: 179 179 117
Width: 500
GlyphClass: 2
Flags: W
FFAnchorPoint: "Anchor-5" 406 298 basechar 0
FFAnchorPoint: "Anchor-4" 406 812 basechar 0
FFAnchorPoint: "Anchor-3" 250 555 basechar 0
FFAnchorPoint: "Anchor-2" 250 565 basechar 0
FFAnchorPoint: "Anchor-1" 250 298 basechar 0
FFAnchorPoint: "Anchor-0" 250 812 basechar 0
LayerCount: 2
Fore
SplineSet
248 298 m 256,0,1
 193 298 193 298 154 320 c 0,2,3
 123 338 123 338 105 370 c 0,4,5
 95 386 95 386 90 407 c 1,6,-1
 179 433 l 1,7,8
 183 414 183 414 196 401 c 0,9,10
 215 382 215 382 248 382 c 0,11,12
 271 382 271 382 286 391 c 0,13,14
 300 399 300 399 309 414 c 0,15,16
 318 430 318 430 318 452.5 c 128,-1,17
 318 475 318 475 309 491 c 0,18,19
 300 506 300 506 287 513 c 0,20,21
 271 522 271 522 250 522 c 2,22,-1
 172 522 l 1,23,-1
 172 607 l 1,24,-1
 286 728 l 1,25,-1
 94 728 l 1,26,-1
 94 813 l 1,27,-1
 398 813 l 1,28,-1
 398 728 l 1,29,-1
 284 607 l 1,30,-1
 284 604 l 1,31,32
 316 599 316 599 341 585 c 0,33,34
 373 567 373 567 392 535 c 0,35,36
 412 500 412 500 412 453 c 0,37,38
 412 405 412 405 392 371 c 0,39,40
 373 339 373 339 341 320 c 0,41,42
 303 298 303 298 248 298 c 256,0,1
EndSplineSet
EndChar

StartChar: acute
Encoding: 180 180 118
Width: 500
GlyphClass: 2
Flags: W
LayerCount: 2
Fore
SplineSet
218 526 m 1,0,-1
 152 581 l 1,1,-1
 341 796 l 1,2,-1
 421 728 l 1,3,-1
 218 526 l 1,0,-1
EndSplineSet
EndChar

StartChar: uni00B5
Encoding: 181 181 119
Width: 500
GlyphClass: 2
Flags: W
FFAnchorPoint: "Anchor-5" 446 -205 basechar 0
FFAnchorPoint: "Anchor-4" 446 530 basechar 0
FFAnchorPoint: "Anchor-3" 250 162 basechar 0
FFAnchorPoint: "Anchor-2" 250 177 basechar 0
FFAnchorPoint: "Anchor-1" 250 -205 basechar 0
FFAnchorPoint: "Anchor-0" 250 530 basechar 0
LayerCount: 2
Fore
SplineSet
54 -205 m 1,0,-1
 54 530 l 1,1,-1
 154 530 l 1,2,-1
 154 220 l 2,3,4
 154 163 154 163 175 128 c 1,5,6
 188 104 188 104 209 92 c 0,7,8
 226 82 226 82 250 82 c 256,9,10
 274 82 274 82 291 92 c 0,11,12
 312 104 312 104 325 128 c 1,13,14
 346 163 346 163 346 220 c 2,15,-1
 346 530 l 1,16,-1
 446 530 l 1,17,-1
 446 0 l 1,18,-1
 346 0 l 1,19,-1
 346 71 l 1,20,-1
 345 69 l 1,21,22
 322 30 322 30 288 10 c 0,23,24
 257 -8 257 -8 216 -8 c 0,25,26
 179 -8 179 -8 150 7 c 1,27,28
 154 -50 154 -50 154 -103 c 2,29,-1
 154 -205 l 1,30,-1
 54 -205 l 1,0,-1
EndSplineSet
EndChar

StartChar: paragraph
Encoding: 182 182 120
Width: 500
GlyphClass: 2
Flags: W
LayerCount: 2
Fore
SplineSet
359 0 m 1,0,-1
 359 735 l 1,1,-1
 451 735 l 1,2,-1
 451 0 l 1,3,-1
 359 0 l 1,0,-1
225 0 m 1,4,-1
 225 327 l 1,5,6
 175 327 175 327 138 348.5 c 128,-1,7
 101 370 101 370 78 410 c 0,8,9
 50 459 50 459 49 531 c 1,10,11
 50 603 50 603 78 651 c 0,12,13
 101 691 101 691 138 712.5 c 128,-1,14
 175 734 175 734 225 735 c 1,15,-1
 316 735 l 1,16,-1
 316 0 l 1,17,-1
 225 0 l 1,4,-1
225 409 m 1,18,-1
 225 653 l 1,19,20
 206 652 206 652 189 643 c 1,21,22
 171 632 171 632 159 611 c 0,23,24
 140 579 140 579 141 531 c 1,25,26
 140 482 140 482 159 451 c 0,27,28
 171 430 171 430 189 419 c 0,29,30
 206 409 206 409 225 409 c 1,18,-1
EndSplineSet
Substitution2: "Single Substitution lookup 140 subtable" paragraph.cv23
Substitution2: "'ss11' Style Set 11 lookup 139 subtable" paragraph.ss11
EndChar

StartChar: cedilla
Encoding: 184 184 122
Width: 500
GlyphClass: 2
Flags: W
FFAnchorPoint: "Anchor-5" 446 0 basechar 0
FFAnchorPoint: "Anchor-4" 446 530 basechar 0
FFAnchorPoint: "Anchor-3" 250 265 basechar 0
FFAnchorPoint: "Anchor-2" 250 275 basechar 0
FFAnchorPoint: "Anchor-1" 250 -213 basechar 0
FFAnchorPoint: "Anchor-0" 250 530 basechar 0
LayerCount: 2
Fore
SplineSet
150 -214 m 1,0,-1
 150 -134 l 1,1,-1
 250 -134 l 2,2,3
 269 -134 269 -134 269 -117 c 128,-1,4
 269 -100 269 -100 250 -100 c 2,5,-1
 206 -100 l 1,6,-1
 206 0 l 1,7,-1
 294 0 l 1,8,-1
 294 -27 l 1,9,10
 304 -30 304 -30 313 -35 c 0,11,12
 334 -47 334 -47 346 -67.5 c 128,-1,13
 358 -88 358 -88 358 -117 c 128,-1,14
 358 -146 358 -146 346 -166.5 c 128,-1,15
 334 -187 334 -187 313 -199 c 0,16,17
 288 -214 288 -214 250 -214 c 2,18,-1
 150 -214 l 1,0,-1
EndSplineSet
EndChar

StartChar: uni00B9
Encoding: 185 185 123
Width: 500
GlyphClass: 2
Flags: W
FFAnchorPoint: "Anchor-5" 406 298 basechar 0
FFAnchorPoint: "Anchor-4" 406 812 basechar 0
FFAnchorPoint: "Anchor-3" 250 555 basechar 0
FFAnchorPoint: "Anchor-2" 250 565 basechar 0
FFAnchorPoint: "Anchor-1" 250 298 basechar 0
FFAnchorPoint: "Anchor-0" 250 812 basechar 0
LayerCount: 2
Fore
SplineSet
224 298 m 1,0,-1
 224 700 l 1,1,-1
 181 665 l 1,2,-1
 122 731 l 1,3,-1
 224 813 l 1,4,-1
 318 813 l 1,5,-1
 318 298 l 1,6,-1
 224 298 l 1,0,-1
EndSplineSet
EndChar

StartChar: ordmasculine
Encoding: 186 186 124
Width: 500
GlyphClass: 2
Flags: W
LayerCount: 2
Fore
SplineSet
250 358 m 256,0,1
 197 358 197 358 161 380 c 1,2,3
 128 398 128 398 109 431 c 0,4,5
 88 467 88 467 88 518 c 2,6,-1
 88 581 l 2,7,8
 88 632 88 632 109 668 c 0,9,10
 128 701 128 701 161 719 c 1,11,12
 197 741 197 741 250 741 c 256,13,14
 303 741 303 741 339 719 c 1,15,16
 372 701 372 701 391 668 c 0,17,18
 412 632 412 632 412 581 c 2,19,-1
 412 518 l 2,20,21
 412 467 412 467 391 431 c 0,22,23
 372 398 372 398 339 380 c 1,24,25
 303 358 303 358 250 358 c 256,0,1
113 221 m 1,26,-1
 113 284 l 1,27,-1
 387 284 l 1,28,-1
 387 221 l 1,29,-1
 113 221 l 1,26,-1
250 443 m 256,30,31
 270 443 270 443 284.5 451 c 128,-1,32
 299 459 299 459 308 474 c 0,33,34
 318 492 318 492 318 518 c 2,35,-1
 318 581 l 2,36,37
 318 607 318 607 308 625 c 0,38,39
 299 640 299 640 284.5 648 c 128,-1,40
 270 656 270 656 250 656 c 256,41,42
 230 656 230 656 215.5 648 c 128,-1,43
 201 640 201 640 192 625 c 0,44,45
 182 607 182 607 182 581 c 2,46,-1
 182 518 l 2,47,48
 182 492 182 492 192 474 c 0,49,50
 201 459 201 459 215.5 451 c 128,-1,51
 230 443 230 443 250 443 c 256,30,31
EndSplineSet
EndChar

StartChar: questiondown
Encoding: 191 191 129
Width: 500
GlyphClass: 2
Flags: W
LayerCount: 2
Fore
SplineSet
250 382 m 256,0,1
 225 382 225 382 207 392 c 0,2,3
 192 401 192 401 182 417 c 0,4,5
 172 435 172 435 172 460 c 128,-1,6
 172 485 172 485 182 503 c 0,7,8
 192 519 192 519 207 528 c 0,9,10
 225 538 225 538 250 538 c 256,11,12
 275 538 275 538 293 528 c 0,13,14
 308 519 308 519 318 503 c 0,15,16
 328 485 328 485 328 460 c 128,-1,17
 328 435 328 435 318 417 c 0,18,19
 308 401 308 401 293 392 c 0,20,21
 275 382 275 382 250 382 c 256,0,1
253 -213 m 0,22,23
 187 -213 187 -213 141 -186 c 0,24,25
 101 -163 101 -163 79 -124 c 1,26,27
 54 -82 54 -82 54 -29 c 0,28,29
 54 29 54 29 86 84 c 0,30,31
 100 110 100 110 136 153 c 0,32,33
 166 190 166 190 177 209 c 0,34,35
 200 248 200 248 200 310 c 1,36,-1
 300 309 l 1,37,38
 300 224 300 224 270 171 c 0,39,40
 255 146 255 146 221 105 c 0,41,42
 189 65 189 65 176 44 c 1,43,44
 154 5 154 5 154 -31 c 0,45,46
 154 -58 154 -58 166 -79 c 0,47,48
 177 -98 177 -98 197 -110 c 0,49,50
 220 -123 220 -123 253 -123 c 0,51,52
 288 -123 288 -123 312 -109 c 0,53,54
 331 -98 331 -98 342 -79 c 0,55,56
 352 -62 352 -62 353 -39 c 1,57,-1
 353 -38 l 1,58,-1
 352 -35 l 1,59,-1
 451 -50 l 1,60,61
 450 -89 450 -89 430 -126 c 1,62,63
 407 -164 407 -164 369 -186 c 0,64,65
 322 -213 322 -213 253 -213 c 0,22,23
EndSplineSet
EndChar

StartChar: AE
Encoding: 198 198 136
Width: 500
GlyphClass: 2
Flags: W
FFAnchorPoint: "Anchor-5" 446 0 basechar 0
FFAnchorPoint: "Anchor-4" 446 735 basechar 0
FFAnchorPoint: "Anchor-3" 250 367 basechar 0
FFAnchorPoint: "Anchor-2" 250 382 basechar 0
FFAnchorPoint: "Anchor-1" 250 0 basechar 0
FFAnchorPoint: "Anchor-0" 250 735 basechar 0
LayerCount: 2
Fore
SplineSet
54 0 m 1,0,-1
 54 74 l 2,1,2
 54 275 54 275 183 735 c 1,3,-1
 446 735 l 1,4,-1
 446 645 l 1,5,-1
 326 645 l 1,6,-1
 326 442 l 1,7,-1
 424 442 l 1,8,-1
 424 352 l 1,9,-1
 326 352 l 1,10,-1
 326 90 l 1,11,-1
 446 90 l 1,12,-1
 446 0 l 1,13,-1
 228 0 l 1,14,-1
 228 176 l 1,15,-1
 158 176 l 1,16,17
 152 118 152 118 152 74 c 2,18,-1
 152 0 l 1,19,-1
 54 0 l 1,0,-1
169 265 m 1,20,-1
 228 265 l 1,21,-1
 228 581 l 1,22,23
 188 398 188 398 169 265 c 1,20,-1
EndSplineSet
EndChar

StartChar: Eth
Encoding: 208 208 146
Width: 500
GlyphClass: 2
Flags: W
FFAnchorPoint: "Anchor-5" 446 0 basechar 0
FFAnchorPoint: "Anchor-4" 446 735 basechar 0
FFAnchorPoint: "Anchor-3" 250 367 basechar 0
FFAnchorPoint: "Anchor-2" 250 382 basechar 0
FFAnchorPoint: "Anchor-1" 250 0 basechar 0
FFAnchorPoint: "Anchor-0" 250 735 basechar 0
LayerCount: 2
Fore
SplineSet
54 0 m 1,0,-1
 54 343 l 1,1,-1
 16 343 l 1,2,-1
 16 422 l 1,3,-1
 54 422 l 1,4,-1
 54 735 l 1,5,-1
 223 735 l 2,6,7
 288 735 288 735 338 706 c 0,8,9
 385 679 385 679 415 627 c 0,10,11
 454 560 454 560 454 461 c 2,12,-1
 454 274 l 2,13,14
 454 175 454 175 415 108 c 0,15,16
 385 56 385 56 338 29 c 0,17,18
 288 0 288 0 223 0 c 2,19,-1
 54 0 l 1,0,-1
154 90 m 1,20,-1
 223 90 l 2,21,22
 255 90 255 90 281 105 c 0,23,24
 308 120 308 120 327 152 c 0,25,26
 354 200 354 200 354 274 c 2,27,-1
 354 461 l 2,28,29
 354 535 354 535 327 583 c 0,30,31
 308 615 308 615 281 630 c 0,32,33
 255 645 255 645 223 645 c 2,34,-1
 154 645 l 1,35,-1
 154 422 l 1,36,-1
 261 422 l 1,37,-1
 261 343 l 1,38,-1
 154 343 l 1,39,-1
 154 90 l 1,20,-1
EndSplineSet
EndChar

StartChar: Oslash
Encoding: 216 216 154
Width: 500
GlyphClass: 2
Flags: W
FFAnchorPoint: "Anchor-5" 446 0 basechar 0
FFAnchorPoint: "Anchor-4" 446 735 basechar 0
FFAnchorPoint: "Anchor-3" 250 367 basechar 0
FFAnchorPoint: "Anchor-2" 250 382 basechar 0
FFAnchorPoint: "Anchor-1" 250 0 basechar 0
FFAnchorPoint: "Anchor-0" 250 735 basechar 0
LayerCount: 2
Fore
SplineSet
126 -52 m 1,0,-1
 45 -22 l 1,1,-1
 83 71 l 1,2,3
 78 77 78 77 74 85 c 0,4,5
 46 134 46 134 46 203 c 2,6,-1
 46 532 l 2,7,8
 46 601 46 601 74 650 c 0,9,10
 99 692 99 692 140 717 c 1,11,12
 186 743 186 743 250 743 c 0,13,14
 306 743 306 743 348 723 c 1,15,-1
 374 787 l 1,16,-1
 455 757 l 1,17,-1
 417 664 l 1,18,19
 422 658 422 658 426 650 c 0,20,21
 454 601 454 601 454 532 c 2,22,-1
 454 203 l 2,23,24
 454 134 454 134 426 85 c 0,25,26
 401 43 401 43 360 18 c 1,27,28
 314 -8 314 -8 250 -8 c 0,29,30
 194 -8 194 -8 152 12 c 1,31,-1
 126 -52 l 1,0,-1
250 82 m 256,32,33
 280 82 280 82 302 94.5 c 128,-1,34
 324 107 324 107 337 130 c 0,35,36
 354 160 354 160 354 203 c 2,37,-1
 354 509 l 1,38,-1
 188 101 l 1,39,40
 193 98 193 98 198 95 c 0,41,42
 220 82 220 82 250 82 c 256,32,33
146 226 m 1,43,-1
 312 634 l 1,44,45
 307 637 307 637 302 640 c 0,46,47
 280 653 280 653 250 653 c 256,48,49
 220 653 220 653 198 640.5 c 128,-1,50
 176 628 176 628 163 605 c 0,51,52
 146 575 146 575 146 532 c 2,53,-1
 146 226 l 1,43,-1
EndSplineSet
EndChar

StartChar: Thorn
Encoding: 222 222 160
Width: 500
GlyphClass: 2
Flags: W
FFAnchorPoint: "Anchor-5" 446 0 basechar 0
FFAnchorPoint: "Anchor-4" 446 735 basechar 0
FFAnchorPoint: "Anchor-3" 250 367 basechar 0
FFAnchorPoint: "Anchor-2" 250 382 basechar 0
FFAnchorPoint: "Anchor-1" 250 0 basechar 0
FFAnchorPoint: "Anchor-0" 250 735 basechar 0
LayerCount: 2
Fore
SplineSet
68 0 m 1,0,-1
 68 735 l 1,1,-1
 167 735 l 1,2,-1
 167 595 l 1,3,-1
 218 595 l 2,4,5
 295 595 295 595 351 564 c 1,6,7
 397 537 397 537 425 490 c 1,8,9
 454 438 454 438 454 367.5 c 128,-1,10
 454 297 454 297 425 245 c 1,11,12
 397 198 397 198 351 171 c 1,13,14
 295 140 295 140 218 140 c 2,15,-1
 167 140 l 1,16,-1
 167 0 l 1,17,-1
 68 0 l 1,0,-1
167 230 m 1,18,-1
 218 230 l 2,19,20
 261 230 261 230 292 248 c 0,21,22
 319 263 319 263 336 291 c 1,23,24
 354 323 354 323 354 367.5 c 128,-1,25
 354 412 354 412 336 444 c 1,26,27
 319 472 319 472 292 487 c 0,28,29
 261 505 261 505 218 505 c 2,30,-1
 167 505 l 1,31,-1
 167 230 l 1,18,-1
EndSplineSet
EndChar

StartChar: germandbls
Encoding: 223 223 161
Width: 500
GlyphClass: 2
Flags: W
FFAnchorPoint: "Anchor-5" 446 0 basechar 0
FFAnchorPoint: "Anchor-4" 446 735 basechar 0
FFAnchorPoint: "Anchor-3" 250 367 basechar 0
FFAnchorPoint: "Anchor-2" 250 382 basechar 0
FFAnchorPoint: "Anchor-1" 250 0 basechar 0
FFAnchorPoint: "Anchor-0" 250 735 basechar 0
LayerCount: 2
Fore
SplineSet
54 0 m 1,0,-1
 54 530 l 2,1,2
 54 605 54 605 84 656 c 0,3,4
 107 697 107 697 147 720 c 128,-1,5
 187 743 187 743 242 743 c 0,6,7
 299 743 299 743 341 719 c 0,8,9
 380 696 380 696 402 657 c 0,10,11
 430 609 430 609 430 546.5 c 128,-1,12
 430 484 430 484 399 430 c 0,13,14
 382 401 382 401 359 379 c 1,15,16
 404 353 404 353 429 310 c 0,17,18
 454 266 454 266 454 206.5 c 128,-1,19
 454 147 454 147 428.5 103 c 128,-1,20
 403 59 403 59 358 33 c 0,21,22
 301 0 301 0 217 0 c 2,23,-1
 216 0 l 1,24,-1
 216 90 l 1,25,-1
 217 90 l 2,26,27
 266 90 266 90 300 109 c 0,28,29
 326 124 326 124 340 148.5 c 128,-1,30
 354 173 354 173 354 206 c 128,-1,31
 354 239 354 239 340 263.5 c 128,-1,32
 326 288 326 288 300 303 c 0,33,34
 266 322 266 322 217 323 c 1,35,-1
 217 413 l 1,36,37
 244 413 244 413 267 426 c 0,38,39
 294 441 294 441 310 470 c 0,40,41
 330 504 330 504 330 546 c 0,42,43
 330 584 330 584 314 612 c 0,44,45
 303 632 303 632 284.5 642.5 c 128,-1,46
 266 653 266 653 243 653 c 256,47,48
 220 653 220 653 203 643 c 0,49,50
 185 633 185 633 172 611 c 0,51,52
 154 579 154 579 154 530 c 2,53,-1
 154 0 l 1,54,-1
 54 0 l 1,0,-1
EndSplineSet
Substitution2: "'ss11' Style Set 11 lookup 128 subtable" germandbls.ss11
Substitution2: "Single Substitution lookup 127 subtable" germandbls.cv34
EndChar

StartChar: ae
Encoding: 230 230 168
Width: 500
GlyphClass: 2
Flags: W
FFAnchorPoint: "Anchor-5" 446 0 basechar 0
FFAnchorPoint: "Anchor-4" 446 530 basechar 0
FFAnchorPoint: "Anchor-3" 250 265 basechar 0
FFAnchorPoint: "Anchor-2" 250 275 basechar 0
FFAnchorPoint: "Anchor-1" 250 0 basechar 0
FFAnchorPoint: "Anchor-0" 250 530 basechar 0
LayerCount: 2
Fore
SplineSet
169 -8 m 0,0,1
 132 -8 132 -8 104.5 8 c 128,-1,2
 77 24 77 24 60 53 c 0,3,4
 38 91 38 91 38 146 c 0,5,6
 38 202 38 202 61 242 c 0,7,8
 83 280 83 280 120 301 c 0,9,10
 154 321 154 321 201 325 c 1,11,-1
 201 398 l 2,12,13
 201 429 201 429 187 442 c 0,14,15
 180 449 180 449 170 449 c 256,16,17
 160 449 160 449 153 442 c 0,18,19
 140 429 140 429 139 399 c 1,20,-1
 41 400 l 1,21,22
 41 402 41 402 41 404 c 0,23,24
 41 445 41 445 60 479 c 0,25,26
 76 506 76 506 103 522 c 0,27,28
 131 538 131 538 170 538 c 256,29,30
 209 538 209 538 237 522 c 0,31,32
 244 518 244 518 250 513 c 1,33,34
 256 517 256 517 263 521 c 0,35,36
 292 538 292 538 331 538 c 0,37,38
 371 538 371 538 400 521 c 0,39,40
 427 506 427 506 443 478 c 0,41,42
 462 445 462 445 462 398 c 2,43,-1
 462 220 l 1,44,-1
 299 220 l 1,45,-1
 299 132 l 2,46,47
 299 103 299 103 313 89 c 0,48,49
 322 81 322 81 334 81 c 256,50,51
 346 81 346 81 355 89 c 1,52,53
 368 103 368 103 369 131 c 1,54,-1
 467 130 l 1,55,56
 467 128 467 128 467 126 c 0,57,58
 467 86 467 86 448 53 c 0,59,60
 432 25 432 25 405 9 c 0,61,62
 375 -8 375 -8 334 -8 c 256,63,64
 293 -8 293 -8 263 9 c 0,65,66
 256 13 256 13 250 18 c 1,67,68
 244 13 244 13 237 9 c 0,69,70
 208 -8 208 -8 169 -8 c 0,0,1
299 309 m 1,71,-1
 364 309 l 1,72,-1
 364 398 l 1,73,74
 363 428 363 428 350 442 c 1,75,76
 342 449 342 449 331 449 c 0,77,78
 321 449 321 449 313 442 c 0,79,80
 299 428 299 428 299 398 c 2,81,-1
 299 309 l 1,71,-1
169 81 m 256,82,83
 179 81 179 81 187 88 c 0,84,85
 201 102 201 102 201 132 c 2,86,-1
 201 235 l 1,87,88
 188 232 188 232 177 226 c 0,89,90
 159 216 159 216 148 197 c 0,91,92
 137 176 137 176 136 145 c 1,93,94
 137 103 137 103 153 87 c 0,95,96
 159 81 159 81 169 81 c 256,82,83
EndSplineSet
EndChar

StartChar: eth
Encoding: 240 240 178
Width: 500
GlyphClass: 2
Flags: W
FFAnchorPoint: "Anchor-5" 446 0 basechar 0
FFAnchorPoint: "Anchor-4" 446 735 basechar 0
FFAnchorPoint: "Anchor-3" 250 367 basechar 0
FFAnchorPoint: "Anchor-2" 250 382 basechar 0
FFAnchorPoint: "Anchor-1" 250 0 basechar 0
FFAnchorPoint: "Anchor-0" 250 735 basechar 0
LayerCount: 2
Fore
SplineSet
250 -8 m 256,0,1
 189 -8 189 -8 146 17 c 128,-1,2
 103 42 103 42 78 86 c 0,3,4
 46 141 46 141 46 220 c 2,5,-1
 46 221 l 2,6,7
 46 300 46 300 78 355 c 0,8,9
 103 399 103 399 146 424 c 128,-1,10
 189 449 189 449 250 449 c 0,11,12
 290 449 290 449 323 438 c 1,13,14
 310 476 310 476 291 509 c 0,15,16
 289 513 289 513 286 516 c 1,17,-1
 104 471 l 1,18,-1
 83 548 l 1,19,-1
 231 584 l 1,20,21
 206 608 206 608 176 625 c 0,22,23
 150 640 150 640 124 649 c 1,24,-1
 153 735 l 1,25,26
 195 722 195 722 234 700 c 0,27,28
 295 665 295 665 339 611 c 1,29,-1
 416 630 l 1,30,-1
 437 553 l 1,31,-1
 386 541 l 1,32,33
 454 415 454 415 454 221 c 2,34,-1
 454 220 l 2,35,36
 454 141 454 141 422 86 c 0,37,38
 397 42 397 42 354 17 c 128,-1,39
 311 -8 311 -8 250 -8 c 256,0,1
250 82 m 256,40,41
 277 82 277 82 297 94 c 0,42,43
 319 106 319 106 334 131 c 0,44,45
 354 167 354 167 354 220 c 2,46,-1
 354 221 l 2,47,48
 354 274 354 274 334 310 c 0,49,50
 319 335 319 335 297 347 c 0,51,52
 277 359 277 359 250 359 c 256,53,54
 223 359 223 359 203 347 c 0,55,56
 181 335 181 335 166 310 c 0,57,58
 146 274 146 274 146 221 c 2,59,-1
 146 220 l 2,60,61
 146 167 146 167 166 131 c 0,62,63
 181 106 181 106 203 94 c 0,64,65
 223 82 223 82 250 82 c 256,40,41
EndSplineSet
EndChar

StartChar: divide
Encoding: 247 247 185
Width: 500
GlyphClass: 2
Flags: W
FFAnchorPoint: "Anchor-5" 446 0 basechar 0
FFAnchorPoint: "Anchor-4" 446 530 basechar 0
FFAnchorPoint: "Anchor-3" 250 365 basechar 0
FFAnchorPoint: "Anchor-2" 250 373 basechar 0
FFAnchorPoint: "Anchor-1" 250 149 basechar 0
FFAnchorPoint: "Anchor-0" 250 580 basechar 0
LayerCount: 2
Fore
SplineSet
250 491 m 256,0,1
 223 491 223 491 204 502 c 0,2,3
 189 511 189 511 181 525 c 0,4,5
 172 540 172 540 172 561 c 128,-1,6
 172 582 172 582 181 597 c 0,7,8
 189 611 189 611 204 620 c 0,9,10
 223 631 223 631 250 631 c 256,11,12
 277 631 277 631 296 620 c 0,13,14
 311 611 311 611 319 597 c 0,15,16
 328 582 328 582 328 561 c 128,-1,17
 328 540 328 540 319 525 c 0,18,19
 311 511 311 511 296 502 c 0,20,21
 277 491 277 491 250 491 c 256,0,1
54 320 m 1,22,-1
 54 410 l 1,23,-1
 446 410 l 1,24,-1
 446 320 l 1,25,-1
 54 320 l 1,22,-1
250 99 m 256,26,27
 223 99 223 99 204 110 c 0,28,29
 189 119 189 119 181 133 c 0,30,31
 172 148 172 148 172 169 c 128,-1,32
 172 190 172 190 181 205 c 0,33,34
 189 219 189 219 204 228 c 0,35,36
 223 239 223 239 250 239 c 256,37,38
 277 239 277 239 296 228 c 0,39,40
 311 219 311 219 319 205 c 0,41,42
 328 190 328 190 328 169 c 128,-1,43
 328 148 328 148 319 133 c 0,44,45
 311 119 311 119 296 110 c 0,46,47
 277 99 277 99 250 99 c 256,26,27
EndSplineSet
EndChar

StartChar: oslash
Encoding: 248 248 186
Width: 500
GlyphClass: 2
Flags: W
FFAnchorPoint: "Anchor-5" 446 0 basechar 0
FFAnchorPoint: "Anchor-4" 446 530 basechar 0
FFAnchorPoint: "Anchor-3" 250 265 basechar 0
FFAnchorPoint: "Anchor-2" 250 275 basechar 0
FFAnchorPoint: "Anchor-1" 250 0 basechar 0
FFAnchorPoint: "Anchor-0" 250 530 basechar 0
LayerCount: 2
Fore
SplineSet
123 -46 m 1,0,-1
 47 -7 l 1,1,-1
 90 68 l 1,2,3
 83 77 83 77 78 86 c 0,4,5
 46 141 46 141 46 220 c 2,6,-1
 46 310 l 2,7,8
 46 389 46 389 78 444 c 0,9,10
 103 488 103 488 146 513 c 128,-1,11
 189 538 189 538 250 538 c 0,12,13
 304 538 304 538 344 518 c 1,14,-1
 377 576 l 1,15,-1
 453 537 l 1,16,-1
 410 462 l 1,17,18
 417 453 417 453 422 444 c 0,19,20
 454 389 454 389 454 310 c 2,21,-1
 454 220 l 2,22,23
 454 141 454 141 422 86 c 0,24,25
 397 42 397 42 354 17 c 128,-1,26
 311 -8 311 -8 250 -8 c 0,27,28
 196 -8 196 -8 156 12 c 1,29,-1
 123 -46 l 1,0,-1
250 82 m 256,30,31
 277 82 277 82 297 94 c 0,32,33
 319 106 319 106 334 131 c 0,34,35
 354 167 354 167 354 220 c 2,36,-1
 354 310 l 2,37,38
 354 334 354 334 350 355 c 1,39,-1
 203 94 l 1,40,41
 223 82 223 82 250 82 c 256,30,31
150 175 m 1,42,-1
 297 436 l 1,43,44
 277 448 277 448 250 448 c 256,45,46
 223 448 223 448 203 436 c 0,47,48
 181 424 181 424 166 399 c 0,49,50
 146 363 146 363 146 310 c 2,51,-1
 146 220 l 2,52,53
 146 196 146 196 150 175 c 1,42,-1
EndSplineSet
EndChar

StartChar: thorn
Encoding: 254 254 192
Width: 500
GlyphClass: 2
Flags: W
FFAnchorPoint: "Anchor-5" 446 -205 basechar 0
FFAnchorPoint: "Anchor-4" 446 735 basechar 0
FFAnchorPoint: "Anchor-3" 250 265 basechar 0
FFAnchorPoint: "Anchor-2" 250 283 basechar 0
FFAnchorPoint: "Anchor-1" 250 -205 basechar 0
FFAnchorPoint: "Anchor-0" 250 735 basechar 0
LayerCount: 2
Fore
SplineSet
54 -205 m 1,0,-1
 54 735 l 1,1,-1
 154 735 l 1,2,-1
 154 459 l 1,3,-1
 155 461 l 1,4,5
 178 500 178 500 212 520 c 0,6,7
 243 538 243 538 284 538 c 0,8,9
 328 538 328 538 361 519 c 0,10,11
 397 498 397 498 420 457 c 1,12,13
 454 400 454 400 454 310 c 2,14,-1
 454 220 l 2,15,16
 454 130 454 130 420 73 c 1,17,18
 397 32 397 32 361 11 c 0,19,20
 328 -8 328 -8 284 -8 c 0,21,22
 243 -8 243 -8 212 10 c 0,23,24
 178 30 178 30 155 69 c 1,25,-1
 154 71 l 1,26,-1
 154 -205 l 1,27,-1
 54 -205 l 1,0,-1
251 82 m 0,28,29
 277 82 277 82 298 94.5 c 128,-1,30
 319 107 319 107 334 131 c 1,31,32
 354 167 354 167 354 220 c 2,33,-1
 354 310 l 2,34,35
 354 363 354 363 334 399 c 1,36,37
 319 423 319 423 298 435.5 c 128,-1,38
 277 448 277 448 251 448 c 0,39,40
 226 448 226 448 209 438 c 0,41,42
 188 426 188 426 175 402 c 1,43,44
 154 367 154 367 154 310 c 2,45,-1
 154 220 l 2,46,47
 154 163 154 163 175 128 c 1,48,49
 188 104 188 104 209 92 c 0,50,51
 226 82 226 82 251 82 c 0,28,29
EndSplineSet
EndChar

StartChar: dcaron
Encoding: 271 271 209
Width: 500
GlyphClass: 2
Flags: W
FFAnchorPoint: "Anchor-5" 446 0 basechar 0
FFAnchorPoint: "Anchor-4" 446 735 basechar 0
FFAnchorPoint: "Anchor-3" 250 367 basechar 0
FFAnchorPoint: "Anchor-2" 250 382 basechar 0
FFAnchorPoint: "Anchor-1" 250 0 basechar 0
FFAnchorPoint: "Anchor-0" 250 735 basechar 0
LayerCount: 2
Fore
SplineSet
484 540 m 1,0,-1
 440 581 l 1,1,2
 471 614 471 614 483 658 c 1,3,4
 465 661 465 661 454 673 c 1,5,6
 438 688 438 688 438 715 c 128,-1,7
 438 742 438 742 453.5 757.5 c 128,-1,8
 469 773 469 773 496 773 c 256,9,10
 523 773 523 773 538.5 757.5 c 128,-1,11
 554 742 554 742 554 715 c 0,12,13
 554 643 554 643 521 587 c 0,14,15
 506 561 506 561 484 540 c 1,0,-1
203 -8 m 0,16,17
 165 -8 165 -8 136 9 c 0,18,19
 103 28 103 28 80 67 c 0,20,21
 46 127 46 127 46 220 c 2,22,-1
 46 310 l 2,23,24
 46 403 46 403 80 463 c 0,25,26
 103 502 103 502 136 521 c 0,27,28
 165 538 165 538 203 538 c 0,29,30
 239 538 239 538 266 522 c 0,31,32
 298 504 298 504 319 467 c 1,33,-1
 321 463 l 1,34,-1
 321 735 l 1,35,-1
 421 735 l 1,36,-1
 421 0 l 1,37,-1
 321 0 l 1,38,-1
 321 67 l 1,39,-1
 319 63 l 1,40,41
 298 26 298 26 266 8 c 0,42,43
 239 -8 239 -8 203 -8 c 0,16,17
237 82 m 0,44,45
 256 82 256 82 270 90 c 0,46,47
 287 100 287 100 300 121 c 1,48,49
 321 159 321 159 321 220 c 2,50,-1
 321 310 l 2,51,52
 321 371 321 371 300 409 c 1,53,54
 287 430 287 430 270 440 c 0,55,56
 256 448 256 448 237 448 c 0,57,58
 216 448 216 448 199 438 c 0,59,60
 180 427 180 427 167 405 c 0,61,62
 146 368 146 368 146 310 c 2,63,-1
 146 220 l 2,64,65
 146 162 146 162 167 125 c 0,66,67
 180 103 180 103 199 92 c 0,68,69
 216 82 216 82 237 82 c 0,44,45
EndSplineSet
EndChar

StartChar: dcroat
Encoding: 273 273 211
Width: 500
GlyphClass: 2
Flags: W
FFAnchorPoint: "Anchor-5" 446 0 basechar 0
FFAnchorPoint: "Anchor-4" 446 735 basechar 0
FFAnchorPoint: "Anchor-3" 250 367 basechar 0
FFAnchorPoint: "Anchor-2" 250 382 basechar 0
FFAnchorPoint: "Anchor-1" 250 0 basechar 0
FFAnchorPoint: "Anchor-0" 250 735 basechar 0
LayerCount: 2
Fore
SplineSet
216 -8 m 0,0,1
 172 -8 172 -8 139 11 c 0,2,3
 103 32 103 32 80 73 c 1,4,5
 46 130 46 130 46 220 c 2,6,-1
 46 310 l 2,7,8
 46 400 46 400 80 457 c 1,9,10
 103 498 103 498 139 519 c 0,11,12
 172 538 172 538 216 538 c 0,13,14
 257 538 257 538 288 520 c 0,15,16
 322 500 322 500 345 461 c 1,17,-1
 346 459 l 1,18,-1
 346 583 l 1,19,-1
 250 583 l 1,20,-1
 250 662 l 1,21,-1
 346 662 l 1,22,-1
 346 735 l 1,23,-1
 446 735 l 1,24,-1
 446 662 l 1,25,-1
 484 662 l 1,26,-1
 484 583 l 1,27,-1
 446 583 l 1,28,-1
 446 0 l 1,29,-1
 346 0 l 1,30,-1
 346 71 l 1,31,-1
 345 69 l 1,32,33
 322 30 322 30 288 10 c 0,34,35
 257 -8 257 -8 216 -8 c 0,0,1
249 82 m 0,36,37
 274 82 274 82 291 92 c 0,38,39
 312 104 312 104 325 128 c 1,40,41
 346 163 346 163 346 220 c 2,42,-1
 346 310 l 2,43,44
 346 367 346 367 325 402 c 1,45,46
 312 426 312 426 291 438 c 0,47,48
 274 448 274 448 249 448 c 0,49,50
 223 448 223 448 202 435.5 c 128,-1,51
 181 423 181 423 166 399 c 1,52,53
 146 363 146 363 146 310 c 2,54,-1
 146 220 l 2,55,56
 146 167 146 167 166 131 c 1,57,58
 181 107 181 107 202 94.5 c 128,-1,59
 223 82 223 82 249 82 c 0,36,37
EndSplineSet
EndChar

StartChar: Hbar
Encoding: 294 294 232
Width: 500
GlyphClass: 2
Flags: W
FFAnchorPoint: "Anchor-5" 446 0 basechar 0
FFAnchorPoint: "Anchor-4" 446 735 basechar 0
FFAnchorPoint: "Anchor-3" 250 367 basechar 0
FFAnchorPoint: "Anchor-2" 250 382 basechar 0
FFAnchorPoint: "Anchor-1" 250 0 basechar 0
FFAnchorPoint: "Anchor-0" 250 735 basechar 0
LayerCount: 2
Fore
SplineSet
54 0 m 1,0,-1
 54 494 l 1,1,-1
 16 494 l 1,2,-1
 16 572 l 1,3,-1
 54 572 l 1,4,-1
 54 735 l 1,5,-1
 154 735 l 1,6,-1
 154 572 l 1,7,-1
 346 572 l 1,8,-1
 346 735 l 1,9,-1
 446 735 l 1,10,-1
 446 572 l 1,11,-1
 484 572 l 1,12,-1
 484 494 l 1,13,-1
 446 494 l 1,14,-1
 446 0 l 1,15,-1
 346 0 l 1,16,-1
 346 341 l 1,17,-1
 154 341 l 1,18,-1
 154 0 l 1,19,-1
 54 0 l 1,0,-1
154 431 m 1,20,-1
 346 431 l 1,21,-1
 346 494 l 1,22,-1
 154 494 l 1,23,-1
 154 431 l 1,20,-1
EndSplineSet
EndChar

StartChar: hbar
Encoding: 295 295 233
Width: 500
GlyphClass: 2
Flags: W
FFAnchorPoint: "Anchor-5" 446 0 basechar 0
FFAnchorPoint: "Anchor-4" 446 735 basechar 0
FFAnchorPoint: "Anchor-3" 250 367 basechar 0
FFAnchorPoint: "Anchor-2" 250 382 basechar 0
FFAnchorPoint: "Anchor-1" 250 0 basechar 0
FFAnchorPoint: "Anchor-0" 250 735 basechar 0
LayerCount: 2
Fore
SplineSet
54 0 m 1,0,-1
 54 583 l 1,1,-1
 16 583 l 1,2,-1
 16 662 l 1,3,-1
 54 662 l 1,4,-1
 54 735 l 1,5,-1
 154 735 l 1,6,-1
 154 662 l 1,7,-1
 250 662 l 1,8,-1
 250 583 l 1,9,-1
 154 583 l 1,10,-1
 154 459 l 1,11,-1
 155 461 l 1,12,13
 178 500 178 500 212 520 c 0,14,15
 243 538 243 538 284 538 c 0,16,17
 324 538 324 538 355 520 c 0,18,19
 389 500 389 500 412 461 c 0,20,21
 446 402 446 402 446 310 c 2,22,-1
 446 0 l 1,23,-1
 346 0 l 1,24,-1
 346 310 l 2,25,26
 346 367 346 367 325 402 c 1,27,28
 312 426 312 426 291 438 c 0,29,30
 274 448 274 448 250 448 c 256,31,32
 226 448 226 448 209 438 c 0,33,34
 188 426 188 426 175 402 c 1,35,36
 154 367 154 367 154 310 c 2,37,-1
 154 0 l 1,38,-1
 54 0 l 1,0,-1
EndSplineSet
EndChar

StartChar: dotlessi
Encoding: 305 305 243
Width: 500
GlyphClass: 2
Flags: W
FFAnchorPoint: "Anchor-5" 446 0 basechar 0
FFAnchorPoint: "Anchor-4" 446 530 basechar 0
FFAnchorPoint: "Anchor-3" 250 265 basechar 0
FFAnchorPoint: "Anchor-2" 250 275 basechar 0
FFAnchorPoint: "Anchor-1" 250 0 basechar 0
FFAnchorPoint: "Anchor-0" 250 530 basechar 0
LayerCount: 2
Fore
SplineSet
75 0 m 1,0,-1
 75 90 l 1,1,-1
 207 90 l 1,2,-1
 207 440 l 1,3,-1
 89 440 l 1,4,-1
 89 530 l 1,5,-1
 307 530 l 1,6,-1
 307 90 l 1,7,-1
 425 90 l 1,8,-1
 425 0 l 1,9,-1
 75 0 l 1,0,-1
EndSplineSet
Substitution2: "'cv04' Character Variants 04 lookup 109 subtable" dotlessi.cv04
Substitution2: "'ss11' Style Set 11 lookup 108 subtable" dotlessi.ss11
Substitution2: "'ss07' Style Set 7 lookup 107 subtable" dotlessi.ss07
Substitution2: "'ss10' Style Set 10 lookup 106 subtable" dotlessi.ss10
EndChar

StartChar: IJ
Encoding: 306 306 244
Width: 500
GlyphClass: 2
Flags: W
FFAnchorPoint: "Anchor-5" 446 0 basechar 0
FFAnchorPoint: "Anchor-4" 446 735 basechar 0
FFAnchorPoint: "Anchor-3" 250 367 basechar 0
FFAnchorPoint: "Anchor-2" 250 382 basechar 0
FFAnchorPoint: "Anchor-1" 250 0 basechar 0
FFAnchorPoint: "Anchor-0" 250 735 basechar 0
LayerCount: 2
Fore
SplineSet
201 -8 m 1,0,-1
 201 82 l 1,1,2
 262 82 262 82 292 99 c 0,3,4
 316 113 316 113 329 136 c 0,5,6
 346 165 346 165 346 223 c 2,7,-1
 346 735 l 1,8,-1
 446 735 l 1,9,-1
 446 223 l 2,10,11
 446 130 446 130 419 83 c 0,12,13
 396 44 396 44 357 22 c 0,14,15
 306 -8 306 -8 201 -8 c 1,0,-1
54 0 m 1,16,-1
 54 735 l 1,17,-1
 154 735 l 1,18,-1
 154 0 l 1,19,-1
 54 0 l 1,16,-1
EndSplineSet
EndChar

StartChar: ij
Encoding: 307 307 245
Width: 500
GlyphClass: 2
Flags: W
FFAnchorPoint: "Anchor-5" 446 -205 basechar 0
FFAnchorPoint: "Anchor-4" 446 735 basechar 0
FFAnchorPoint: "Anchor-3" 250 265 basechar 0
FFAnchorPoint: "Anchor-2" 250 283 basechar 0
FFAnchorPoint: "Anchor-1" 250 -205 basechar 0
FFAnchorPoint: "Anchor-0" 250 735 basechar 0
LayerCount: 2
Fore
SplineSet
131 615 m 256,0,1
 108 615 108 615 93 624 c 0,2,3
 79 632 79 632 70 647 c 0,4,5
 61 663 61 663 61 685 c 128,-1,6
 61 707 61 707 70 723 c 0,7,8
 79 738 79 738 93 746 c 0,9,10
 108 755 108 755 131 755 c 256,11,12
 154 755 154 755 169 746 c 0,13,14
 183 738 183 738 192 723 c 0,15,16
 201 707 201 707 201 685 c 128,-1,17
 201 663 201 663 192 647 c 0,18,19
 183 632 183 632 169 624 c 0,20,21
 154 615 154 615 131 615 c 256,0,1
369 615 m 256,22,23
 346 615 346 615 331 624 c 0,24,25
 317 632 317 632 308 647 c 0,26,27
 299 663 299 663 299 685 c 128,-1,28
 299 707 299 707 308 723 c 0,29,30
 317 738 317 738 331 746 c 0,31,32
 346 755 346 755 369 755 c 256,33,34
 392 755 392 755 407 746 c 0,35,36
 421 738 421 738 430 723 c 0,37,38
 439 707 439 707 439 685 c 128,-1,39
 439 663 439 663 430 647 c 0,40,41
 421 632 421 632 407 624 c 0,42,43
 392 615 392 615 369 615 c 256,22,23
235 -213 m 0,44,45
 182 -213 182 -213 143.5 -190.5 c 128,-1,46
 105 -168 105 -168 82 -128 c 0,47,48
 66 -102 66 -102 59 -70 c 1,49,-1
 153 -39 l 1,50,51
 157 -63 157 -63 168 -82 c 0,52,53
 180 -103 180 -103 198 -114 c 1,54,55
 215 -123 215 -123 235 -123 c 0,56,57
 256 -123 256 -123 271 -114 c 0,58,59
 289 -104 289 -104 301 -83 c 0,60,61
 319 -52 319 -52 319 -2 c 2,62,-1
 319 530 l 1,63,-1
 419 530 l 1,64,-1
 419 -2 l 2,65,66
 419 -77 419 -77 389 -128 c 0,67,68
 366 -168 366 -168 328 -190 c 0,69,70
 289 -213 289 -213 235 -213 c 0,44,45
81 0 m 1,71,-1
 81 530 l 1,72,-1
 181 530 l 1,73,-1
 181 0 l 1,74,-1
 81 0 l 1,71,-1
EndSplineSet
EndChar

StartChar: kgreenlandic
Encoding: 312 312 250
Width: 500
GlyphClass: 2
Flags: W
FFAnchorPoint: "Anchor-5" 446 0 basechar 0
FFAnchorPoint: "Anchor-4" 446 530 basechar 0
FFAnchorPoint: "Anchor-3" 250 265 basechar 0
FFAnchorPoint: "Anchor-2" 250 275 basechar 0
FFAnchorPoint: "Anchor-1" 250 0 basechar 0
FFAnchorPoint: "Anchor-0" 250 530 basechar 0
LayerCount: 2
Fore
SplineSet
54 0 m 1,0,-1
 54 530 l 1,1,-1
 154 530 l 1,2,-1
 154 316 l 1,3,4
 286 421 286 421 328 494 c 0,5,6
 341 515 341 515 341 530 c 1,7,-1
 446 530 l 1,8,9
 446 511 446 511 429 480 c 1,10,11
 390 414 390 414 300 330 c 1,12,13
 332 278 332 278 356 237 c 0,14,15
 454 67 454 67 454 0 c 1,16,-1
 354 0 l 1,17,18
 354 58 354 58 270 203 c 0,19,20
 251 236 251 236 231 268 c 1,21,22
 195 238 195 238 154 206 c 1,23,-1
 154 0 l 1,24,-1
 54 0 l 1,0,-1
EndSplineSet
EndChar

StartChar: Eng
Encoding: 330 330 268
Width: 500
GlyphClass: 2
Flags: W
FFAnchorPoint: "Anchor-5" 446 0 basechar 0
FFAnchorPoint: "Anchor-4" 446 735 basechar 0
FFAnchorPoint: "Anchor-3" 250 367 basechar 0
FFAnchorPoint: "Anchor-2" 250 382 basechar 0
FFAnchorPoint: "Anchor-1" 250 0 basechar 0
FFAnchorPoint: "Anchor-0" 250 735 basechar 0
LayerCount: 2
Fore
SplineSet
245 -8 m 1,0,-1
 245 82 l 1,1,2
 275 82 275 82 298 95 c 0,3,4
 318 107 318 107 331 128 c 1,5,6
 346 155 346 155 346 192 c 2,7,-1
 346 532 l 2,8,9
 346 576 346 576 329 606 c 0,10,11
 315 629 315 629 294.5 641 c 128,-1,12
 274 653 274 653 245 653 c 256,13,14
 216 653 216 653 195.5 641 c 128,-1,15
 175 629 175 629 161 606 c 0,16,17
 157 599 157 599 154 591 c 1,18,-1
 154 0 l 1,19,-1
 54 0 l 1,20,-1
 54 735 l 1,21,-1
 154 735 l 1,22,-1
 154 683 l 1,23,24
 173 708 173 708 199 723 c 0,25,26
 234 743 234 743 279 743 c 256,27,28
 324 743 324 743 358 723 c 0,29,30
 393 703 393 703 415 664 c 1,31,32
 446 612 446 612 446 532 c 2,33,-1
 446 192 l 2,34,35
 446 128 446 128 420 82 c 1,36,37
 396 42 396 42 356 19 c 0,38,39
 310 -8 310 -8 245 -8 c 1,0,-1
EndSplineSet
EndChar

StartChar: eng
Encoding: 331 331 269
Width: 500
GlyphClass: 2
Flags: W
FFAnchorPoint: "Anchor-5" 446 -205 basechar 0
FFAnchorPoint: "Anchor-4" 446 530 basechar 0
FFAnchorPoint: "Anchor-3" 250 162 basechar 0
FFAnchorPoint: "Anchor-2" 250 177 basechar 0
FFAnchorPoint: "Anchor-1" 250 -205 basechar 0
FFAnchorPoint: "Anchor-0" 250 530 basechar 0
LayerCount: 2
Fore
SplineSet
226 -200 m 1,0,-1
 226 -110 l 1,1,2
 267 -110 267 -110 295 -94 c 0,3,4
 319 -80 319 -80 332 -58 c 0,5,6
 346 -33 346 -33 346 0 c 2,7,-1
 346 310 l 2,8,9
 346 367 346 367 325 402 c 1,10,11
 312 426 312 426 291 438 c 0,12,13
 274 448 274 448 250 448 c 256,14,15
 226 448 226 448 209 438 c 0,16,17
 188 426 188 426 175 402 c 1,18,19
 154 367 154 367 154 310 c 2,20,-1
 154 0 l 1,21,-1
 54 0 l 1,22,-1
 54 530 l 1,23,-1
 154 530 l 1,24,-1
 154 459 l 1,25,-1
 155 461 l 1,26,27
 178 500 178 500 212 520 c 0,28,29
 243 538 243 538 284 538 c 0,30,31
 324 538 324 538 355 520 c 0,32,33
 389 500 389 500 412 461 c 0,34,35
 446 402 446 402 446 310 c 2,36,-1
 446 0 l 2,37,38
 446 -60 446 -60 420 -104 c 1,39,40
 397 -145 397 -145 354 -170 c 0,41,42
 301 -200 301 -200 226 -200 c 1,0,-1
EndSplineSet
EndChar

StartChar: OE
Encoding: 338 338 276
Width: 500
GlyphClass: 2
Flags: W
FFAnchorPoint: "Anchor-5" 446 0 basechar 0
FFAnchorPoint: "Anchor-4" 446 735 basechar 0
FFAnchorPoint: "Anchor-3" 250 367 basechar 0
FFAnchorPoint: "Anchor-2" 250 382 basechar 0
FFAnchorPoint: "Anchor-1" 250 0 basechar 0
FFAnchorPoint: "Anchor-0" 250 735 basechar 0
LayerCount: 2
Fore
SplineSet
250 89 m 1,0,-1
 250 646 l 1,1,2
 222 646 222 646 201.5 634 c 128,-1,3
 181 622 181 622 169 601 c 0,4,5
 153 574 153 574 152 532 c 1,6,-1
 152 203 l 1,7,8
 153 161 153 161 169 134 c 0,9,10
 181 113 181 113 201.5 101 c 128,-1,11
 222 89 222 89 250 89 c 1,0,-1
446 0 m 1,12,-1
 250 0 l 2,13,14
 189 0 189 0 144 26 c 0,15,16
 105 49 105 49 81 89 c 1,17,18
 54 137 54 137 54 203 c 2,19,-1
 54 532 l 2,20,21
 54 598 54 598 81 646 c 1,22,23
 105 686 105 686 144 709 c 0,24,25
 189 735 189 735 250 735 c 2,26,-1
 446 735 l 1,27,-1
 446 645 l 1,28,-1
 348 645 l 1,29,-1
 348 442 l 1,30,-1
 424 442 l 1,31,-1
 424 352 l 1,32,-1
 348 352 l 1,33,-1
 348 90 l 1,34,-1
 446 90 l 1,35,-1
 446 0 l 1,12,-1
EndSplineSet
EndChar

StartChar: oe
Encoding: 339 339 277
Width: 500
GlyphClass: 2
Flags: W
FFAnchorPoint: "Anchor-5" 446 0 basechar 0
FFAnchorPoint: "Anchor-4" 446 530 basechar 0
FFAnchorPoint: "Anchor-3" 250 265 basechar 0
FFAnchorPoint: "Anchor-2" 250 275 basechar 0
FFAnchorPoint: "Anchor-1" 250 0 basechar 0
FFAnchorPoint: "Anchor-0" 250 530 basechar 0
LayerCount: 2
Fore
SplineSet
169 -8 m 256,0,1
 129 -8 129 -8 100 9 c 0,2,3
 73 24 73 24 57 52 c 0,4,5
 38 85 38 85 38 132 c 2,6,-1
 38 398 l 2,7,8
 38 445 38 445 57 478 c 0,9,10
 73 506 73 506 100 521 c 0,11,12
 129 538 129 538 169 538 c 256,13,14
 209 538 209 538 237 521 c 0,15,16
 244 517 244 517 250 513 c 1,17,18
 256 517 256 517 263 521 c 0,19,20
 292 538 292 538 331 538 c 0,21,22
 371 538 371 538 400 521 c 0,23,24
 427 506 427 506 443 478 c 0,25,26
 462 445 462 445 462 398 c 2,27,-1
 462 220 l 1,28,-1
 299 220 l 1,29,-1
 299 132 l 2,30,31
 299 103 299 103 313 89 c 0,32,33
 322 81 322 81 334 81 c 256,34,35
 346 81 346 81 355 89 c 1,36,37
 368 103 368 103 369 131 c 1,38,-1
 467 130 l 1,39,40
 467 128 467 128 467 126 c 0,41,42
 467 86 467 86 448 53 c 0,43,44
 432 25 432 25 405 9 c 0,45,46
 375 -8 375 -8 334 -8 c 256,47,48
 293 -8 293 -8 263 9 c 0,49,50
 256 13 256 13 250 18 c 1,51,52
 244 13 244 13 237 9 c 0,53,54
 209 -8 209 -8 169 -8 c 256,0,1
299 309 m 1,55,-1
 364 309 l 1,56,-1
 364 398 l 1,57,58
 363 428 363 428 350 442 c 1,59,60
 342 449 342 449 331 449 c 0,61,62
 321 449 321 449 313 442 c 0,63,64
 299 428 299 428 299 398 c 2,65,-1
 299 309 l 1,55,-1
169 81 m 256,66,67
 180 81 180 81 187 88 c 0,68,69
 201 102 201 102 201 132 c 2,70,-1
 201 398 l 2,71,72
 201 428 201 428 187 442 c 0,73,74
 180 449 180 449 169 449 c 256,75,76
 158 449 158 449 150 442 c 1,77,78
 137 428 137 428 136 398 c 1,79,-1
 136 132 l 1,80,81
 137 102 137 102 150 88 c 1,82,83
 158 81 158 81 169 81 c 256,66,67
EndSplineSet
EndChar

StartChar: Tbar
Encoding: 358 358 296
Width: 500
GlyphClass: 2
Flags: W
FFAnchorPoint: "Anchor-5" 299 0 basechar 0
FFAnchorPoint: "Anchor-4" 446 735 basechar 0
FFAnchorPoint: "Anchor-3" 250 367 basechar 0
FFAnchorPoint: "Anchor-2" 250 382 basechar 0
FFAnchorPoint: "Anchor-1" 250 0 basechar 0
FFAnchorPoint: "Anchor-0" 250 735 basechar 0
LayerCount: 2
Fore
SplineSet
200 0 m 1,0,-1
 200 291 l 1,1,-1
 93 291 l 1,2,-1
 93 370 l 1,3,-1
 200 370 l 1,4,-1
 200 645 l 1,5,-1
 54 645 l 1,6,-1
 54 735 l 1,7,-1
 446 735 l 1,8,-1
 446 645 l 1,9,-1
 300 645 l 1,10,-1
 300 370 l 1,11,-1
 407 370 l 1,12,-1
 407 291 l 1,13,-1
 300 291 l 1,14,-1
 300 0 l 1,15,-1
 200 0 l 1,0,-1
EndSplineSet
EndChar

StartChar: tbar
Encoding: 359 359 297
Width: 500
GlyphClass: 2
Flags: W
FFAnchorPoint: "Anchor-5" 493 155 basechar 0
FFAnchorPoint: "Anchor-4" 446 735 basechar 0
FFAnchorPoint: "Anchor-3" 250 367 basechar 0
FFAnchorPoint: "Anchor-2" 250 382 basechar 0
FFAnchorPoint: "Anchor-1" 307 0 basechar 0
FFAnchorPoint: "Anchor-0" 250 735 basechar 0
LayerCount: 2
Fore
SplineSet
323 -8 m 0,0,1
 275 -8 275 -8 239 13 c 128,-1,2
 203 34 203 34 180 73 c 0,3,4
 150 126 150 126 150 203 c 2,5,-1
 150 279 l 1,6,-1
 63 279 l 1,7,-1
 63 357 l 1,8,-1
 150 357 l 1,9,-1
 150 440 l 1,10,-1
 50 440 l 1,11,-1
 50 530 l 1,12,-1
 150 530 l 1,13,-1
 150 735 l 1,14,-1
 250 735 l 1,15,-1
 250 530 l 1,16,-1
 400 530 l 1,17,-1
 400 440 l 1,18,-1
 250 440 l 1,19,-1
 250 357 l 1,20,-1
 337 357 l 1,21,-1
 337 279 l 1,22,-1
 250 279 l 1,23,-1
 250 203 l 2,24,25
 250 149 250 149 269 117 c 1,26,27
 279 98 279 98 295 89 c 0,28,29
 307 82 307 82 323 82 c 0,30,31
 340 82 340 82 353 89 c 1,32,33
 368 99 368 99 379 117 c 0,34,35
 394 143 394 143 397 179 c 1,36,-1
 494 155 l 1,37,38
 487 109 487 109 466 73 c 0,39,40
 444 34 444 34 407 13 c 0,41,42
 372 -8 372 -8 323 -8 c 0,0,1
EndSplineSet
EndChar

StartChar: longs
Encoding: 383 383 321
Width: 500
GlyphClass: 2
Flags: W
FFAnchorPoint: "Anchor-5" 446 0 basechar 0
FFAnchorPoint: "Anchor-4" 446 735 basechar 0
FFAnchorPoint: "Anchor-3" 250 367 basechar 0
FFAnchorPoint: "Anchor-2" 201 382 basechar 0
FFAnchorPoint: "Anchor-1" 250 0 basechar 0
FFAnchorPoint: "Anchor-0" 250 735 basechar 0
LayerCount: 2
Fore
SplineSet
137 0 m 1,0,-1
 137 532 l 2,1,2
 137 607 137 607 167 659 c 0,3,4
 190 699 190 699 228 721 c 128,-1,5
 266 743 266 743 319 743 c 0,6,7
 371 743 371 743 409.5 721 c 128,-1,8
 448 699 448 699 470 659 c 1,9,10
 491 624 491 624 497 580 c 1,11,-1
 400 557 l 1,12,13
 397 589 397 589 383 614 c 0,14,15
 371 634 371 634 354 644 c 0,16,17
 338 653 338 653 319 653 c 0,18,19
 299 653 299 653 284 644 c 0,20,21
 267 635 267 635 255 614 c 0,22,23
 237 582 237 582 237 532 c 2,24,-1
 237 0 l 1,25,-1
 137 0 l 1,0,-1
EndSplineSet
EndChar

StartChar: uni0180
Encoding: 384 384 322
Width: 500
GlyphClass: 2
Flags: W
FFAnchorPoint: "Anchor-5" 446 0 basechar 0
FFAnchorPoint: "Anchor-4" 446 735 basechar 0
FFAnchorPoint: "Anchor-3" 250 367 basechar 0
FFAnchorPoint: "Anchor-2" 250 382 basechar 0
FFAnchorPoint: "Anchor-1" 250 0 basechar 0
FFAnchorPoint: "Anchor-0" 250 735 basechar 0
LayerCount: 2
Fore
SplineSet
284 -8 m 0,0,1
 243 -8 243 -8 212 10 c 0,2,3
 178 30 178 30 155 69 c 1,4,-1
 154 71 l 1,5,-1
 154 0 l 1,6,-1
 54 0 l 1,7,-1
 54 583 l 1,8,-1
 16 583 l 1,9,-1
 16 662 l 1,10,-1
 54 662 l 1,11,-1
 54 735 l 1,12,-1
 154 735 l 1,13,-1
 154 662 l 1,14,-1
 250 662 l 1,15,-1
 250 583 l 1,16,-1
 154 583 l 1,17,-1
 154 459 l 1,18,-1
 155 461 l 1,19,20
 178 500 178 500 212 520 c 0,21,22
 243 538 243 538 284 538 c 0,23,24
 328 538 328 538 361 519 c 0,25,26
 397 498 397 498 420 457 c 1,27,28
 454 400 454 400 454 310 c 2,29,-1
 454 220 l 2,30,31
 454 130 454 130 420 73 c 1,32,33
 397 32 397 32 361 11 c 0,34,35
 328 -8 328 -8 284 -8 c 0,0,1
251 82 m 0,36,37
 277 82 277 82 298 94.5 c 128,-1,38
 319 107 319 107 334 131 c 1,39,40
 354 167 354 167 354 220 c 2,41,-1
 354 310 l 2,42,43
 354 363 354 363 334 399 c 1,44,45
 319 423 319 423 298 435.5 c 128,-1,46
 277 448 277 448 251 448 c 0,47,48
 226 448 226 448 209 438 c 0,49,50
 188 426 188 426 175 402 c 1,51,52
 154 367 154 367 154 310 c 2,53,-1
 154 220 l 2,54,55
 154 163 154 163 175 128 c 1,56,57
 188 104 188 104 209 92 c 0,58,59
 226 82 226 82 251 82 c 0,36,37
EndSplineSet
EndChar

StartChar: uni0181
Encoding: 385 385 323
Width: 500
GlyphClass: 2
Flags: W
FFAnchorPoint: "Anchor-5" 446 0 basechar 0
FFAnchorPoint: "Anchor-4" 446 735 basechar 0
FFAnchorPoint: "Anchor-3" 250 367 basechar 0
FFAnchorPoint: "Anchor-2" 250 382 basechar 0
FFAnchorPoint: "Anchor-1" 250 0 basechar 0
FFAnchorPoint: "Anchor-0" 250 735 basechar 0
LayerCount: 2
Fore
SplineSet
54 0 m 1,0,-1
 54 666 l 1,1,2
 49 666 49 666 45 662 c 0,3,4
 27 643 27 643 27 565 c 1,5,-1
 -50 565 l 1,6,7
 -50 640 -50 640 -24 686 c 0,8,9
 -9 712 -9 712 13 724 c 1,10,11
 31 735 31 735 54 735 c 2,12,-1
 240 735 l 2,13,14
 297 735 297 735 339 711 c 0,15,16
 377 689 377 689 400 649 c 0,17,18
 427 603 427 603 427 538 c 0,19,20
 427 481 427 481 404 443 c 1,21,22
 384 407 384 407 346 385 c 1,23,24
 357 380 357 380 366 375 c 0,25,26
 407 351 407 351 430 311 c 0,27,28
 454 270 454 270 454 212 c 0,29,30
 454 145 454 145 426 97 c 0,31,32
 401 53 401 53 358 28 c 0,33,34
 309 0 309 0 240 0 c 2,35,-1
 54 0 l 1,0,-1
240 427 m 2,36,37
 263 427 263 427 281.5 437.5 c 128,-1,38
 300 448 300 448 311 468 c 0,39,40
 327 495 327 495 327 536 c 128,-1,41
 327 577 327 577 311 604 c 0,42,43
 300 624 300 624 282 634.5 c 128,-1,44
 264 645 264 645 240 645 c 2,45,-1
 154 645 l 1,46,-1
 154 427 l 1,47,-1
 240 427 l 2,36,37
154 90 m 1,48,-1
 240 90 l 2,49,50
 275 90 275 90 300 105 c 0,51,52
 323 118 323 118 337 142 c 0,53,54
 354 171 354 171 354 213 c 128,-1,55
 354 255 354 255 337 285 c 0,56,57
 323 309 323 309 300 323 c 1,58,59
 274 337 274 337 240 337 c 2,60,-1
 154 337 l 1,61,-1
 154 90 l 1,48,-1
EndSplineSet
EndChar

StartChar: uni0182
Encoding: 386 386 324
Width: 500
GlyphClass: 2
Flags: W
FFAnchorPoint: "Anchor-5" 446 0 basechar 0
FFAnchorPoint: "Anchor-4" 446 735 basechar 0
FFAnchorPoint: "Anchor-3" 250 367 basechar 0
FFAnchorPoint: "Anchor-2" 250 382 basechar 0
FFAnchorPoint: "Anchor-1" 250 0 basechar 0
FFAnchorPoint: "Anchor-0" 250 735 basechar 0
LayerCount: 2
Fore
SplineSet
54 0 m 1,0,-1
 54 735 l 1,1,-1
 407 735 l 1,2,-1
 407 645 l 1,3,-1
 154 645 l 1,4,-1
 154 449 l 1,5,-1
 244 449 l 2,6,7
 308 449 308 449 355 422 c 0,8,9
 398 397 398 397 423 353 c 0,10,11
 454 300 454 300 454 224.5 c 128,-1,12
 454 149 454 149 423 96 c 0,13,14
 398 52 398 52 355 27 c 0,15,16
 308 0 308 0 244 0 c 2,17,-1
 54 0 l 1,0,-1
154 90 m 1,18,-1
 244 90 l 2,19,20
 274 90 274 90 297 103 c 128,-1,21
 320 116 320 116 335 142 c 0,22,23
 354 175 354 175 354 224.5 c 128,-1,24
 354 274 354 274 335 308 c 0,25,26
 320 333 320 333 297 346 c 128,-1,27
 274 359 274 359 244 359 c 2,28,-1
 154 359 l 1,29,-1
 154 90 l 1,18,-1
EndSplineSet
EndChar

StartChar: uni0183
Encoding: 387 387 325
Width: 500
GlyphClass: 2
Flags: W
FFAnchorPoint: "Anchor-5" 446 0 basechar 0
FFAnchorPoint: "Anchor-4" 446 735 basechar 0
FFAnchorPoint: "Anchor-3" 250 367 basechar 0
FFAnchorPoint: "Anchor-2" 250 382 basechar 0
FFAnchorPoint: "Anchor-1" 250 0 basechar 0
FFAnchorPoint: "Anchor-0" 250 735 basechar 0
LayerCount: 2
Fore
SplineSet
284 -8 m 0,0,1
 243 -8 243 -8 212 10 c 0,2,3
 178 30 178 30 155 69 c 1,4,-1
 154 71 l 1,5,-1
 154 0 l 1,6,-1
 54 0 l 1,7,-1
 54 735 l 1,8,-1
 407 735 l 1,9,-1
 407 645 l 1,10,-1
 154 645 l 1,11,-1
 154 459 l 1,12,-1
 155 461 l 1,13,14
 178 500 178 500 212 520 c 0,15,16
 243 538 243 538 284 538 c 0,17,18
 328 538 328 538 361 519 c 0,19,20
 397 498 397 498 420 457 c 1,21,22
 454 400 454 400 454 310 c 2,23,-1
 454 220 l 2,24,25
 454 130 454 130 420 73 c 1,26,27
 397 32 397 32 361 11 c 0,28,29
 328 -8 328 -8 284 -8 c 0,0,1
251 82 m 0,30,31
 277 82 277 82 298 94.5 c 128,-1,32
 319 107 319 107 334 131 c 1,33,34
 354 167 354 167 354 220 c 2,35,-1
 354 310 l 2,36,37
 354 363 354 363 334 399 c 1,38,39
 319 423 319 423 298 435.5 c 128,-1,40
 277 448 277 448 251 448 c 0,41,42
 226 448 226 448 209 438 c 0,43,44
 188 426 188 426 175 402 c 1,45,46
 154 367 154 367 154 310 c 2,47,-1
 154 220 l 2,48,49
 154 163 154 163 175 128 c 1,50,51
 188 104 188 104 209 92 c 0,52,53
 226 82 226 82 251 82 c 0,30,31
EndSplineSet
EndChar

StartChar: uni0184
Encoding: 388 388 326
Width: 500
GlyphClass: 2
Flags: W
FFAnchorPoint: "Anchor-5" 446 0 basechar 0
FFAnchorPoint: "Anchor-4" 446 735 basechar 0
FFAnchorPoint: "Anchor-3" 250 367 basechar 0
FFAnchorPoint: "Anchor-2" 250 382 basechar 0
FFAnchorPoint: "Anchor-1" 250 0 basechar 0
FFAnchorPoint: "Anchor-0" 250 735 basechar 0
LayerCount: 2
Fore
SplineSet
54 0 m 1,0,-1
 54 555 l 1,1,-1
 -36 645 l 1,2,-1
 54 735 l 1,3,-1
 154 735 l 1,4,-1
 154 449 l 1,5,-1
 244 449 l 2,6,7
 308 449 308 449 355 422 c 0,8,9
 398 397 398 397 423 353 c 0,10,11
 454 300 454 300 454 224.5 c 128,-1,12
 454 149 454 149 423 96 c 0,13,14
 398 52 398 52 355 27 c 0,15,16
 308 0 308 0 244 0 c 2,17,-1
 54 0 l 1,0,-1
154 90 m 1,18,-1
 244 90 l 2,19,20
 274 90 274 90 297 103 c 128,-1,21
 320 116 320 116 335 142 c 0,22,23
 354 175 354 175 354 224.5 c 128,-1,24
 354 274 354 274 335 308 c 0,25,26
 320 333 320 333 297 346 c 128,-1,27
 274 359 274 359 244 359 c 2,28,-1
 154 359 l 1,29,-1
 154 90 l 1,18,-1
EndSplineSet
EndChar

StartChar: uni0185
Encoding: 389 389 327
Width: 500
GlyphClass: 2
Flags: W
FFAnchorPoint: "Anchor-5" 446 0 basechar 0
FFAnchorPoint: "Anchor-4" 446 735 basechar 0
FFAnchorPoint: "Anchor-3" 250 367 basechar 0
FFAnchorPoint: "Anchor-2" 250 382 basechar 0
FFAnchorPoint: "Anchor-1" 250 0 basechar 0
FFAnchorPoint: "Anchor-0" 250 735 basechar 0
LayerCount: 2
Fore
SplineSet
284 -8 m 0,0,1
 243 -8 243 -8 212 10 c 0,2,3
 178 30 178 30 155 69 c 1,4,-1
 154 71 l 1,5,-1
 154 0 l 1,6,-1
 54 0 l 1,7,-1
 54 555 l 1,8,-1
 -36 645 l 1,9,-1
 54 735 l 1,10,-1
 154 735 l 1,11,-1
 154 459 l 1,12,-1
 155 461 l 1,13,14
 178 500 178 500 212 520 c 0,15,16
 243 538 243 538 284 538 c 0,17,18
 328 538 328 538 361 519 c 0,19,20
 397 498 397 498 420 457 c 1,21,22
 454 400 454 400 454 310 c 2,23,-1
 454 220 l 2,24,25
 454 130 454 130 420 73 c 1,26,27
 397 32 397 32 361 11 c 0,28,29
 328 -8 328 -8 284 -8 c 0,0,1
251 82 m 0,30,31
 277 82 277 82 298 94.5 c 128,-1,32
 319 107 319 107 334 131 c 1,33,34
 354 167 354 167 354 220 c 2,35,-1
 354 310 l 2,36,37
 354 363 354 363 334 399 c 1,38,39
 319 423 319 423 298 435.5 c 128,-1,40
 277 448 277 448 251 448 c 0,41,42
 226 448 226 448 209 438 c 0,43,44
 188 426 188 426 175 402 c 1,45,46
 154 367 154 367 154 310 c 2,47,-1
 154 220 l 2,48,49
 154 163 154 163 175 128 c 1,50,51
 188 104 188 104 209 92 c 0,52,53
 226 82 226 82 251 82 c 0,30,31
EndSplineSet
EndChar

StartChar: uni0186
Encoding: 390 390 328
Width: 500
GlyphClass: 2
Flags: W
FFAnchorPoint: "Anchor-5" 446 0 basechar 0
FFAnchorPoint: "Anchor-4" 446 735 basechar 0
FFAnchorPoint: "Anchor-3" 250 367 basechar 0
FFAnchorPoint: "Anchor-2" 250 382 basechar 0
FFAnchorPoint: "Anchor-1" 250 0 basechar 0
FFAnchorPoint: "Anchor-0" 250 735 basechar 0
LayerCount: 2
Fore
SplineSet
250 -8 m 256,0,1
 186 -8 186 -8 140 19 c 0,2,3
 98 43 98 43 74 85 c 0,4,5
 55 117 55 117 49 155 c 1,6,-1
 146 176 l 1,7,8
 150 151 150 151 161 131 c 0,9,10
 175 107 175 107 197 94.5 c 128,-1,11
 219 82 219 82 250 82 c 0,12,13
 280 82 280 82 302 94.5 c 128,-1,14
 324 107 324 107 337 130 c 0,15,16
 354 160 354 160 354 203 c 2,17,-1
 354 532 l 2,18,19
 354 592 354 592 321 626 c 0,20,21
 312 634 312 634 302 640 c 0,22,23
 280 653 280 653 250 653 c 0,24,25
 219 653 219 653 197 640.5 c 128,-1,26
 175 628 175 628 161 604 c 0,27,28
 150 584 150 584 146 559 c 1,29,-1
 49 580 l 1,30,31
 55 618 55 618 74 650 c 0,32,33
 98 692 98 692 140 716 c 0,34,35
 186 743 186 743 250 743 c 256,36,37
 314 743 314 743 360 716 c 0,38,39
 402 692 402 692 425 651 c 1,40,41
 454 602 454 602 454 532 c 2,42,-1
 454 203 l 2,43,44
 454 133 454 133 425 84 c 1,45,46
 402 43 402 43 360 19 c 0,47,48
 314 -8 314 -8 250 -8 c 256,0,1
EndSplineSet
EndChar

StartChar: uni0187
Encoding: 391 391 329
Width: 500
GlyphClass: 2
Flags: W
FFAnchorPoint: "Anchor-5" 446 0 basechar 0
FFAnchorPoint: "Anchor-4" 446 735 basechar 0
FFAnchorPoint: "Anchor-3" 250 367 basechar 0
FFAnchorPoint: "Anchor-2" 250 382 basechar 0
FFAnchorPoint: "Anchor-1" 250 0 basechar 0
FFAnchorPoint: "Anchor-0" 250 735 basechar 0
LayerCount: 2
Fore
SplineSet
250 -8 m 256,0,1
 186 -8 186 -8 140 19 c 0,2,3
 98 43 98 43 75 84 c 1,4,5
 46 133 46 133 46 203 c 2,6,-1
 46 532 l 2,7,8
 46 602 46 602 75 651 c 1,9,10
 98 692 98 692 140 716 c 0,11,12
 186 743 186 743 250 743 c 0,13,14
 308 743 308 743 351 721 c 1,15,-1
 351 735 l 2,16,17
 351 795 351 795 377 839 c 1,18,19
 400 880 400 880 443 905 c 0,20,21
 496 935 496 935 571 935 c 1,22,-1
 571 845 l 1,23,24
 530 845 530 845 502 829 c 0,25,26
 478 815 478 815 465 793 c 0,27,28
 451 768 451 768 451 735 c 2,29,-1
 451 580 l 1,30,-1
 354 559 l 1,31,32
 350 584 350 584 339 604 c 0,33,34
 325 628 325 628 303 640.5 c 128,-1,35
 281 653 281 653 250 653 c 0,36,37
 220 653 220 653 198 640.5 c 128,-1,38
 176 628 176 628 163 605 c 0,39,40
 146 575 146 575 146 532 c 2,41,-1
 146 203 l 2,42,43
 146 143 146 143 179 109 c 0,44,45
 188 101 188 101 198 95 c 0,46,47
 220 82 220 82 250 82 c 0,48,49
 281 82 281 82 303 94.5 c 128,-1,50
 325 107 325 107 339 131 c 0,51,52
 350 151 350 151 354 176 c 1,53,-1
 451 155 l 1,54,55
 445 117 445 117 426 85 c 0,56,57
 402 43 402 43 360 19 c 0,58,59
 314 -8 314 -8 250 -8 c 256,0,1
EndSplineSet
EndChar

StartChar: uni0188
Encoding: 392 392 330
Width: 500
GlyphClass: 2
Flags: W
FFAnchorPoint: "Anchor-5" 446 0 basechar 0
FFAnchorPoint: "Anchor-4" 446 530 basechar 0
FFAnchorPoint: "Anchor-3" 250 265 basechar 0
FFAnchorPoint: "Anchor-2" 250 275 basechar 0
FFAnchorPoint: "Anchor-1" 250 0 basechar 0
FFAnchorPoint: "Anchor-0" 250 530 basechar 0
LayerCount: 2
Fore
SplineSet
252 -8 m 0,0,1
 190 -8 190 -8 146 18 c 1,2,3
 103 42 103 42 78 86 c 0,4,5
 46 141 46 141 46 220 c 2,6,-1
 46 310 l 2,7,8
 46 389 46 389 78 444 c 0,9,10
 103 488 103 488 146 512 c 1,11,12
 190 538 190 538 252 538 c 0,13,14
 309 538 309 538 351 516 c 1,15,-1
 351 530 l 2,16,17
 351 590 351 590 377 634 c 1,18,19
 400 675 400 675 443 700 c 0,20,21
 496 730 496 730 571 730 c 1,22,-1
 571 640 l 1,23,24
 530 640 530 640 502 624 c 0,25,26
 478 610 478 610 465 588 c 0,27,28
 451 563 451 563 451 530 c 2,29,-1
 451 375 l 1,30,-1
 356 348 l 1,31,32
 351 376 351 376 338 397 c 1,33,34
 324 423 324 423 301 436 c 0,35,36
 280 448 280 448 252 448 c 256,37,38
 224 448 224 448 203 436 c 0,39,40
 181 423 181 423 166 398 c 0,41,42
 146 363 146 363 146 310 c 2,43,-1
 146 220 l 2,44,45
 146 167 146 167 166 132 c 0,46,47
 181 107 181 107 203 94 c 0,48,49
 224 82 224 82 252 82 c 256,50,51
 280 82 280 82 301 94 c 0,52,53
 324 107 324 107 338 133 c 1,54,55
 351 154 351 154 356 182 c 1,56,-1
 451 155 l 1,57,58
 443 118 443 118 425 87 c 0,59,60
 400 42 400 42 357 18 c 1,61,62
 313 -8 313 -8 252 -8 c 0,0,1
EndSplineSet
EndChar

StartChar: uni018A
Encoding: 394 394 332
Width: 500
GlyphClass: 2
Flags: W
FFAnchorPoint: "Anchor-5" 446 0 basechar 0
FFAnchorPoint: "Anchor-4" 446 735 basechar 0
FFAnchorPoint: "Anchor-3" 250 367 basechar 0
FFAnchorPoint: "Anchor-2" 250 382 basechar 0
FFAnchorPoint: "Anchor-1" 250 0 basechar 0
FFAnchorPoint: "Anchor-0" 250 735 basechar 0
LayerCount: 2
Fore
SplineSet
54 0 m 1,0,-1
 54 666 l 1,1,2
 49 666 49 666 45 662 c 0,3,4
 27 643 27 643 27 565 c 1,5,-1
 -50 565 l 1,6,7
 -50 640 -50 640 -24 686 c 0,8,9
 -9 712 -9 712 13 724 c 1,10,11
 31 735 31 735 54 735 c 2,12,-1
 223 735 l 2,13,14
 288 735 288 735 338 706 c 0,15,16
 385 679 385 679 415 627 c 0,17,18
 454 560 454 560 454 461 c 2,19,-1
 454 274 l 2,20,21
 454 175 454 175 415 108 c 0,22,23
 385 56 385 56 338 29 c 0,24,25
 288 0 288 0 223 0 c 2,26,-1
 54 0 l 1,0,-1
154 90 m 1,27,-1
 223 90 l 2,28,29
 255 90 255 90 281 105 c 0,30,31
 308 120 308 120 327 152 c 0,32,33
 354 200 354 200 354 274 c 2,34,-1
 354 461 l 2,35,36
 354 535 354 535 327 583 c 0,37,38
 308 615 308 615 281 630 c 0,39,40
 255 645 255 645 223 645 c 2,41,-1
 154 645 l 1,42,-1
 154 90 l 1,27,-1
EndSplineSet
EndChar

StartChar: uni018B
Encoding: 395 395 333
Width: 500
GlyphClass: 2
Flags: W
FFAnchorPoint: "Anchor-5" 446 0 basechar 0
FFAnchorPoint: "Anchor-4" 446 735 basechar 0
FFAnchorPoint: "Anchor-3" 250 367 basechar 0
FFAnchorPoint: "Anchor-2" 250 382 basechar 0
FFAnchorPoint: "Anchor-1" 250 0 basechar 0
FFAnchorPoint: "Anchor-0" 250 735 basechar 0
LayerCount: 2
Fore
SplineSet
446 0 m 1,0,-1
 256 0 l 2,1,2
 192 0 192 0 145 27 c 0,3,4
 103 52 103 52 76 96 c 1,5,6
 46 150 46 150 46 225 c 128,-1,7
 46 300 46 300 76 353 c 1,8,9
 103 398 103 398 145 422 c 0,10,11
 192 449 192 449 256 449 c 2,12,-1
 346 449 l 1,13,-1
 346 645 l 1,14,-1
 93 645 l 1,15,-1
 93 735 l 1,16,-1
 446 735 l 1,17,-1
 446 0 l 1,0,-1
256 90 m 2,18,-1
 346 90 l 1,19,-1
 346 359 l 1,20,-1
 256 359 l 2,21,22
 226 359 226 359 202 346 c 0,23,24
 180 333 180 333 165 308 c 0,25,26
 146 274 146 274 146 224.5 c 128,-1,27
 146 175 146 175 165 142 c 0,28,29
 180 117 180 117 202 103 c 1,30,31
 226 90 226 90 256 90 c 2,18,-1
EndSplineSet
EndChar

StartChar: uni018C
Encoding: 396 396 334
Width: 500
GlyphClass: 2
Flags: W
FFAnchorPoint: "Anchor-5" 446 0 basechar 0
FFAnchorPoint: "Anchor-4" 446 735 basechar 0
FFAnchorPoint: "Anchor-3" 250 367 basechar 0
FFAnchorPoint: "Anchor-2" 250 382 basechar 0
FFAnchorPoint: "Anchor-1" 250 0 basechar 0
FFAnchorPoint: "Anchor-0" 250 735 basechar 0
LayerCount: 2
Fore
SplineSet
216 -8 m 0,0,1
 172 -8 172 -8 139 11 c 0,2,3
 103 32 103 32 80 73 c 1,4,5
 46 130 46 130 46 220 c 2,6,-1
 46 310 l 2,7,8
 46 400 46 400 80 457 c 1,9,10
 103 498 103 498 139 519 c 0,11,12
 172 538 172 538 216 538 c 0,13,14
 257 538 257 538 288 520 c 0,15,16
 322 500 322 500 345 461 c 1,17,-1
 346 459 l 1,18,-1
 346 645 l 1,19,-1
 93 645 l 1,20,-1
 93 735 l 1,21,-1
 446 735 l 1,22,-1
 446 0 l 1,23,-1
 346 0 l 1,24,-1
 346 71 l 1,25,-1
 345 69 l 1,26,27
 322 30 322 30 288 10 c 0,28,29
 257 -8 257 -8 216 -8 c 0,0,1
249 82 m 0,30,31
 274 82 274 82 291 92 c 0,32,33
 312 104 312 104 325 128 c 1,34,35
 346 163 346 163 346 220 c 2,36,-1
 346 310 l 2,37,38
 346 367 346 367 325 402 c 1,39,40
 312 426 312 426 291 438 c 0,41,42
 274 448 274 448 249 448 c 0,43,44
 223 448 223 448 202 435.5 c 128,-1,45
 181 423 181 423 166 399 c 1,46,47
 146 363 146 363 146 310 c 2,48,-1
 146 220 l 2,49,50
 146 167 146 167 166 131 c 1,51,52
 181 107 181 107 202 94.5 c 128,-1,53
 223 82 223 82 249 82 c 0,30,31
EndSplineSet
EndChar

StartChar: uni018D
Encoding: 397 397 335
Width: 500
GlyphClass: 2
Flags: W
FFAnchorPoint: "Anchor-5" 446 -205 basechar 0
FFAnchorPoint: "Anchor-4" 446 530 basechar 0
FFAnchorPoint: "Anchor-3" 250 162 basechar 0
FFAnchorPoint: "Anchor-2" 250 177 basechar 0
FFAnchorPoint: "Anchor-1" 250 -205 basechar 0
FFAnchorPoint: "Anchor-0" 250 530 basechar 0
LayerCount: 2
Fore
SplineSet
259 -213 m 0,0,1
 178 -213 178 -213 83 -164 c 1,2,-1
 83 -74 l 1,3,4
 179 -123 179 -123 247 -123 c 0,5,6
 277 -123 277 -123 296 -112 c 0,7,8
 310 -103 310 -103 318 -89 c 0,9,10
 328 -73 328 -73 329 -50 c 1,11,12
 328 -28 328 -28 319 -13 c 0,13,14
 312 0 312 0 299 7.5 c 128,-1,15
 286 15 286 15 252 21 c 0,16,17
 171 34 171 34 130.5 57.5 c 128,-1,18
 90 81 90 81 69 118 c 0,19,20
 46 157 46 157 46 232 c 2,21,-1
 46 319 l 2,22,23
 46 393 46 393 76 445 c 0,24,25
 101 488 101 488 143 512 c 0,26,27
 188 538 188 538 250 538 c 256,28,29
 312 538 312 538 357 512 c 0,30,31
 399 488 399 488 424 445 c 0,32,33
 454 393 454 393 454 319 c 2,34,-1
 454 232 l 2,35,36
 454 175 454 175 430 133 c 0,37,38
 408 96 408 96 371 74 c 1,39,40
 393 59 393 59 408 34 c 0,41,42
 428 -2 428 -2 429 -49 c 1,43,44
 428 -98 428 -98 406 -137 c 0,45,46
 386 -171 386 -171 353 -190 c 0,47,48
 313 -213 313 -213 259 -213 c 0,0,1
299 102 m 1,49,50
 319 114 319 114 333 137 c 1,51,52
 354 175 354 175 354 232 c 2,53,-1
 354 319 l 2,54,55
 354 367 354 367 335 399 c 1,56,57
 322 423 322 423 300 435.5 c 128,-1,58
 278 448 278 448 250 448 c 256,59,60
 222 448 222 448 200 435.5 c 128,-1,61
 178 423 178 423 165 399 c 1,62,63
 146 367 146 367 146 319 c 2,64,-1
 146 232 l 2,65,66
 146 187 146 187 160 163 c 0,67,68
 172 142 172 142 194 129 c 0,69,70
 214 118 214 118 271 107 c 0,71,72
 286 105 286 105 299 102 c 1,49,50
EndSplineSet
EndChar

StartChar: uni018E
Encoding: 398 398 336
Width: 500
GlyphClass: 2
Flags: W
FFAnchorPoint: "Anchor-5" 446 0 basechar 0
FFAnchorPoint: "Anchor-4" 446 735 basechar 0
FFAnchorPoint: "Anchor-3" 250 367 basechar 0
FFAnchorPoint: "Anchor-2" 250 382 basechar 0
FFAnchorPoint: "Anchor-1" 250 0 basechar 0
FFAnchorPoint: "Anchor-0" 250 735 basechar 0
LayerCount: 2
Fore
SplineSet
54 0 m 1,0,-1
 54 90 l 1,1,-1
 319 90 l 1,2,-1
 319 293 l 1,3,-1
 113 293 l 1,4,-1
 113 383 l 1,5,-1
 319 383 l 1,6,-1
 319 645 l 1,7,-1
 54 645 l 1,8,-1
 54 735 l 1,9,-1
 419 735 l 1,10,-1
 419 0 l 1,11,-1
 54 0 l 1,0,-1
EndSplineSet
EndChar

StartChar: uni018F
Encoding: 399 399 337
Width: 500
GlyphClass: 2
Flags: W
FFAnchorPoint: "Anchor-5" 446 0 basechar 0
FFAnchorPoint: "Anchor-4" 446 735 basechar 0
FFAnchorPoint: "Anchor-3" 250 367 basechar 0
FFAnchorPoint: "Anchor-2" 250 382 basechar 0
FFAnchorPoint: "Anchor-1" 250 0 basechar 0
FFAnchorPoint: "Anchor-0" 250 735 basechar 0
LayerCount: 2
Fore
SplineSet
250 -8 m 256,0,1
 189 -8 189 -8 146 17 c 128,-1,2
 103 42 103 42 78 86 c 0,3,4
 46 141 46 141 46 220 c 2,5,-1
 46 413 l 1,6,-1
 354 413 l 1,7,-1
 354 515 l 2,8,9
 354 567 354 567 334 601 c 0,10,11
 319 626 319 626 296 639.5 c 128,-1,12
 273 653 273 653 243 653 c 0,13,14
 212 653 212 653 188 639.5 c 128,-1,15
 164 626 164 626 150 600 c 0,16,17
 142 586 142 586 137 570 c 1,18,-1
 45 605 l 1,19,20
 52 626 52 626 63 646 c 0,21,22
 89 691 89 691 133 716 c 0,23,24
 179 743 179 743 243 743 c 256,25,26
 307 743 307 743 353 716 c 0,27,28
 396 691 396 691 423 647 c 1,29,30
 454 592 454 592 454 515 c 2,31,-1
 454 220 l 2,32,33
 454 141 454 141 422 86 c 0,34,35
 397 42 397 42 354 17 c 128,-1,36
 311 -8 311 -8 250 -8 c 256,0,1
250 82 m 256,37,38
 277 82 277 82 297 94 c 0,39,40
 319 106 319 106 334 131 c 0,41,42
 354 167 354 167 354 220 c 2,43,-1
 354 323 l 1,44,-1
 146 323 l 1,45,-1
 146 220 l 2,46,47
 146 167 146 167 166 131 c 0,48,49
 181 106 181 106 203 94 c 0,50,51
 223 82 223 82 250 82 c 256,37,38
EndSplineSet
EndChar

StartChar: uni0190
Encoding: 400 400 338
Width: 500
GlyphClass: 2
Flags: W
FFAnchorPoint: "Anchor-5" 446 0 basechar 0
FFAnchorPoint: "Anchor-4" 446 735 basechar 0
FFAnchorPoint: "Anchor-3" 250 367 basechar 0
FFAnchorPoint: "Anchor-2" 250 382 basechar 0
FFAnchorPoint: "Anchor-1" 250 0 basechar 0
FFAnchorPoint: "Anchor-0" 250 735 basechar 0
LayerCount: 2
Fore
SplineSet
258 -8 m 0,0,1
 187 -8 187 -8 136 21 c 0,2,3
 92 47 92 47 67 91 c 0,4,5
 38 140 38 140 38 209 c 0,6,7
 38 269 38 269 63 311 c 1,8,9
 86 352 86 352 128 376 c 0,10,11
 135 380 135 380 143 383 c 1,12,13
 140 385 140 385 137 387 c 0,14,15
 98 409 98 409 77 446 c 0,16,17
 54 485 54 485 54 541 c 0,18,19
 54 606 54 606 81 652 c 0,20,21
 104 693 104 693 145 716 c 0,22,23
 191 743 191 743 256 743 c 0,24,25
 320 743 320 743 366 716 c 0,26,27
 407 693 407 693 430 652 c 0,28,29
 437 640 437 640 443 625 c 1,30,-1
 351 590 l 1,31,32
 347 599 347 599 343 606 c 0,33,34
 331 628 331 628 310 640 c 0,35,36
 287 653 287 653 256 653 c 256,37,38
 225 653 225 653 203 640 c 0,39,40
 182 628 182 628 170 606 c 1,41,42
 154 580 154 580 154 540 c 128,-1,43
 154 500 154 500 170 472 c 0,44,45
 182 451 182 451 202 439 c 0,46,47
 223 427 223 427 250 427 c 2,48,-1
 309 427 l 1,49,-1
 309 337 l 1,50,-1
 250 337 l 2,51,52
 217 337 217 337 193 323 c 0,53,54
 170 310 170 310 156 285 c 0,55,56
 138 254 138 254 138 210.5 c 128,-1,57
 138 167 138 167 155 137 c 0,58,59
 170 112 170 112 194 97 c 1,60,61
 221 82 221 82 258 82 c 0,62,63
 297 82 297 82 325 98 c 0,64,65
 349 112 349 112 362 135 c 0,66,67
 366 142 366 142 368 148 c 1,68,-1
 459 110 l 1,69,70
 454 98 454 98 448 88 c 0,71,72
 424 46 424 46 381 21 c 0,73,74
 331 -8 331 -8 258 -8 c 0,0,1
EndSplineSet
EndChar

StartChar: uni0191
Encoding: 401 401 339
Width: 500
GlyphClass: 2
Flags: W
FFAnchorPoint: "Anchor-5" 446 0 basechar 0
FFAnchorPoint: "Anchor-4" 446 735 basechar 0
FFAnchorPoint: "Anchor-3" 250 367 basechar 0
FFAnchorPoint: "Anchor-2" 250 382 basechar 0
FFAnchorPoint: "Anchor-1" 250 0 basechar 0
FFAnchorPoint: "Anchor-0" 250 735 basechar 0
LayerCount: 2
Fore
SplineSet
-39 -200 m 1,0,-1
 -39 -110 l 1,1,2
 2 -110 2 -110 30 -94 c 0,3,4
 54 -80 54 -80 67 -58 c 0,5,6
 81 -33 81 -33 81 0 c 2,7,-1
 81 735 l 1,8,-1
 446 735 l 1,9,-1
 446 645 l 1,10,-1
 181 645 l 1,11,-1
 181 442 l 1,12,-1
 387 442 l 1,13,-1
 387 352 l 1,14,-1
 181 352 l 1,15,-1
 181 0 l 2,16,17
 181 -60 181 -60 155 -104 c 1,18,19
 132 -145 132 -145 89 -170 c 0,20,21
 36 -200 36 -200 -39 -200 c 1,0,-1
EndSplineSet
EndChar

StartChar: florin
Encoding: 402 402 340
Width: 500
GlyphClass: 2
Flags: W
FFAnchorPoint: "Anchor-5" 446 -205 basechar 0
FFAnchorPoint: "Anchor-4" 446 735 basechar 0
FFAnchorPoint: "Anchor-3" 250 265 basechar 0
FFAnchorPoint: "Anchor-2" 250 283 basechar 0
FFAnchorPoint: "Anchor-1" 250 -205 basechar 0
FFAnchorPoint: "Anchor-0" 250 735 basechar 0
LayerCount: 2
Fore
SplineSet
80 -195 m 1,0,-1
 80 -105 l 1,1,2
 134 -105 134 -105 159 -91 c 0,3,4
 177 -80 177 -80 188 -62 c 0,5,6
 200 -41 200 -41 200 0 c 2,7,-1
 200 415 l 1,8,-1
 75 415 l 1,9,-1
 75 505 l 1,10,-1
 200 505 l 1,11,-1
 200 580 l 2,12,13
 200 657 200 657 223 695 c 1,14,15
 242 729 242 729 276 748 c 1,16,17
 321 775 321 775 420 775 c 1,18,-1
 420 685 l 1,19,20
 366 685 366 685 341 671 c 0,21,22
 323 660 323 660 312 642 c 0,23,24
 300 621 300 621 300 580 c 2,25,-1
 300 505 l 1,26,-1
 425 505 l 1,27,-1
 425 415 l 1,28,-1
 300 415 l 1,29,-1
 300 0 l 2,30,31
 300 -77 300 -77 277 -115 c 1,32,33
 258 -149 258 -149 224 -168 c 1,34,35
 179 -195 179 -195 80 -195 c 1,0,-1
EndSplineSet
EndChar

StartChar: uni0193
Encoding: 403 403 341
Width: 500
GlyphClass: 2
Flags: W
FFAnchorPoint: "Anchor-5" 446 0 basechar 0
FFAnchorPoint: "Anchor-4" 446 735 basechar 0
FFAnchorPoint: "Anchor-3" 250 367 basechar 0
FFAnchorPoint: "Anchor-2" 250 382 basechar 0
FFAnchorPoint: "Anchor-1" 250 0 basechar 0
FFAnchorPoint: "Anchor-0" 250 735 basechar 0
LayerCount: 2
Fore
SplineSet
249 -8 m 0,0,1
 186 -8 186 -8 140 18 c 1,2,3
 99 43 99 43 74 85 c 0,4,5
 46 134 46 134 46 203 c 2,6,-1
 46 532 l 2,7,8
 46 602 46 602 75 651 c 1,9,10
 98 692 98 692 140 716 c 0,11,12
 186 743 186 743 250 743 c 0,13,14
 308 743 308 743 351 721 c 1,15,-1
 351 735 l 2,16,17
 351 795 351 795 377 839 c 1,18,19
 400 880 400 880 443 905 c 0,20,21
 496 935 496 935 571 935 c 1,22,-1
 571 845 l 1,23,24
 530 845 530 845 502 829 c 0,25,26
 478 815 478 815 465 793 c 0,27,28
 451 768 451 768 451 735 c 2,29,-1
 451 580 l 1,30,-1
 354 559 l 1,31,32
 350 584 350 584 339 604 c 0,33,34
 325 628 325 628 303 640.5 c 128,-1,35
 281 653 281 653 250 653 c 0,36,37
 220 653 220 653 198 640.5 c 128,-1,38
 176 628 176 628 163 605 c 0,39,40
 146 575 146 575 146 532 c 2,41,-1
 146 203 l 2,42,43
 146 160 146 160 163 130 c 0,44,45
 176 107 176 107 198 94.5 c 128,-1,46
 220 82 220 82 249 82 c 0,47,48
 276 82 276 82 295 93 c 0,49,50
 316 105 316 105 328 127 c 1,51,52
 346 157 346 157 346 203 c 2,53,-1
 346 315 l 1,54,-1
 250 315 l 1,55,-1
 250 405 l 1,56,-1
 446 405 l 1,57,-1
 446 203 l 2,58,59
 446 132 446 132 417 82 c 0,60,61
 393 40 393 40 353 17 c 0,62,63
 309 -8 309 -8 249 -8 c 0,0,1
EndSplineSet
EndChar

StartChar: uni0194
Encoding: 404 404 342
Width: 500
GlyphClass: 2
Flags: W
FFAnchorPoint: "Anchor-5" 446 -205 basechar 0
FFAnchorPoint: "Anchor-4" 446 735 basechar 0
FFAnchorPoint: "Anchor-3" 250 265 basechar 0
FFAnchorPoint: "Anchor-2" 250 283 basechar 0
FFAnchorPoint: "Anchor-1" 250 -205 basechar 0
FFAnchorPoint: "Anchor-0" 250 735 basechar 0
LayerCount: 2
Fore
SplineSet
250 -205 m 256,0,1
 216 -205 216 -205 192 -191 c 0,2,3
 171 -179 171 -179 160 -159 c 1,4,5
 147 -138 147 -138 147 -101 c 0,6,7
 147 31 147 31 206 262 c 1,8,9
 151 462 151 462 46 735 c 1,10,-1
 146 735 l 1,11,12
 207 561 207 561 250 417 c 1,13,14
 293 561 293 561 354 735 c 1,15,-1
 454 735 l 1,16,17
 349 461 349 461 293 263 c 1,18,19
 353 31 353 31 353 -101 c 0,20,21
 353 -138 353 -138 340 -159 c 1,22,23
 329 -179 329 -179 308 -191 c 0,24,25
 284 -205 284 -205 250 -205 c 256,0,1
250 -131 m 256,26,27
 258 -131 258 -131 264 -126 c 0,28,29
 271 -119 271 -119 271 -103 c 0,30,31
 271 -26 271 -26 249 84 c 1,32,33
 232 -7 232 -7 230 -73 c 1,34,-1
 230 -76 l 2,35,36
 230 -84 230 -84 229 -88 c 1,37,38
 229 -99 229 -99 229 -103 c 0,39,40
 229 -119 229 -119 236 -126 c 0,41,42
 242 -131 242 -131 250 -131 c 256,26,27
EndSplineSet
EndChar

StartChar: uni0195
Encoding: 405 405 343
Width: 500
GlyphClass: 2
Flags: W
LayerCount: 2
Fore
SplineSet
327 -8 m 0,0,1
 290 -8 290 -8 262 8 c 0,2,3
 236 23 236 23 220 50 c 0,4,5
 201 84 201 84 201 132 c 2,6,-1
 201 398 l 2,7,8
 201 430 201 430 188 443 c 0,9,10
 181 449 181 449 173 449 c 0,11,12
 164 449 164 449 158 443 c 0,13,14
 145 430 145 430 144 398 c 1,15,-1
 144 0 l 1,16,-1
 46 0 l 1,17,-1
 46 735 l 1,18,-1
 144 735 l 1,19,-1
 144 515 l 1,20,21
 151 522 151 522 160 528 c 0,22,23
 178 538 178 538 202 538 c 256,24,25
 226 538 226 538 244 528 c 0,26,27
 265 516 265 516 278 492 c 0,28,29
 299 455 299 455 299 398 c 2,30,-1
 299 132 l 2,31,32
 299 100 299 100 312 87 c 0,33,34
 319 81 319 81 327 81 c 0,35,36
 336 81 336 81 342 87 c 0,37,38
 355 100 355 100 356 132 c 1,39,-1
 356 530 l 1,40,-1
 454 530 l 1,41,-1
 454 132 l 2,42,43
 454 84 454 84 435 50 c 0,44,45
 419 23 419 23 393 8 c 0,46,47
 365 -8 365 -8 327 -8 c 0,0,1
EndSplineSet
EndChar

StartChar: uni0196
Encoding: 406 406 344
Width: 500
GlyphClass: 2
Flags: W
FFAnchorPoint: "Anchor-5" 446 0 basechar 0
FFAnchorPoint: "Anchor-4" 446 735 basechar 0
FFAnchorPoint: "Anchor-3" 250 367 basechar 0
FFAnchorPoint: "Anchor-2" 250 382 basechar 0
FFAnchorPoint: "Anchor-1" 250 0 basechar 0
FFAnchorPoint: "Anchor-0" 250 735 basechar 0
LayerCount: 2
Fore
SplineSet
360 0 m 2,0,1
 308 0 308 0 270 21 c 1,2,3
 239 40 239 40 220 71 c 1,4,5
 200 107 200 107 200 155 c 2,6,-1
 200 645 l 1,7,-1
 75 645 l 1,8,-1
 75 735 l 1,9,-1
 300 735 l 1,10,-1
 300 155 l 2,11,12
 300 133 300 133 309 118 c 0,13,14
 316 105 316 105 328 98 c 0,15,16
 342 90 342 90 360 90 c 2,17,-1
 434 90 l 1,18,-1
 434 0 l 1,19,-1
 360 0 l 2,0,1
EndSplineSet
EndChar

StartChar: uni0198
Encoding: 408 408 346
Width: 500
GlyphClass: 2
Flags: W
FFAnchorPoint: "Anchor-5" 446 0 basechar 0
FFAnchorPoint: "Anchor-4" 446 735 basechar 0
FFAnchorPoint: "Anchor-3" 250 367 basechar 0
FFAnchorPoint: "Anchor-2" 250 382 basechar 0
FFAnchorPoint: "Anchor-1" 250 0 basechar 0
FFAnchorPoint: "Anchor-0" 250 735 basechar 0
LayerCount: 2
Fore
SplineSet
54 0 m 1,0,-1
 54 535 l 2,1,2
 54 595 54 595 80 639 c 1,3,4
 103 680 103 680 146 705 c 0,5,6
 199 735 199 735 274 735 c 1,7,-1
 274 645 l 1,8,9
 233 645 233 645 205 629 c 0,10,11
 181 615 181 615 168 593 c 0,12,13
 154 568 154 568 154 535 c 2,14,-1
 154 420 l 1,15,16
 244 527 244 527 297 619 c 0,17,18
 341 694 341 694 341 735 c 1,19,-1
 446 735 l 1,20,21
 446 688 446 688 396 601 c 0,22,23
 355 531 355 531 298 456 c 1,24,25
 454 115 454 115 454 0 c 1,26,-1
 354 0 l 1,27,28
 354 99 354 99 232 374 c 1,29,30
 196 331 196 331 154 286 c 1,31,-1
 154 0 l 1,32,-1
 54 0 l 1,0,-1
EndSplineSet
EndChar

StartChar: uni0199
Encoding: 409 409 347
Width: 500
GlyphClass: 2
Flags: W
FFAnchorPoint: "Anchor-5" 446 0 basechar 0
FFAnchorPoint: "Anchor-4" 446 735 basechar 0
FFAnchorPoint: "Anchor-3" 250 367 basechar 0
FFAnchorPoint: "Anchor-2" 250 382 basechar 0
FFAnchorPoint: "Anchor-1" 250 0 basechar 0
FFAnchorPoint: "Anchor-0" 250 735 basechar 0
LayerCount: 2
Fore
SplineSet
54 0 m 1,0,-1
 54 535 l 2,1,2
 54 595 54 595 80 639 c 1,3,4
 103 680 103 680 146 705 c 0,5,6
 199 735 199 735 274 735 c 1,7,-1
 274 645 l 1,8,9
 233 645 233 645 205 629 c 0,10,11
 181 615 181 615 168 593 c 0,12,13
 154 568 154 568 154 535 c 2,14,-1
 154 316 l 1,15,16
 286 421 286 421 328 494 c 0,17,18
 341 515 341 515 341 530 c 1,19,-1
 446 530 l 1,20,21
 446 511 446 511 429 480 c 1,22,23
 390 414 390 414 300 330 c 1,24,25
 332 278 332 278 356 237 c 0,26,27
 454 67 454 67 454 0 c 1,28,-1
 354 0 l 1,29,30
 354 58 354 58 270 203 c 0,31,32
 251 236 251 236 231 268 c 1,33,34
 195 238 195 238 154 206 c 1,35,-1
 154 0 l 1,36,-1
 54 0 l 1,0,-1
EndSplineSet
EndChar

StartChar: uni019C
Encoding: 412 412 350
Width: 500
GlyphClass: 2
Flags: W
FFAnchorPoint: "Anchor-5" 446 0 basechar 0
FFAnchorPoint: "Anchor-4" 446 735 basechar 0
FFAnchorPoint: "Anchor-3" 250 367 basechar 0
FFAnchorPoint: "Anchor-2" 250 382 basechar 0
FFAnchorPoint: "Anchor-1" 250 0 basechar 0
FFAnchorPoint: "Anchor-0" 250 735 basechar 0
LayerCount: 2
Fore
SplineSet
139 -8 m 0,0,1
 110 -8 110 -8 88 13 c 1,2,3
 79 23 79 23 71 36 c 0,4,5
 46 80 46 80 46 154 c 2,6,-1
 46 735 l 1,7,-1
 144 735 l 1,8,-1
 144 154 l 1,9,10
 145 102 145 102 161 86 c 0,11,12
 166 81 166 81 173 81 c 0,13,14
 179 81 179 81 184 86 c 0,15,16
 201 102 201 102 201 154 c 2,17,-1
 201 735 l 1,18,-1
 299 735 l 1,19,-1
 299 154 l 2,20,21
 299 102 299 102 316 86 c 0,22,23
 321 81 321 81 327 81 c 0,24,25
 334 81 334 81 339 86 c 0,26,27
 355 102 355 102 356 154 c 1,28,-1
 356 735 l 1,29,-1
 454 735 l 1,30,-1
 454 0 l 1,31,-1
 356 0 l 1,32,-1
 356 29 l 1,33,34
 344 10 344 10 328 0 c 1,35,36
 313 -8 313 -8 294 -8 c 0,37,38
 264 -8 264 -8 243 13 c 0,39,40
 234 23 234 23 226 36 c 0,41,42
 220 46 220 46 215 58 c 1,43,44
 211 45 211 45 204 34 c 1,45,46
 192 11 192 11 173 0 c 0,47,48
 158 -8 158 -8 139 -8 c 0,0,1
EndSplineSet
EndChar

StartChar: uni019D
Encoding: 413 413 351
Width: 500
GlyphClass: 2
Flags: W
FFAnchorPoint: "Anchor-5" 446 0 basechar 0
FFAnchorPoint: "Anchor-4" 446 735 basechar 0
FFAnchorPoint: "Anchor-3" 250 367 basechar 0
FFAnchorPoint: "Anchor-2" 250 382 basechar 0
FFAnchorPoint: "Anchor-1" 250 0 basechar 0
FFAnchorPoint: "Anchor-0" 250 735 basechar 0
LayerCount: 2
Fore
SplineSet
-66 -200 m 1,0,-1
 -66 -110 l 1,1,2
 -25 -110 -25 -110 3 -94 c 0,3,4
 27 -80 27 -80 40 -58 c 0,5,6
 54 -33 54 -33 54 0 c 2,7,-1
 54 735 l 1,8,-1
 173 735 l 1,9,-1
 359 154 l 1,10,11
 358 187 358 187 355 221 c 0,12,13
 346 338 346 338 346 441 c 2,14,-1
 346 735 l 1,15,-1
 446 735 l 1,16,-1
 446 0 l 1,17,-1
 327 0 l 1,18,-1
 141 581 l 1,19,20
 142 548 142 548 145 514 c 0,21,22
 154 397 154 397 154 294 c 2,23,-1
 154 0 l 2,24,25
 154 -60 154 -60 128 -104 c 1,26,27
 105 -145 105 -145 62 -170 c 0,28,29
 9 -200 9 -200 -66 -200 c 1,0,-1
EndSplineSet
EndChar

StartChar: uni019E
Encoding: 414 414 352
Width: 500
GlyphClass: 2
Flags: W
FFAnchorPoint: "Anchor-7" 99 0 basechar 0
FFAnchorPoint: "Anchor-5" 446 -205 basechar 0
FFAnchorPoint: "Anchor-4" 446 530 basechar 0
FFAnchorPoint: "Anchor-3" 250 162 basechar 0
FFAnchorPoint: "Anchor-2" 250 177 basechar 0
FFAnchorPoint: "Anchor-1" 250 -205 basechar 0
FFAnchorPoint: "Anchor-0" 250 530 basechar 0
LayerCount: 2
Fore
SplineSet
346 -205 m 1,0,-1
 346 310 l 2,1,2
 346 367 346 367 325 402 c 1,3,4
 312 426 312 426 291 438 c 0,5,6
 274 448 274 448 250 448 c 256,7,8
 226 448 226 448 209 438 c 0,9,10
 188 426 188 426 175 402 c 1,11,12
 154 367 154 367 154 310 c 2,13,-1
 154 0 l 1,14,-1
 54 0 l 1,15,-1
 54 530 l 1,16,-1
 154 530 l 1,17,-1
 154 459 l 1,18,-1
 155 461 l 1,19,20
 178 500 178 500 212 520 c 0,21,22
 243 538 243 538 284 538 c 0,23,24
 324 538 324 538 355 520 c 0,25,26
 389 500 389 500 412 461 c 0,27,28
 446 402 446 402 446 310 c 2,29,-1
 446 -205 l 1,30,-1
 346 -205 l 1,0,-1
EndSplineSet
EndChar

StartChar: uni019F
Encoding: 415 415 353
Width: 500
GlyphClass: 2
Flags: W
FFAnchorPoint: "Anchor-5" 446 0 basechar 0
FFAnchorPoint: "Anchor-4" 446 735 basechar 0
FFAnchorPoint: "Anchor-3" 250 367 basechar 0
FFAnchorPoint: "Anchor-2" 250 382 basechar 0
FFAnchorPoint: "Anchor-1" 250 0 basechar 0
FFAnchorPoint: "Anchor-0" 250 735 basechar 0
LayerCount: 2
Fore
SplineSet
250 -8 m 256,0,1
 186 -8 186 -8 140 18 c 1,2,3
 99 43 99 43 74 85 c 0,4,5
 46 134 46 134 46 203 c 2,6,-1
 46 532 l 2,7,8
 46 601 46 601 74 650 c 0,9,10
 99 692 99 692 140 717 c 1,11,12
 186 743 186 743 250 743 c 256,13,14
 314 743 314 743 360 717 c 1,15,16
 401 692 401 692 426 650 c 0,17,18
 454 601 454 601 454 532 c 2,19,-1
 454 203 l 2,20,21
 454 134 454 134 426 85 c 0,22,23
 401 43 401 43 360 18 c 1,24,25
 314 -8 314 -8 250 -8 c 256,0,1
250 82 m 256,26,27
 280 82 280 82 302 94.5 c 128,-1,28
 324 107 324 107 337 130 c 0,29,30
 354 160 354 160 354 203 c 2,31,-1
 354 328 l 1,32,-1
 146 328 l 1,33,-1
 146 203 l 2,34,35
 146 160 146 160 163 130 c 0,36,37
 176 107 176 107 198 94.5 c 128,-1,38
 220 82 220 82 250 82 c 256,26,27
146 407 m 1,39,-1
 354 407 l 1,40,-1
 354 532 l 2,41,42
 354 575 354 575 337 605 c 0,43,44
 324 628 324 628 302 640.5 c 128,-1,45
 280 653 280 653 250 653 c 256,46,47
 220 653 220 653 198 640.5 c 128,-1,48
 176 628 176 628 163 605 c 0,49,50
 146 575 146 575 146 532 c 2,51,-1
 146 407 l 1,39,-1
EndSplineSet
EndChar

StartChar: uni01A2
Encoding: 418 418 356
Width: 500
GlyphClass: 2
Flags: W
FFAnchorPoint: "Anchor-5" 446 0 basechar 0
FFAnchorPoint: "Anchor-4" 446 735 basechar 0
FFAnchorPoint: "Anchor-3" 250 367 basechar 0
FFAnchorPoint: "Anchor-2" 250 382 basechar 0
FFAnchorPoint: "Anchor-1" 250 0 basechar 0
FFAnchorPoint: "Anchor-0" 250 735 basechar 0
LayerCount: 2
Fore
SplineSet
364 -205 m 1,0,-1
 364 623 l 1,1,2
 339 612 339 612 307 607 c 1,3,-1
 307 603 l 1,4,-1
 307 132 l 2,5,6
 307 86 307 86 288 53 c 0,7,8
 273 26 273 26 245 9 c 1,9,10
 214 -8 214 -8 173 -8 c 0,11,12
 130 -8 130 -8 101 9 c 0,13,14
 73 25 73 25 57 53 c 0,15,16
 38 86 38 86 38 132 c 2,17,-1
 38 603 l 2,18,19
 38 649 38 649 57 682 c 0,20,21
 73 710 73 710 101 726 c 0,22,23
 130 743 130 743 173 743 c 0,24,25
 214 743 214 743 245 726 c 1,26,27
 266 713 266 713 281 693 c 1,28,29
 334 700 334 700 364 735 c 1,30,-1
 462 735 l 1,31,-1
 462 -205 l 1,32,-1
 364 -205 l 1,0,-1
173 81 m 0,33,34
 186 81 186 81 195 90 c 0,35,36
 209 103 209 103 209 132 c 2,37,-1
 209 603 l 2,38,39
 209 632 209 632 195 645 c 0,40,41
 186 654 186 654 173 654 c 0,42,43
 159 654 159 654 150 645 c 0,44,45
 137 632 137 632 136 603 c 1,46,-1
 136 132 l 1,47,48
 137 103 137 103 150 90 c 0,49,50
 159 81 159 81 173 81 c 0,33,34
EndSplineSet
EndChar

StartChar: uni01A3
Encoding: 419 419 357
Width: 500
GlyphClass: 2
Flags: W
FFAnchorPoint: "Anchor-5" 446 -205 basechar 0
FFAnchorPoint: "Anchor-4" 446 530 basechar 0
FFAnchorPoint: "Anchor-3" 250 162 basechar 0
FFAnchorPoint: "Anchor-2" 250 177 basechar 0
FFAnchorPoint: "Anchor-1" 250 -205 basechar 0
FFAnchorPoint: "Anchor-0" 250 530 basechar 0
LayerCount: 2
Fore
SplineSet
364 -205 m 1,0,-1
 364 418 l 1,1,2
 339 407 339 407 307 402 c 1,3,-1
 307 398 l 1,4,-1
 307 132 l 2,5,6
 307 86 307 86 288 53 c 0,7,8
 273 26 273 26 245 9 c 1,9,10
 214 -8 214 -8 173 -8 c 0,11,12
 130 -8 130 -8 101 9 c 0,13,14
 73 25 73 25 57 53 c 0,15,16
 38 86 38 86 38 132 c 2,17,-1
 38 398 l 2,18,19
 38 444 38 444 57 477 c 0,20,21
 73 505 73 505 101 521 c 0,22,23
 130 538 130 538 173 538 c 0,24,25
 214 538 214 538 245 521 c 1,26,27
 266 508 266 508 281 488 c 1,28,29
 334 495 334 495 364 530 c 1,30,-1
 462 530 l 1,31,-1
 462 -205 l 1,32,-1
 364 -205 l 1,0,-1
173 81 m 0,33,34
 186 81 186 81 195 90 c 0,35,36
 209 103 209 103 209 132 c 2,37,-1
 209 398 l 2,38,39
 209 427 209 427 195 440 c 0,40,41
 186 449 186 449 173 449 c 0,42,43
 159 449 159 449 150 440 c 0,44,45
 137 427 137 427 136 398 c 1,46,-1
 136 132 l 1,47,48
 137 103 137 103 150 90 c 0,49,50
 159 81 159 81 173 81 c 0,33,34
EndSplineSet
EndChar

StartChar: uni01A4
Encoding: 420 420 358
Width: 500
GlyphClass: 2
Flags: W
FFAnchorPoint: "Anchor-5" 446 0 basechar 0
FFAnchorPoint: "Anchor-4" 446 735 basechar 0
FFAnchorPoint: "Anchor-3" 250 367 basechar 0
FFAnchorPoint: "Anchor-2" 250 382 basechar 0
FFAnchorPoint: "Anchor-1" 250 0 basechar 0
FFAnchorPoint: "Anchor-0" 250 735 basechar 0
LayerCount: 2
Fore
SplineSet
68 0 m 1,0,-1
 68 666 l 1,1,-1
 67 666 l 2,2,3
 63 666 63 666 59 662 c 0,4,5
 41 644 41 644 40 565 c 1,6,-1
 -37 565 l 1,7,8
 -36 641 -36 641 -10 686 c 0,9,10
 4 712 4 712 26 724 c 1,11,12
 44 735 44 735 68 735 c 2,13,-1
 249 735 l 2,14,15
 311 735 311 735 358 708 c 0,16,17
 400 684 400 684 424 641 c 1,18,19
 454 590 454 590 454 516 c 128,-1,20
 454 442 454 442 424 391 c 1,21,22
 400 348 400 348 358 323 c 1,23,24
 311 297 311 297 249 297 c 2,25,-1
 167 297 l 1,26,-1
 167 0 l 1,27,-1
 68 0 l 1,0,-1
249 387 m 2,28,29
 278 387 278 387 300 399.5 c 128,-1,30
 322 412 322 412 335 436 c 1,31,32
 354 468 354 468 354 516 c 128,-1,33
 354 564 354 564 335 596 c 0,34,35
 322 619 322 619 300 632 c 128,-1,36
 278 645 278 645 249 645 c 2,37,-1
 167 645 l 1,38,-1
 167 387 l 1,39,-1
 249 387 l 2,28,29
EndSplineSet
EndChar

StartChar: uni01A5
Encoding: 421 421 359
Width: 500
GlyphClass: 2
Flags: W
FFAnchorPoint: "Anchor-5" 446 -205 basechar 0
FFAnchorPoint: "Anchor-4" 446 735 basechar 0
FFAnchorPoint: "Anchor-3" 250 265 basechar 0
FFAnchorPoint: "Anchor-2" 250 283 basechar 0
FFAnchorPoint: "Anchor-1" 250 -205 basechar 0
FFAnchorPoint: "Anchor-0" 250 735 basechar 0
LayerCount: 2
Fore
SplineSet
54 -205 m 1,0,-1
 54 515 l 2,1,2
 54 595 54 595 86 650 c 0,3,4
 111 694 111 694 153 718 c 0,5,6
 196 743 196 743 255 743 c 256,7,8
 314 743 314 743 358 718 c 0,9,10
 400 694 400 694 425 650 c 0,11,12
 444 618 444 618 451 580 c 1,13,-1
 356 552 l 1,14,15
 351 581 351 581 338 604 c 0,16,17
 324 629 324 629 302 641 c 0,18,19
 282 653 282 653 255 653 c 0,20,21
 229 653 229 653 210 642 c 0,22,23
 189 630 189 630 174 605 c 0,24,25
 154 569 154 569 154 515 c 2,26,-1
 154 459 l 1,27,-1
 155 461 l 1,28,29
 178 500 178 500 212 520 c 0,30,31
 243 538 243 538 284 538 c 0,32,33
 328 538 328 538 361 519 c 0,34,35
 397 498 397 498 420 457 c 1,36,37
 454 400 454 400 454 310 c 2,38,-1
 454 220 l 2,39,40
 454 130 454 130 420 73 c 1,41,42
 397 32 397 32 361 11 c 0,43,44
 328 -8 328 -8 284 -8 c 0,45,46
 243 -8 243 -8 212 10 c 0,47,48
 178 30 178 30 155 69 c 1,49,-1
 154 71 l 1,50,-1
 154 -205 l 1,51,-1
 54 -205 l 1,0,-1
251 82 m 0,52,53
 277 82 277 82 298 94.5 c 128,-1,54
 319 107 319 107 334 131 c 1,55,56
 354 167 354 167 354 220 c 2,57,-1
 354 310 l 2,58,59
 354 363 354 363 334 399 c 1,60,61
 319 423 319 423 298 435.5 c 128,-1,62
 277 448 277 448 251 448 c 0,63,64
 226 448 226 448 209 438 c 0,65,66
 188 426 188 426 175 402 c 1,67,68
 154 367 154 367 154 310 c 2,69,-1
 154 220 l 2,70,71
 154 163 154 163 175 128 c 1,72,73
 188 104 188 104 209 92 c 0,74,75
 226 82 226 82 251 82 c 0,52,53
EndSplineSet
EndChar

StartChar: uni01A6
Encoding: 422 422 360
Width: 500
GlyphClass: 2
Flags: W
FFAnchorPoint: "Anchor-5" 446 -205 basechar 0
FFAnchorPoint: "Anchor-4" 446 735 basechar 0
FFAnchorPoint: "Anchor-3" 250 265 basechar 0
FFAnchorPoint: "Anchor-2" 250 283 basechar 0
FFAnchorPoint: "Anchor-1" 250 -205 basechar 0
FFAnchorPoint: "Anchor-0" 250 735 basechar 0
LayerCount: 2
Fore
SplineSet
359 -205 m 1,0,1
 359 -45 359 -45 223 191 c 0,2,3
 222 192 222 192 220 196 c 1,4,-1
 154 196 l 1,5,-1
 154 0 l 1,6,-1
 54 0 l 1,7,-1
 54 735 l 1,8,-1
 154 735 l 1,9,-1
 154 625 l 1,10,-1
 253 625 l 2,11,12
 315 625 315 625 359 599 c 0,13,14
 400 575 400 575 425 533 c 0,15,16
 454 482 454 482 454 410 c 128,-1,17
 454 338 454 338 425 288 c 0,18,19
 400 245 400 245 359 222 c 0,20,21
 343 212 343 212 325 207 c 1,22,23
 459 -37 459 -37 459 -205 c 1,24,-1
 359 -205 l 1,0,1
253 286 m 2,25,26
 281 286 281 286 302 298 c 128,-1,27
 323 310 323 310 336 333 c 0,28,29
 354 364 354 364 354 410 c 128,-1,30
 354 456 354 456 336 487 c 0,31,32
 323 510 323 510 302 522.5 c 128,-1,33
 281 535 281 535 253 535 c 2,34,-1
 154 535 l 1,35,-1
 154 286 l 1,36,-1
 253 286 l 2,25,26
EndSplineSet
EndChar

StartChar: uni01A7
Encoding: 423 423 361
Width: 500
GlyphClass: 2
Flags: W
FFAnchorPoint: "Anchor-5" 446 0 basechar 0
FFAnchorPoint: "Anchor-4" 446 735 basechar 0
FFAnchorPoint: "Anchor-3" 250 367 basechar 0
FFAnchorPoint: "Anchor-2" 250 382 basechar 0
FFAnchorPoint: "Anchor-1" 250 0 basechar 0
FFAnchorPoint: "Anchor-0" 250 735 basechar 0
LayerCount: 2
Fore
SplineSet
253 -8 m 0,0,1
 188 -8 188 -8 143 19 c 1,2,3
 102 42 102 42 80 81 c 0,4,5
 54 126 54 126 54 180.5 c 128,-1,6
 54 235 54 235 83 286 c 0,7,8
 117 345 117 345 227 409 c 0,9,10
 306 455 306 455 329 496 c 0,11,12
 346 525 346 525 346 556 c 0,13,14
 346 584 346 584 333 608 c 1,15,16
 321 628 321 628 301 640 c 0,17,18
 278 653 278 653 247 653 c 0,19,20
 213 653 213 653 188 639 c 0,21,22
 169 628 169 628 158 609.5 c 128,-1,23
 147 591 147 591 147 570 c 0,24,25
 147 567 147 567 147 564 c 1,26,-1
 49 580 l 1,27,28
 50 619 50 619 70 656 c 1,29,30
 93 694 93 694 130 715 c 0,31,32
 178 743 178 743 247 743 c 0,33,34
 312 743 312 743 357 716 c 1,35,36
 398 693 398 693 420 654 c 0,37,38
 446 609 446 609 446 554.5 c 128,-1,39
 446 500 446 500 417 449 c 0,40,41
 383 390 383 390 273 326 c 0,42,43
 194 280 194 280 171 239 c 0,44,45
 154 210 154 210 154 179 c 0,46,47
 154 151 154 151 167 127 c 1,48,49
 179 107 179 107 199 95 c 0,50,51
 222 82 222 82 253 82 c 0,52,53
 287 82 287 82 312 96 c 0,54,55
 331 107 331 107 342 125.5 c 128,-1,56
 353 144 353 144 353 165 c 0,57,58
 353 168 353 168 353 171 c 1,59,-1
 451 155 l 1,60,61
 450 116 450 116 430 79 c 1,62,63
 407 41 407 41 370 20 c 0,64,65
 322 -8 322 -8 253 -8 c 0,0,1
EndSplineSet
EndChar

StartChar: uni01A8
Encoding: 424 424 362
Width: 500
GlyphClass: 2
Flags: W
FFAnchorPoint: "Anchor-5" 446 0 basechar 0
FFAnchorPoint: "Anchor-4" 446 530 basechar 0
FFAnchorPoint: "Anchor-3" 250 265 basechar 0
FFAnchorPoint: "Anchor-2" 250 275 basechar 0
FFAnchorPoint: "Anchor-1" 250 0 basechar 0
FFAnchorPoint: "Anchor-0" 250 530 basechar 0
LayerCount: 2
Fore
SplineSet
254 -8 m 0,0,1
 177 -8 177 -8 126 21 c 0,2,3
 90 42 90 42 71 74 c 1,4,5
 54 105 54 105 54 141 c 0,6,7
 54 179 54 179 74 214 c 0,8,9
 96 252 96 252 137 276 c 0,10,11
 169 294 169 294 232 309 c 0,12,13
 285 321 285 321 307 334 c 128,-1,14
 329 347 329 347 338 364 c 0,15,16
 346 377 346 377 346 391 c 0,17,18
 346 409 346 409 333 422 c 0,19,20
 307 448 307 448 246 448 c 0,21,22
 206 448 206 448 181 434 c 1,23,24
 160 421 160 421 149 401 c 0,25,26
 146 396 146 396 142 388 c 1,27,-1
 49 420 l 1,28,29
 54 435 54 435 62 447 c 1,30,31
 84 487 84 487 125 510 c 0,32,33
 173 538 173 538 246 538 c 0,34,35
 323 538 323 538 374 509 c 0,36,37
 410 488 410 488 429 456 c 1,38,39
 446 425 446 425 446 389 c 0,40,41
 446 351 446 351 426 316 c 0,42,43
 404 278 404 278 363 254 c 0,44,45
 331 236 331 236 268 221 c 0,46,47
 215 209 215 209 193 196 c 128,-1,48
 171 183 171 183 162 166 c 0,49,50
 154 153 154 153 154 139 c 0,51,52
 154 121 154 121 167 108 c 0,53,54
 193 82 193 82 254 82 c 0,55,56
 294 82 294 82 319 96 c 1,57,58
 340 109 340 109 351 129 c 0,59,60
 354 134 354 134 358 142 c 1,61,-1
 451 110 l 1,62,63
 446 95 446 95 438 83 c 1,64,65
 416 43 416 43 375 20 c 0,66,67
 327 -8 327 -8 254 -8 c 0,0,1
EndSplineSet
EndChar

StartChar: uni01A9
Encoding: 425 425 363
Width: 500
GlyphClass: 2
Flags: W
FFAnchorPoint: "Anchor-5" 446 0 basechar 0
FFAnchorPoint: "Anchor-4" 446 735 basechar 0
FFAnchorPoint: "Anchor-3" 250 367 basechar 0
FFAnchorPoint: "Anchor-2" 250 382 basechar 0
FFAnchorPoint: "Anchor-1" 250 0 basechar 0
FFAnchorPoint: "Anchor-0" 250 735 basechar 0
LayerCount: 2
Fore
SplineSet
54 0 m 1,0,-1
 54 90 l 1,1,-1
 211 368 l 1,2,-1
 54 645 l 1,3,-1
 54 735 l 1,4,-1
 446 735 l 1,5,-1
 446 645 l 1,6,-1
 158 645 l 1,7,-1
 314 368 l 1,8,-1
 158 90 l 1,9,-1
 446 90 l 1,10,-1
 446 0 l 1,11,-1
 54 0 l 1,0,-1
EndSplineSet
EndChar

StartChar: uni01AA
Encoding: 426 426 364
Width: 500
GlyphClass: 2
Flags: W
FFAnchorPoint: "Anchor-5" 446 -205 basechar 0
FFAnchorPoint: "Anchor-4" 446 735 basechar 0
FFAnchorPoint: "Anchor-3" 250 265 basechar 0
FFAnchorPoint: "Anchor-2" 250 283 basechar 0
FFAnchorPoint: "Anchor-1" 250 -205 basechar 0
FFAnchorPoint: "Anchor-0" 250 735 basechar 0
LayerCount: 2
Fore
SplineSet
420 -200 m 1,0,1
 345 -200 345 -200 292 -170 c 0,2,3
 249 -145 249 -145 226 -104 c 1,4,5
 200 -60 200 -60 200 0 c 2,6,-1
 200 515 l 1,7,8
 189 514 189 514 176 514 c 0,9,10
 138 514 138 514 112 529 c 0,11,12
 89 542 89 542 76 565 c 0,13,14
 62 589 62 589 61 624 c 1,15,16
 62 660 62 660 76 684 c 0,17,18
 89 706 89 706 112 720 c 0,19,20
 138 735 138 735 177 735 c 0,21,22
 219 735 219 735 249 718 c 0,23,24
 273 704 273 704 286 681 c 0,25,26
 300 657 300 657 300 624 c 2,27,-1
 300 0 l 2,28,29
 300 -33 300 -33 314 -58 c 0,30,31
 327 -80 327 -80 351 -94 c 0,32,33
 379 -110 379 -110 420 -110 c 1,34,-1
 420 -200 l 1,0,1
176 587 m 256,35,36
 190 587 190 587 199 596 c 2,37,-1
 200 597 l 1,38,-1
 200 624 l 2,39,40
 200 646 200 646 190 656 c 0,41,42
 185 661 185 661 176 661 c 0,43,44
 171 661 171 661 167 660 c 0,45,46
 159 658 159 658 153 653 c 1,47,48
 144 642 144 642 143 624 c 1,49,50
 144 606 144 606 153 596 c 0,51,52
 162 587 162 587 176 587 c 256,35,36
EndSplineSet
EndChar

StartChar: uni01AB
Encoding: 427 427 365
Width: 500
GlyphClass: 2
Flags: W
FFAnchorPoint: "Anchor-5" 446 -205 basechar 0
FFAnchorPoint: "Anchor-4" 446 735 basechar 0
FFAnchorPoint: "Anchor-3" 250 265 basechar 0
FFAnchorPoint: "Anchor-2" 250 283 basechar 0
FFAnchorPoint: "Anchor-1" 250 -205 basechar 0
FFAnchorPoint: "Anchor-0" 250 735 basechar 0
LayerCount: 2
Fore
SplineSet
274 -200 m 1,0,-1
 274 -110 l 1,1,2
 315 -110 315 -110 343 -94 c 0,3,4
 366 -80 366 -80 380 -58 c 1,5,6
 393 -33 393 -33 394 0 c 1,7,-1
 394 6 l 1,8,9
 363 -8 363 -8 323 -8 c 0,10,11
 275 -8 275 -8 239 13 c 128,-1,12
 203 34 203 34 180 73 c 0,13,14
 150 126 150 126 150 203 c 2,15,-1
 150 440 l 1,16,-1
 50 440 l 1,17,-1
 50 530 l 1,18,-1
 150 530 l 1,19,-1
 150 735 l 1,20,-1
 250 735 l 1,21,-1
 250 530 l 1,22,-1
 400 530 l 1,23,-1
 400 440 l 1,24,-1
 250 440 l 1,25,-1
 250 203 l 2,26,27
 250 149 250 149 269 117 c 1,28,29
 279 98 279 98 295 89 c 0,30,31
 307 82 307 82 323 82 c 0,32,33
 340 82 340 82 353 89 c 1,34,35
 368 99 368 99 379 117 c 0,36,37
 394 143 394 143 397 179 c 1,38,-1
 494 155 l 1,39,-1
 494 0 l 1,40,41
 493 -60 493 -60 468 -104 c 0,42,43
 445 -145 445 -145 402 -170 c 0,44,45
 349 -200 349 -200 274 -200 c 1,0,-1
EndSplineSet
EndChar

StartChar: uni01AC
Encoding: 428 428 366
Width: 500
GlyphClass: 2
Flags: W
FFAnchorPoint: "Anchor-5" 299 0 basechar 0
FFAnchorPoint: "Anchor-4" 446 735 basechar 0
FFAnchorPoint: "Anchor-3" 250 367 basechar 0
FFAnchorPoint: "Anchor-2" 250 382 basechar 0
FFAnchorPoint: "Anchor-1" 250 0 basechar 0
FFAnchorPoint: "Anchor-0" 250 735 basechar 0
LayerCount: 2
Fore
SplineSet
200 0 m 1,0,-1
 200 666 l 1,1,-1
 158 666 l 2,2,3
 154 666 154 666 149 662 c 0,4,5
 131 643 131 643 131 565 c 1,6,-1
 54 565 l 1,7,8
 54 640 54 640 80 686 c 1,9,10
 96 712 96 712 117 724 c 0,11,12
 135 735 135 735 158 735 c 2,13,-1
 446 735 l 1,14,-1
 446 645 l 1,15,-1
 300 645 l 1,16,-1
 300 0 l 1,17,-1
 200 0 l 1,0,-1
EndSplineSet
EndChar

StartChar: uni01AD
Encoding: 429 429 367
Width: 500
GlyphClass: 2
Flags: W
FFAnchorPoint: "Anchor-5" 493 155 basechar 0
FFAnchorPoint: "Anchor-4" 446 530 basechar 0
FFAnchorPoint: "Anchor-3" 250 265 basechar 0
FFAnchorPoint: "Anchor-2" 250 275 basechar 0
FFAnchorPoint: "Anchor-1" 307 0 basechar 0
FFAnchorPoint: "Anchor-0" 250 530 basechar 0
LayerCount: 2
Fore
SplineSet
323 -8 m 0,0,1
 275 -8 275 -8 239 13 c 128,-1,2
 203 34 203 34 180 73 c 0,3,4
 150 126 150 126 150 203 c 2,5,-1
 150 440 l 1,6,-1
 50 440 l 1,7,-1
 50 530 l 1,8,-1
 150 530 l 1,9,10
 150 590 150 590 176 634 c 1,11,12
 199 675 199 675 242 700 c 0,13,14
 295 730 295 730 370 730 c 1,15,-1
 370 640 l 1,16,17
 329 640 329 640 301 624 c 0,18,19
 277 610 277 610 264 588 c 0,20,21
 250 563 250 563 250 530 c 1,22,-1
 400 530 l 1,23,-1
 400 440 l 1,24,-1
 250 440 l 1,25,-1
 250 203 l 2,26,27
 250 149 250 149 269 117 c 1,28,29
 279 98 279 98 295 89 c 0,30,31
 307 82 307 82 323 82 c 0,32,33
 340 82 340 82 353 89 c 1,34,35
 368 99 368 99 379 117 c 0,36,37
 394 143 394 143 397 179 c 1,38,-1
 494 155 l 1,39,40
 487 109 487 109 466 73 c 0,41,42
 444 34 444 34 407 13 c 0,43,44
 372 -8 372 -8 323 -8 c 0,0,1
EndSplineSet
EndChar

StartChar: uni01AE
Encoding: 430 430 368
Width: 500
GlyphClass: 2
Flags: W
FFAnchorPoint: "Anchor-5" 299 -213 basechar 0
FFAnchorPoint: "Anchor-4" 446 735 basechar 0
FFAnchorPoint: "Anchor-3" 250 367 basechar 0
FFAnchorPoint: "Anchor-2" 250 382 basechar 0
FFAnchorPoint: "Anchor-1" 250 0 basechar 0
FFAnchorPoint: "Anchor-0" 250 735 basechar 0
LayerCount: 2
Fore
SplineSet
420 -200 m 1,0,1
 324 -200 324 -200 277 -173 c 0,2,3
 243 -154 243 -154 223 -119 c 0,4,5
 200 -79 200 -79 200 0 c 2,6,-1
 200 645 l 1,7,-1
 54 645 l 1,8,-1
 54 735 l 1,9,-1
 446 735 l 1,10,-1
 446 645 l 1,11,-1
 300 645 l 1,12,-1
 300 0 l 2,13,14
 300 -44 300 -44 313 -66 c 0,15,16
 324 -85 324 -85 343 -96 c 0,17,18
 367 -110 367 -110 420 -110 c 1,19,-1
 420 -200 l 1,0,1
EndSplineSet
EndChar

